<svg fill="#000000" viewBox="0 0 32 32" version="1.1" xmlns="http://www.w3.org/2000/svg" stroke="#000000"
    stroke-width="0.00032">
    <g id="SVGRepo_bgCarrier" stroke-width="0" />
    <g id="SVGRepo_tracerCarrier" stroke-linecap="round" stroke-linejoin="round" />
    <g id="SVGRepo_iconCarrier" transform="matrix(1.065782, 0, 0, 1.167104, -1.407009, -3.064151)">
        <title>book</title>
        <path
            d="M30.728 18.612l-2.112-0.697 0.050 0.052-11.683 4.24-11.184-11.823-2.745-0.906c-1.386 0.981-1.541 3.774-0.61 4.746l13.805 14.19 14.602-5.228c-1.33-0.727-2.409-2.796-0.123-4.573zM15.474 22.441l-11.504-11.928h0.344l11.453 11.693-0.294 0.235zM16.353 27.987c0 0-1.592-1.86 0.471-4.334l12.501-4.527c0 0-1.438 2.469 0.245 3.927l-13.217 4.935zM5.799 10.384l-0.382-0.404 11.654-4.138 11.544 12.073 2.112 0.697c-0.010 0.008-0.020 0.016-0.030 0.024l0.246-0.088-13.623-14.125-14.212 5.072 2.69 0.888z" />
    </g>

    <!-- https://www.svgrepo.com/svg/499022/book?edit=true -->
</svg>
