<svg viewBox="0 0 24 24" id="Layer_1" data-name="Layer 1" xmlns="http://www.w3.org/2000/svg" fill="#000000">
    <g id="SVGRepo_bgCarrier" stroke-width="0"></g>
    <g id="SVGRepo_tracerCarrier" stroke-linecap="round" stroke-linejoin="round"></g>
    <g id="SVGRepo_iconCarrier">
        <defs>
            <style>
                .cls-1 {
                    fill: none;
                    stroke: #020202;
                    stroke-miterlimit: 10;
                    stroke-width: 1.056;
                }
            </style>
        </defs>
        <polyline class="cls-1" points="15.82 14.86 8.18 14.86 1.5 14.86 1.5 1.5 22.5 1.5 22.5 14.86 19.64 14.86">
        </polyline>
        <path class="cls-1"
            d="M9.14,11.05h3.34a1.44,1.44,0,0,0,1.43-1.44h0a1.43,1.43,0,0,0-1.43-1.43h-1a1.43,1.43,0,0,1-1.43-1.43h0a1.43,1.43,0,0,1,1.43-1.43h3.34">
        </path>
        <line class="cls-1" x1="12" y1="3.41" x2="12" y2="5.32"></line>
        <line class="cls-1" x1="12" y1="11.05" x2="12" y2="12.95"></line>
        <path class="cls-1"
            d="M17.73,22.5h0a6.52,6.52,0,0,0,1.91-4.61v-4A1.91,1.91,0,0,0,17.73,12h0a1.9,1.9,0,0,0-1.91,1.91v2.86l-.2.1a3.1,3.1,0,0,0-1.71,2.77h0">
        </path>
        <path class="cls-1" d="M8.18,14.86v3a6.52,6.52,0,0,0,1.91,4.61"></path>
    </g>
    <!-- https://www.svgrepo.com/svg/455641/money-donation -->
</svg>
