<svg viewBox="0 0 48 48" id="a" xmlns="http://www.w3.org/2000/svg" fill="#000000" stroke="#000000"
    stroke-width="1.6799999999999997">
    <g id="SVGRepo_bgCarrier" stroke-width="0"></g>
    <g id="SVGRepo_tracerCarrier" stroke-linecap="round" stroke-linejoin="round"></g>
    <g id="SVGRepo_iconCarrier">
        <defs>
            <style>
                .b {
                    fill: none;
                    stroke: #000000;
                    stroke-linecap: round;
                    stroke-linejoin: round;
                }
            </style>
        </defs>
        <path class="b"
            d="m25.0274,24.0519l-16.2624,15.8333h0c.5191,1.765,2.1803,3.1148,4.153,3.1148.8306,0,1.5574-.2077,2.1803-.6229h0l18.1694-10.2787-8.2403-8.0464Z">
        </path>
        <path class="b"
            d="m40.9508,20.2623h0l-7.7869-4.4645-8.1365,8.2541,8.2403,8.0464,7.7869-4.3607c1.3497-.7268,2.2842-2.1803,2.2842-3.7377-.1038-1.5574-1.0383-3.0109-2.388-3.7377Z">
        </path>
        <path class="b"
            d="m8.765,8.1148c-.1038.3115-.1038.7268-.1038,1.1421v29.5902c0,.4153,0,.7268.1038,1.1421l16.2624-15.9372L8.765,8.1148Z">
        </path>
        <path class="b"
            d="m25.0274,24.0519l8.1365-8.2541L15.2022,5.623c-.623-.4153-1.4536-.623-2.2842-.623-1.9727,0-3.7377,1.3497-4.153,3.1148h0l16.2624,15.9372Z">
        </path>
    </g>
</svg>
