<?xml version="1.0" encoding="us-ascii" standalone="no"?><svg xmlns="http://www.w3.org/2000/svg" xmlns:xlink="http://www.w3.org/1999/xlink" contentStyleType="text/css" height="1075px" preserveAspectRatio="none" style="width:720px;height:1075px;background:#FEFEFE;" version="1.1" viewBox="0 0 720 1075" width="720px" zoomAndPan="magnify"><defs/><g><rect fill="#FEFEFE" height="1075" style="stroke:none;stroke-width:1.0;" width="720" x="0" y="0"/><text fill="#000000" font-family="Verdana" font-size="22" font-weight="bold" lengthAdjust="spacing" textLength="687" x="15" y="37.1182">Bible On Site - Cross-Platform Application Architecture</text><!--cluster Distribution Channels--><g id="cluster_Distribution Channels"><path d="M28.1077,58.7373 L195.1077,58.7373 A3.75,3.75 0 0 1 197.6077,61.2373 L204.6077,81.752 L535.1077,81.752 A2.5,2.5 0 0 1 537.6077,84.252 L537.6077,162.2373 A2.5,2.5 0 0 1 535.1077,164.7373 L28.1077,164.7373 A2.5,2.5 0 0 1 25.6077,162.2373 L25.6077,61.2373 A2.5,2.5 0 0 1 28.1077,58.7373 " fill="#FFFFFF" style="stroke:#000000;stroke-width:1.0;"/><line style="stroke:#000000;stroke-width:1.0;" x1="25.6077" x2="204.6077" y1="81.752" y2="81.752"/><text fill="#000000" font-family="Verdana" font-size="14" font-weight="bold" lengthAdjust="spacing" textLength="166" x="29.6077" y="74.8125">Distribution Channels</text></g><!--cluster Target Platforms--><g id="cluster_Target Platforms"><path d="M92.1077,213.7373 L223.1077,213.7373 A3.75,3.75 0 0 1 225.6077,216.2373 L232.6077,236.752 L489.1077,236.752 A2.5,2.5 0 0 1 491.6077,239.252 L491.6077,317.2373 A2.5,2.5 0 0 1 489.1077,319.7373 L92.1077,319.7373 A2.5,2.5 0 0 1 89.6077,317.2373 L89.6077,216.2373 A2.5,2.5 0 0 1 92.1077,213.7373 " fill="#FFFFFF" style="stroke:#000000;stroke-width:1.0;"/><line style="stroke:#000000;stroke-width:1.0;" x1="89.6077" x2="232.6077" y1="236.752" y2="236.752"/><text fill="#000000" font-family="Verdana" font-size="14" font-weight="bold" lengthAdjust="spacing" textLength="130" x="93.6077" y="229.8125">Target Platforms</text></g><!--cluster App--><g id="cluster_App"><path d="M45.1077,360.7373 L286.1077,360.7373 A3.75,3.75 0 0 1 288.6077,363.2373 L295.6077,383.752 L296.1077,383.752 A2.5,2.5 0 0 1 298.6077,386.252 L298.6077,738.7373 A2.5,2.5 0 0 1 296.1077,741.2373 L45.1077,741.2373 A2.5,2.5 0 0 1 42.6077,738.7373 L42.6077,363.2373 A2.5,2.5 0 0 1 45.1077,360.7373 " fill="#FFFFFF" style="stroke:#000000;stroke-width:1.0;"/><line style="stroke:#000000;stroke-width:1.0;" x1="42.6077" x2="295.6077" y1="383.752" y2="383.752"/><text fill="#000000" font-family="Verdana" font-size="14" font-weight="bold" lengthAdjust="spacing" textLength="240" x="46.6077" y="376.8125">Bible On Site App (.NET MAUI)</text></g><!--cluster SQLite--><g id="cluster_SQLite"><path d="M55.6077,832.2373 C55.6077,822.2373 287.6077,822.2373 287.6077,822.2373 C287.6077,822.2373 519.6077,822.2373 519.6077,832.2373 L519.6077,949.2373 C519.6077,959.2373 287.6077,959.2373 287.6077,959.2373 C287.6077,959.2373 55.6077,959.2373 55.6077,949.2373 L55.6077,832.2373 " fill="#FFFFFF" style="stroke:#000000;stroke-width:1.0;"/><path d="M55.6077,832.2373 C55.6077,842.2373 287.6077,842.2373 287.6077,842.2373 C287.6077,842.2373 519.6077,842.2373 519.6077,832.2373 " fill="none" style="stroke:#000000;stroke-width:1.0;"/><text fill="#000000" font-family="Verdana" font-size="14" font-weight="bold" lengthAdjust="spacing" textLength="122" x="226.6077" y="858.3125">Local SQLite DB</text></g><!--cluster Backend Services--><g id="cluster_Backend Services"><path d="M560.2057,863.7733 C563.445,857.7041 567.4218,856.2723 572.3245,862.0753 C575.514,856.9467 578.8137,857.6347 582.31,861.7436 C586.1226,856.7133 589.6745,856.3489 594.1495,860.9275 C598.108,856.873 601.7745,856.7408 604.6129,862.1641 C607.2317,856.5394 612.3536,856.0432 616.3998,860.4941 C619.7443,855.051 624.9003,855.4534 627.318,861.3838 C631.1472,855.0842 634.8933,854.3544 639.6604,860.45 C644.4966,855.2097 648.5824,855.8623 651.5298,862.3599 C654.6168,857.6036 658.5596,858.0308 661.5214,862.4955 C665.726,857.342 669.4992,857.4527 673.2433,863 C676.5619,856.7311 681.8137,857.0353 685.1262,863.0059 C687.8592,858.9647 692.6496,858.7237 694.8788,863.5595 C700.8316,865.782 701.3646,870.8979 696.8259,874.9188 C703.3854,878.2284 704.027,882.4058 698.1014,887.0302 C703.7271,891.1281 703.6806,894.9785 698.0116,898.9916 C704.3923,902.1922 703.9861,908.4221 698.6416,912.1827 C703.3529,916.1741 704.1608,920.6483 697.5975,923.6095 C702.4386,927.3102 701.821,932.7763 696.1873,935.2028 C693.8124,940.9852 689.1811,942.2346 684.6741,937.5476 C681.6352,943.67 676.8555,944.2185 672.8031,938.5696 C669.852,943.4256 664.3812,944.2602 661.0335,939.0325 C659.8071,944.0008 655.3003,945.8377 651.4785,941.7799 C648.4385,947.5265 643.9448,948.3311 639.8878,942.8278 C636.1872,948.9109 632.3874,948.7421 627.5372,944.1589 C624.0011,948.5577 618.8795,947.4709 617.1939,942.183 C614.0303,947.6904 609.3506,948.2215 605.9859,942.3816 C602.0485,946.93 596.1359,947.2467 594.13,940.3763 C589.0958,945.2833 585.2782,943.786 582.3251,938.0647 C578.6449,942.8969 575.3805,942.1932 572.1058,937.624 C568.006,943.1886 563.9238,941.6698 560.852,936.5421 C553.8371,934.5408 552.6785,929.0412 558.5971,924.5983 C552.5129,921.5455 551.3367,915.2113 557.2301,910.9582 C550.6221,908.1401 551.1614,903.4992 555.9681,899.4314 C550.7925,895.5397 550.0096,889.0666 556.9771,886.0934 C552.3473,881.4741 553.455,878.4529 559.0478,875.9129 C552.765,871.6981 554.0438,866.8011 560.2057,863.7733 " fill="#FFFFFF" style="stroke:#000000;stroke-width:1.0;"/><text fill="#000000" font-family="Verdana" font-size="14" font-weight="bold" lengthAdjust="spacing" textLength="135" x="559.6077" y="880.8125">Backend Services</text></g><!--cluster Firebase--><g id="cluster_Firebase"><path d="M349.5113,645.7847 C353.721,637.2202 361.906,635.2387 367.5269,644.3461 C375.1135,631.7101 385.5827,632.9549 391.4772,645.9285 C397.0555,633.7073 403.8595,635.0837 412.3384,642.9102 C419.3558,633.4264 428.0717,631.0799 435.0959,642.9029 C440.2942,632.6618 450.1192,632.6506 455.1828,643.0342 C461.2684,633.4869 471.248,631.8917 477.4496,642.9085 C481.7367,631.2607 492.1538,632.6817 498.4883,640.7206 C506.2162,632.1318 513.6061,633.6832 518.2171,643.9773 C523.6411,633.4961 533.6505,634.0326 538.7825,644.2673 C544.2728,633.9906 552.6228,634.4378 559.3653,642.8911 C567.1833,630.4612 575.2683,632.3543 582.7254,643.2524 C590.6889,631.4506 598.6285,634.17 605.7628,644.1302 C612.2131,635.5781 621.9612,634.7738 626.723,645.9263 C636.8925,633.7891 646.3607,637.4128 651.6077,650.7373 C652.8725,651.376 653.1625,652.4848 652.0252,653.4882 C671.9252,661.8862 672.7427,675.1189 658.2598,689.4738 C674.6227,710.6719 670.7989,725.6641 644.6077,733.7373 C646.4608,733.7177 647.4855,735.0779 646.3823,736.7816 C638.993,745.9537 632.1892,745.6053 625.6112,735.8894 C619.6493,746.8118 610.1134,747.8453 603.6571,736.3741 C598.2017,747.8932 591.432,747.0637 583.4831,738.9343 C575.5392,749.3884 568.1012,749.969 560.6818,738.3915 C555.0594,747.6026 546.4679,747.2803 540.461,738.8319 C535.2337,750.7258 527.302,749.9191 519.9098,740.9661 C513.3587,751.1596 504.9613,750.9942 498.2701,741.1171 C491.4764,750.1681 482.1648,748.0273 477.5742,738.6438 C471.114,752.4325 460.2403,751.0974 452.7338,739.6747 C446.9811,748.4672 439.4669,750.0493 433.298,740.1065 C425.1833,747.1307 418.3131,748.6007 413.4972,736.6619 C406.9465,749.724 397.3986,748.7555 389.3964,738.1392 C382.285,746.6496 375.7291,748.262 368.6961,738.0524 C353.3446,746.9273 343.7414,745.0326 338.6077,726.7373 C340.6879,725.5525 341.7656,726.2717 341.9323,728.566 C322.4443,721.0664 319.6541,703.4724 337.0893,691.1887 C320.1011,675.2428 319.472,651.9417 345.6077,643.7373 C347.6242,642.4568 349.5157,643.212 349.5113,645.7847 " fill="#FFFFFF" style="stroke:#000000;stroke-width:1.0;"/><text fill="#000000" font-family="Verdana" font-size="14" font-weight="bold" lengthAdjust="spacing" textLength="65" x="462.6077" y="662.8125">Firebase</text></g><!--entity GooglePlay--><g id="elem_GooglePlay"><rect fill="#FFFFFF" height="54.0293" rx="2.5" ry="2.5" style="stroke:#000000;stroke-width:1.0;" width="145" x="42.1077" y="94.7373"/><text fill="#000000" font-family="Verdana" font-size="14" font-style="italic" lengthAdjust="spacing" textLength="54" x="87.6077" y="118.8125">&#171;store&#187;</text><text fill="#000000" font-family="Verdana" font-size="14" lengthAdjust="spacing" textLength="125" x="52.1077" y="135.8271">Google Play Store</text></g><!--entity AppStore--><g id="elem_AppStore"><rect fill="#FFFFFF" height="54.0293" rx="2.5" ry="2.5" style="stroke:#000000;stroke-width:1.0;" width="136" x="222.6077" y="94.7373"/><text fill="#000000" font-family="Verdana" font-size="14" font-style="italic" lengthAdjust="spacing" textLength="54" x="263.6077" y="118.8125">&#171;store&#187;</text><text fill="#000000" font-family="Verdana" font-size="14" lengthAdjust="spacing" textLength="116" x="232.6077" y="135.8271">Apple App Store</text></g><!--entity MSStore--><g id="elem_MSStore"><rect fill="#FFFFFF" height="54.0293" rx="2.5" ry="2.5" style="stroke:#000000;stroke-width:1.0;" width="128" x="393.6077" y="94.7373"/><text fill="#000000" font-family="Verdana" font-size="14" font-style="italic" lengthAdjust="spacing" textLength="54" x="430.6077" y="118.8125">&#171;store&#187;</text><text fill="#000000" font-family="Verdana" font-size="14" lengthAdjust="spacing" textLength="108" x="403.6077" y="135.8271">Microsoft Store</text></g><!--entity Android--><g id="elem_Android"><rect fill="#FFFFFF" height="54.0293" rx="2.5" ry="2.5" style="stroke:#000000;stroke-width:1.0;" width="100" x="105.6077" y="249.7373"/><text fill="#000000" font-family="Verdana" font-size="14" font-style="italic" lengthAdjust="spacing" textLength="80" x="115.6077" y="273.8125">&#171;platform&#187;</text><text fill="#000000" font-family="Verdana" font-size="14" lengthAdjust="spacing" textLength="55" x="128.1077" y="290.8271">Android</text></g><!--entity iOS--><g id="elem_iOS"><rect fill="#FFFFFF" height="54.0293" rx="2.5" ry="2.5" style="stroke:#000000;stroke-width:1.0;" width="100" x="240.6077" y="249.7373"/><text fill="#000000" font-family="Verdana" font-size="14" font-style="italic" lengthAdjust="spacing" textLength="80" x="250.6077" y="273.8125">&#171;platform&#187;</text><text fill="#000000" font-family="Verdana" font-size="14" lengthAdjust="spacing" textLength="24" x="278.6077" y="290.8271">iOS</text></g><!--entity Windows--><g id="elem_Windows"><rect fill="#FFFFFF" height="54.0293" rx="2.5" ry="2.5" style="stroke:#000000;stroke-width:1.0;" width="100" x="375.6077" y="249.7373"/><text fill="#000000" font-family="Verdana" font-size="14" font-style="italic" lengthAdjust="spacing" textLength="80" x="385.6077" y="273.8125">&#171;platform&#187;</text><text fill="#000000" font-family="Verdana" font-size="14" lengthAdjust="spacing" textLength="64" x="393.6077" y="290.8271">Windows</text></g><!--entity UI--><g id="elem_UI"><rect fill="#FFFFFF" height="54.0293" rx="2.5" ry="2.5" style="stroke:#000000;stroke-width:1.0;" width="98" x="151.6077" y="404.7373"/><text fill="#000000" font-family="Verdana" font-size="14" lengthAdjust="spacing" textLength="58" x="161.6077" y="428.8125">UI Layer</text><text fill="#000000" font-family="Verdana" font-size="14" lengthAdjust="spacing" textLength="78" x="161.6077" y="445.8271">(XAML/C#)</text></g><!--entity BL--><g id="elem_BL"><rect fill="#FFFFFF" height="37.0146" rx="2.5" ry="2.5" style="stroke:#000000;stroke-width:1.0;" width="124" x="138.6077" y="519.7373"/><text fill="#000000" font-family="Verdana" font-size="14" lengthAdjust="spacing" textLength="104" x="148.6077" y="543.8125">Business Logic</text></g><!--entity DAL--><g id="elem_DAL"><rect fill="#FFFFFF" height="37.0146" rx="2.5" ry="2.5" style="stroke:#000000;stroke-width:1.0;" width="149" x="117.1077" y="680.2373"/><text fill="#000000" font-family="Verdana" font-size="14" lengthAdjust="spacing" textLength="129" x="127.1077" y="704.3125">Data Access Layer</text></g><!--entity TanahData--><g id="elem_TanahData"><rect fill="#FFFFFF" height="54.0293" rx="2.5" ry="2.5" style="stroke:#000000;stroke-width:1.0;" width="216" x="279.6077" y="881.2373"/><text fill="#000000" font-family="Verdana" font-size="14" lengthAdjust="spacing" textLength="113" x="289.6077" y="905.3125">Tanah Contents</text><text fill="#000000" font-family="Verdana" font-size="14" lengthAdjust="spacing" textLength="196" x="289.6077" y="922.3271">(Sefarim, Perakim, Pesukim)</text></g><!--entity Commentaries--><g id="elem_Commentaries"><rect fill="#FFFFFF" height="54.0293" rx="2.5" ry="2.5" style="stroke:#000000;stroke-width:1.0;" width="145" x="99.1077" y="881.2373"/><text fill="#000000" font-family="Verdana" font-size="14" lengthAdjust="spacing" textLength="101" x="109.1077" y="905.3125">Commentaries</text><text fill="#000000" font-family="Verdana" font-size="14" lengthAdjust="spacing" textLength="125" x="109.1077" y="922.3271">(from Rabbis z\"l)</text></g><!--entity API--><g id="elem_API"><rect fill="#FFFFFF" height="37.0146" rx="2.5" ry="2.5" style="stroke:#000000;stroke-width:1.0;" width="98" x="567.6077" y="889.7373"/><text fill="#000000" font-family="Verdana" font-size="14" lengthAdjust="spacing" textLength="78" x="577.6077" y="913.8125">API Service</text></g><!--entity FirebaseSettings--><g id="elem_FirebaseSettings"><rect fill="#FFFFFF" height="54.0293" rx="2.5" ry="2.5" style="stroke:#000000;stroke-width:1.0;" width="116" x="346.6077" y="671.7373"/><text fill="#000000" font-family="Verdana" font-size="14" lengthAdjust="spacing" textLength="96" x="356.6077" y="695.8125">User Settings</text><text fill="#000000" font-family="Verdana" font-size="14" lengthAdjust="spacing" textLength="56" x="356.6077" y="712.8271">Storage</text></g><!--entity FirebaseNotifications--><g id="elem_FirebaseNotifications"><rect fill="#FFFFFF" height="54.0293" rx="2.5" ry="2.5" style="stroke:#000000;stroke-width:1.0;" width="145" x="498.1077" y="671.7373"/><text fill="#000000" font-family="Verdana" font-size="14" lengthAdjust="spacing" textLength="125" x="508.1077" y="695.8125">Push Notifications</text><text fill="#000000" font-family="Verdana" font-size="14" lengthAdjust="spacing" textLength="41" x="508.1077" y="712.8271">(FCM)</text></g><!--link GooglePlay to Android--><g id="link_GooglePlay_Android"><path d="M121.6577,149.0373 C129.1877,177.1473 139.5036,215.6521 147.0336,243.7321 " fill="none" id="GooglePlay-to-Android" style="stroke:#000000;stroke-width:1.0;"/><polygon fill="#000000" points="148.5877,249.5273,150.1201,239.7984,147.2926,244.6979,142.3931,241.8705,148.5877,249.5273" style="stroke:#000000;stroke-width:1.0;"/><text fill="#000000" font-family="Verdana" font-size="13" lengthAdjust="spacing" textLength="69" x="135.6077" y="194.8071">downloads</text></g><!--link AppStore to iOS--><g id="link_AppStore_iOS"><path d="M290.6077,149.0373 C290.6077,177.1473 290.6077,215.4473 290.6077,243.5273 " fill="none" id="AppStore-to-iOS" style="stroke:#000000;stroke-width:1.0;"/><polygon fill="#000000" points="290.6077,249.5273,294.6077,240.5273,290.6077,244.5273,286.6077,240.5273,290.6077,249.5273" style="stroke:#000000;stroke-width:1.0;"/><text fill="#000000" font-family="Verdana" font-size="13" lengthAdjust="spacing" textLength="69" x="291.6077" y="194.8071">downloads</text></g><!--link MSStore to Windows--><g id="link_MSStore_Windows"><path d="M452.1077,149.0373 C446.2277,177.1473 438.1854,215.5743 432.3154,243.6543 " fill="none" id="MSStore-to-Windows" style="stroke:#000000;stroke-width:1.0;"/><polygon fill="#000000" points="431.0877,249.5273,436.8446,241.5362,432.1108,244.6331,429.0139,239.8992,431.0877,249.5273" style="stroke:#000000;stroke-width:1.0;"/><text fill="#000000" font-family="Verdana" font-size="13" lengthAdjust="spacing" textLength="69" x="445.6077" y="194.8071">downloads</text></g><!--link Android to App--><g id="link_Android_App"><path d="M185.7577,303.9073 C196.7877,312.4573 209.7277,321.3773 222.6077,327.7373 C247.4577,340.0073 264.8877,323.4273 282.6077,344.7373 C285.5802,348.3111 287.95,352.2804 289.8196,356.4972 C290.287,357.5514 290.7231,358.6211 291.1296,359.7039 C291.2312,359.9746 289.3005,354.6001 289.3984,354.8724 " fill="none" id="Android-to-App" style="stroke:#000000;stroke-width:1.0;"/><polygon fill="#000000" points="291.4289,360.5184,292.1471,350.6958,289.7368,355.8134,284.6192,353.4031,291.4289,360.5184" style="stroke:#000000;stroke-width:1.0;"/></g><!--link iOS to App--><g id="link_iOS_App"><path d="M290.6077,304.0373 C290.6077,314.8023 290.6077,327.9423 290.6077,341.6364 C290.6077,345.0599 290.6077,348.518 290.6077,351.9823 C290.6077,353.7145 290.6077,355.4482 290.6077,357.1799 C290.6077,358.0458 290.6077,358.9111 290.6077,359.7755 C290.6077,359.9916 290.6077,354.2076 290.6077,354.4236 " fill="none" id="iOS-to-App" style="stroke:#000000;stroke-width:1.0;"/><polygon fill="#000000" points="290.6077,360.4236,294.6077,351.4236,290.6077,355.4236,286.6077,351.4236,290.6077,360.4236" style="stroke:#000000;stroke-width:1.0;"/></g><!--link Windows to App--><g id="link_Windows_App"><path d="M402.3977,304.0373 C383.4027,325.5673 356.0252,356.5973 333.1177,382.5598 C321.6639,395.5411 311.3277,407.2554 303.7155,415.882 C302.764,416.9603 301.855,417.9904 300.9917,418.9687 C300.5601,419.4578 300.1399,419.934 299.7315,420.3968 C299.5273,420.6282 299.3261,420.8562 299.1279,421.0808 C299.0287,421.1932 302.9004,416.8058 302.8028,416.9165 " fill="none" id="Windows-to-App" style="stroke:#000000;stroke-width:1.0;"/><polygon fill="#000000" points="298.8328,421.4152,307.787,417.3137,302.1411,417.6663,301.7886,412.0204,298.8328,421.4152" style="stroke:#000000;stroke-width:1.0;"/></g><!--link UI to BL--><g id="link_UI_BL"><path d="M200.6077,458.8373 C200.6077,477.8173 200.6077,497.0073 200.6077,513.6473 " fill="none" id="UI-to-BL" style="stroke:#000000;stroke-width:1.0;"/><polygon fill="#000000" points="200.6077,519.6473,204.6077,510.6473,200.6077,514.6473,196.6077,510.6473,200.6077,519.6473" style="stroke:#000000;stroke-width:1.0;"/></g><!--link BL to DAL--><g id="link_BL_DAL"><path d="M199.6077,556.8073 C197.8777,587.2673 194.6892,643.577 192.9492,674.097 " fill="none" id="BL-to-DAL" style="stroke:#000000;stroke-width:1.0;"/><polygon fill="#000000" points="192.6077,680.0873,197.1135,671.3296,192.8923,675.0954,189.1264,670.8742,192.6077,680.0873" style="stroke:#000000;stroke-width:1.0;"/></g><!--link DAL to SQLite--><g id="link_DAL_SQLite"><path d="M166.0177,717.3373 C140.6377,736.2373 102.7077,768.6873 82.6077,806.2373 C79.9552,811.1923 79.7181,810.8183 77.7462,816.2417 " fill="none" id="DAL-to-SQLite" style="stroke:#000000;stroke-width:1.0;"/><polygon fill="#000000" points="75.6959,821.8806,82.5305,814.7891,77.4045,817.1815,75.012,812.0555,75.6959,821.8806" style="stroke:#000000;stroke-width:1.0;"/><text fill="#000000" font-family="Verdana" font-size="13" lengthAdjust="spacing" textLength="73" x="119.6077" y="779.3071">static data</text><text fill="#000000" font-family="Verdana" font-size="13" lengthAdjust="spacing" textLength="85" x="113.6077" y="795.1064">(offline-first)</text></g><!--link DAL to API--><g id="link_DAL_API"><path d="M230.3377,717.3273 C257.9477,729.4673 296.1277,745.4873 330.6077,757.2373 C409.4977,784.1073 439.0877,765.1773 511.6077,806.2373 C549.9077,827.9173 580.8762,862.1208 599.2062,884.8008 " fill="none" id="DAL-to-API" style="stroke:#000000;stroke-width:1.0;"/><polygon fill="#000000" points="602.9777,889.4673,600.4315,879.9533,599.8348,885.5786,594.2095,884.9819,602.9777,889.4673" style="stroke:#000000;stroke-width:1.0;"/><text fill="#000000" font-family="Verdana" font-size="13" lengthAdjust="spacing" textLength="89" x="495.6077" y="779.3071">dynamic data</text><text fill="#000000" font-family="Verdana" font-size="13" lengthAdjust="spacing" textLength="50" x="515.1077" y="795.1064">(online)</text></g><!--link BL to FirebaseSettings--><g id="link_BL_FirebaseSettings"><path d="M223.2177,556.8073 C259.1077,584.6973 324.5899,635.5658 366.3499,668.0158 " fill="none" id="BL-to-FirebaseSettings" style="stroke:#000000;stroke-width:1.0;"/><polygon fill="#000000" points="371.0877,671.6973,366.4354,663.0165,367.1395,668.6294,361.5267,669.3335,371.0877,671.6973" style="stroke:#000000;stroke-width:1.0;"/><text fill="#000000" font-family="Verdana" font-size="13" lengthAdjust="spacing" textLength="68" x="325.1077" y="600.8071">read/write</text><text fill="#000000" font-family="Verdana" font-size="13" lengthAdjust="spacing" textLength="111" x="303.6077" y="616.6064">user preferences</text></g><!--link FirebaseNotifications to App--><g id="link_FirebaseNotifications_App"><path d="M542.8877,671.4973 C507.8677,638.3573 445.6752,579.4973 391.8052,528.5136 C364.8702,503.0217 340.0158,479.4989 321.6789,462.1446 C312.5105,453.4675 304.9714,446.3326 299.6163,441.2647 C299.2817,440.948 303.3134,444.7635 302.9959,444.463 " fill="none" id="FirebaseNotifications-to-App" style="stroke:#000000;stroke-width:1.0;"/><polygon fill="#000000" points="298.638,440.3388,302.4254,449.4303,302.2696,443.7756,307.9243,443.6198,298.638,440.3388" style="stroke:#000000;stroke-width:1.0;"/><text fill="#000000" font-family="Verdana" font-size="13" lengthAdjust="spacing" textLength="31" x="446.6077" y="535.8071">push</text><text fill="#000000" font-family="Verdana" font-size="13" lengthAdjust="spacing" textLength="81" x="421.6077" y="551.6064">notifications</text></g><rect fill="none" height="82.0586" id="_legend" rx="7.5" ry="7.5" style="stroke:#000000;stroke-width:1.0;" width="477" x="120" y="980.2373"/><text fill="#000000" font-family="Verdana" font-size="14" font-weight="bold" lengthAdjust="spacing" textLength="57" x="130" y="1001.3125">Symbol</text><text fill="#000000" font-family="Verdana" font-size="14" font-weight="bold" lengthAdjust="spacing" textLength="87" x="198" y="1001.3125">Description</text><text fill="#000000" font-family="Verdana" font-size="14" lengthAdjust="spacing" textLength="46" x="130" y="1018.3271">SQLite</text><text fill="#000000" font-family="Verdana" font-size="14" lengthAdjust="spacing" textLength="389" x="198" y="1018.3271">Static content (Tanah, Commentaries) - rarely changes</text><text fill="#000000" font-family="Verdana" font-size="14" lengthAdjust="spacing" textLength="23" x="130" y="1035.3418">API</text><text fill="#000000" font-family="Verdana" font-size="14" lengthAdjust="spacing" textLength="269" x="198" y="1035.3418">Dynamic content - frequently updated</text><text fill="#000000" font-family="Verdana" font-size="14" lengthAdjust="spacing" textLength="58" x="130" y="1052.3564">Firebase</text><text fill="#000000" font-family="Verdana" font-size="14" lengthAdjust="spacing" textLength="199" x="198" y="1052.3564">User settings &amp; notifications</text><line style="stroke:#000000;stroke-width:1.0;" x1="125" x2="592" y1="987.2373" y2="987.2373"/><line style="stroke:#000000;stroke-width:1.0;" x1="125" x2="592" y1="1004.252" y2="1004.252"/><line style="stroke:#000000;stroke-width:1.0;" x1="125" x2="592" y1="1021.2666" y2="1021.2666"/><line style="stroke:#000000;stroke-width:1.0;" x1="125" x2="592" y1="1038.2813" y2="1038.2813"/><line style="stroke:#000000;stroke-width:1.0;" x1="125" x2="592" y1="1055.2959" y2="1055.2959"/><line style="stroke:#000000;stroke-width:1.0;" x1="125" x2="125" y1="987.2373" y2="1055.2959"/><line style="stroke:#000000;stroke-width:1.0;" x1="193" x2="193" y1="987.2373" y2="1055.2959"/><line style="stroke:#000000;stroke-width:1.0;" x1="592" x2="592" y1="987.2373" y2="1055.2959"/><!--SRC=[RLLjRzem4FwUNt6ZqbQaidwlragyj1DIQ5afsgIn3uxZ1AkEdTdEEZRwttUsun1OWmHdttFsStVFXNTsooe6jI1S9kQPovfeKa56w7EfLIFpgH9AmzdThVlq45HLjP9CsfNT2GQQKKjaALYIM6vnOy8p_7wGiEAMmGYcMXapMWfY2wKh6DUru9HOhYICDTqYYDf6O_W7k7QFGy3AAirCs4Xgv4HA1eCPDrRphF71qosHaWapWBy9uFFzir980_2cNOZ_0SH0sFMRdpuPjtrp4_2E2JlSvj6uyejJx89JJ4CLjeTTh4wXhuSaOhx_vV14TCdimT_H7yjSAvu76i76e-iM5udmXvL7uEyRtgzSvkh5U4Hh7wDUZyhSDUA4ut4BNONEFzxVFi5Yl9uF1ssT8k_r75AoOteZpx-D5-dbz6pexr_FWt_I62wPCP2gabFlcgJ1DIEMm9XIxtLdUEzidFPvfeeIuSlkk0McEGPcn23LrlibTKnd4q-kNRNydeWaMvWgQL6p1bckM44qhovWoJHv3ePfq0YyFTun2-5JLLKOY17C1HTQLV18iemR-BCPY13J1_Mvt_wsJ4j7aEbVd7QAfa8rETOP2yvatdaFMbZEusRGmtBkZct3xhXcBliElZPC8zvQBaiasTRAHqPiz8Q0PMEsSAyiBre5kDJkfelXKSmHe9_M8nDXSylhc18wmpXOrOaRK81IA9ARf3U6ez5D9_2h7gIRFGTm-kuxux0vNrHstu_NTxVgHXeWTPt4M_oDk7Q7HZiU4jTuW1Crbst72g5U4jIsywDU9wctd3OHwOLhLAEnQGdkULyhkoim5gj3mOaKowgAGk00Z0gkZHrsQDTYJ60dITN3IWSTkYjY4_1zYwyv6dhGiZXjAXwa6SalNpGIsCZ6oQ7Mh62QISVmpOR6p36uHZbif3ngzs7-MEaq6heimY9JrgeAjRI_XjMkofHmremPgddjtoXxvumbGIEKX8OfX7C_P1T7SpF4_mfDD1CxeFXgBt5OmY6kKdkOjPMAHuoWqEndWoO6D3KMaELjG5UwFVZ9CB5Cx-4eHuHZCY6bv1y0]--></g></svg>