<?xml version="1.0" encoding="us-ascii" standalone="no"?><svg xmlns="http://www.w3.org/2000/svg" xmlns:xlink="http://www.w3.org/1999/xlink" contentStyleType="text/css" height="812px" preserveAspectRatio="none" style="width:5532px;height:812px;background:#FEFEFE;" version="1.1" viewBox="0 0 5532 812" width="5532px" zoomAndPan="magnify"><defs/><g><rect fill="#FEFEFE" height="812" style="stroke:none;stroke-width:1.0;" width="5532" x="0" y="0"/><text fill="#000000" font-family="Verdana" font-size="22" font-weight="bold" lengthAdjust="spacing" textLength="526" x="2501.5" y="37.1182">Continuous Integration Workflow (ci.yml)</text><rect fill="#FFFFFF" height="21.876" style="stroke:#FFFFFF;stroke-width:1.0;" width="5509" x="10" y="55.0166"/><rect fill="#E8F4FD" height="750.7925" style="stroke:#E8F4FD;stroke-width:1.0;" width="885" x="10" y="55.0166"/><ellipse cx="453.5" cy="91.8926" fill="#FFFFFF" rx="10" ry="10" style="stroke:#000000;stroke-width:1.0;"/><rect fill="#1976D2" height="6" rx="2.5" ry="2.5" style="stroke:#1976D2;stroke-width:1.0;" width="875" x="16" y="121.8926"/><rect fill="#E8F4FD" height="34.584" rx="12.5" ry="12.5" style="stroke:#2196F3;stroke-width:1.0;" width="202" x="28" y="149.2996"/><text fill="#1565C0" font-family="Verdana" font-size="12" lengthAdjust="spacing" textLength="182" x="38" y="171.364">Setup Environment Variables</text><path d="M472,137.8926 L472,162.5916 L452,166.5916 L472,170.5916 L472,195.2905 A0,0 0 0 0 472,195.2905 L690,195.2905 A0,0 0 0 0 690,195.2905 L690,147.8926 L680,137.8926 L472,137.8926 A0,0 0 0 0 472,137.8926 " fill="#FFFFFF" style="stroke:#000000;stroke-width:1.0;"/><path d="M680,137.8926 L680,147.8926 L690,147.8926 L680,137.8926 " fill="#FFFFFF" style="stroke:#000000;stroke-width:1.0;"/><text fill="#000000" font-family="Verdana" font-size="13" lengthAdjust="spacing" textLength="171" x="478" y="155.9624">Check &amp; download master</text><text fill="#000000" font-family="Verdana" font-size="13" lengthAdjust="spacing" textLength="197" x="478" y="171.7617">coverage artifacts (cross-wf)</text><text fill="#000000" font-family="Verdana" font-size="13" lengthAdjust="spacing" textLength="168" x="478" y="187.561">Re-upload for current run</text><rect fill="#E8F4FD" height="34.584" rx="12.5" ry="12.5" style="stroke:#2196F3;stroke-width:1.0;" width="212" x="240" y="149.2996"/><text fill="#1565C0" font-family="Verdana" font-size="12" lengthAdjust="spacing" textLength="192" x="250" y="171.364">Determine Baseline Availability</text><rect fill="#E8F4FD" height="34.584" rx="12.5" ry="12.5" style="stroke:#2196F3;stroke-width:1.0;" width="179" x="700" y="149.2996"/><text fill="#1565C0" font-family="Verdana" font-size="12" lengthAdjust="spacing" textLength="159" x="710" y="171.364">Build LCOV Docker Image</text><rect fill="#1976D2" height="6" rx="2.5" ry="2.5" style="stroke:#1976D2;stroke-width:1.0;" width="875" x="16" y="215.2905"/><line style="stroke:#000000;stroke-width:1.0;" x1="10" x2="10" y1="55.0166" y2="805.8091"/><rect fill="#FFF8E1" height="750.7925" style="stroke:#FFF8E1;stroke-width:1.0;" width="795.5" x="895" y="55.0166"/><rect fill="#1976D2" height="6" rx="2.5" ry="2.5" style="stroke:#1976D2;stroke-width:1.0;" width="785.5" x="901" y="241.2905"/><rect fill="#E8F4FD" height="34.584" rx="12.5" ry="12.5" style="stroke:#2196F3;stroke-width:1.0;" width="201" x="913" y="267.2905"/><text fill="#1565C0" font-family="Verdana" font-size="12" lengthAdjust="spacing" textLength="181" x="923" y="289.355">Determine Website Changes</text><rect fill="#E8F4FD" height="34.584" rx="12.5" ry="12.5" style="stroke:#2196F3;stroke-width:1.0;" width="170" x="1124" y="267.2905"/><text fill="#1565C0" font-family="Verdana" font-size="12" lengthAdjust="spacing" textLength="150" x="1134" y="289.355">Determine API Changes</text><rect fill="#E8F4FD" height="34.584" rx="12.5" ry="12.5" style="stroke:#2196F3;stroke-width:1.0;" width="173" x="1312.5" y="267.2905"/><text fill="#1565C0" font-family="Verdana" font-size="12" lengthAdjust="spacing" textLength="153" x="1322.5" y="289.355">Determine App Changes</text><rect fill="#E8F4FD" height="34.584" rx="12.5" ry="12.5" style="stroke:#2196F3;stroke-width:1.0;" width="179" x="1495.5" y="267.2905"/><text fill="#1565C0" font-family="Verdana" font-size="12" lengthAdjust="spacing" textLength="159" x="1505.5" y="289.355">Determine Data Changes</text><rect fill="#1976D2" height="6" rx="2.5" ry="2.5" style="stroke:#1976D2;stroke-width:1.0;" width="785.5" x="901" y="321.8745"/><line style="stroke:#000000;stroke-width:1.0;" x1="895" x2="895" y1="55.0166" y2="805.8091"/><rect fill="#E8F5E9" height="750.7925" style="stroke:#E8F5E9;stroke-width:1.0;" width="1226" x="1690.5" y="55.0166"/><path d="M1695.5,255.8835 L1695.5,313.2815 L1946.5,313.2815 L1946.5,265.8835 L1936.5,255.8835 L1695.5,255.8835 " fill="#FFFFFF" style="stroke:#000000;stroke-width:1.0;"/><path d="M1936.5,255.8835 L1936.5,265.8835 L1946.5,265.8835 L1936.5,255.8835 " fill="#FFFFFF" style="stroke:#000000;stroke-width:1.0;"/><text fill="#000000" font-family="Verdana" font-size="13" lengthAdjust="spacing" textLength="84" x="1701.5" y="273.9534">Each runs if:</text><text fill="#000000" font-family="Verdana" font-size="13" lengthAdjust="spacing" textLength="230" x="1701.5" y="289.7527">module changed OR ci changed OR</text><text fill="#000000" font-family="Verdana" font-size="13" lengthAdjust="spacing" textLength="131" x="1701.5" y="305.552">baseline unavailable</text><rect fill="#1976D2" height="6" rx="2.5" ry="2.5" style="stroke:#1976D2;stroke-width:1.0;" width="1131" x="1781.5" y="347.8745"/><path d="M1905.5,378.2668 L1905.5,387.1665 L1885.5,391.1665 L1905.5,395.1665 L1905.5,404.0662 A0,0 0 0 0 1905.5,404.0662 L2020.5,404.0662 A0,0 0 0 0 2020.5,404.0662 L2020.5,388.2668 L2010.5,378.2668 L1905.5,378.2668 A0,0 0 0 0 1905.5,378.2668 " fill="#FFFFFF" style="stroke:#000000;stroke-width:1.0;"/><path d="M2010.5,378.2668 L2010.5,388.2668 L2020.5,388.2668 L2010.5,378.2668 " fill="#FFFFFF" style="stroke:#000000;stroke-width:1.0;"/><text fill="#000000" font-family="Verdana" font-size="13" lengthAdjust="spacing" textLength="94" x="1911.5" y="396.3367">Lint, Unit, E2E</text><rect fill="#E8F4FD" height="34.584" rx="12.5" ry="12.5" style="stroke:#2196F3;stroke-width:1.0;" width="90" x="1795.5" y="373.8745"/><text fill="#1565C0" font-family="Verdana" font-size="12" lengthAdjust="spacing" textLength="70" x="1805.5" y="395.939">Website CI</text><path d="M2205.5,378.2668 L2205.5,387.1665 L2185.5,391.1665 L2205.5,395.1665 L2205.5,404.0662 A0,0 0 0 0 2205.5,404.0662 L2297.5,404.0662 A0,0 0 0 0 2297.5,404.0662 L2297.5,388.2668 L2287.5,378.2668 L2205.5,378.2668 A0,0 0 0 0 2205.5,378.2668 " fill="#FFFFFF" style="stroke:#000000;stroke-width:1.0;"/><path d="M2287.5,378.2668 L2287.5,388.2668 L2297.5,388.2668 L2287.5,378.2668 " fill="#FFFFFF" style="stroke:#000000;stroke-width:1.0;"/><text fill="#000000" font-family="Verdana" font-size="13" lengthAdjust="spacing" textLength="71" x="2211.5" y="396.3367">Lighthouse</text><rect fill="#E8F4FD" height="34.584" rx="12.5" ry="12.5" style="stroke:#2196F3;stroke-width:1.0;" width="155" x="2030.5" y="373.8745"/><text fill="#1565C0" font-family="Verdana" font-size="12" lengthAdjust="spacing" textLength="135" x="2040.5" y="395.939">Website Performance</text><path d="M2386.5,378.2668 L2386.5,387.1665 L2366.5,391.1665 L2386.5,395.1665 L2386.5,404.0662 A0,0 0 0 0 2386.5,404.0662 L2465.5,404.0662 A0,0 0 0 0 2465.5,404.0662 L2465.5,388.2668 L2455.5,378.2668 L2386.5,378.2668 A0,0 0 0 0 2386.5,378.2668 " fill="#FFFFFF" style="stroke:#000000;stroke-width:1.0;"/><path d="M2455.5,378.2668 L2455.5,388.2668 L2465.5,388.2668 L2455.5,378.2668 " fill="#FFFFFF" style="stroke:#000000;stroke-width:1.0;"/><text fill="#000000" font-family="Verdana" font-size="13" lengthAdjust="spacing" textLength="58" x="2392.5" y="396.3367">Lint, E2E</text><rect fill="#E8F4FD" height="34.584" rx="12.5" ry="12.5" style="stroke:#2196F3;stroke-width:1.0;" width="59" x="2307.5" y="373.8745"/><text fill="#1565C0" font-family="Verdana" font-size="12" lengthAdjust="spacing" textLength="39" x="2317.5" y="395.939">API CI</text><path d="M2557.5,378.2668 L2557.5,387.1665 L2537.5,391.1665 L2557.5,395.1665 L2557.5,404.0662 A0,0 0 0 0 2557.5,404.0662 L2721.5,404.0662 A0,0 0 0 0 2721.5,404.0662 L2721.5,388.2668 L2711.5,378.2668 L2557.5,378.2668 A0,0 0 0 0 2557.5,378.2668 " fill="#FFFFFF" style="stroke:#000000;stroke-width:1.0;"/><path d="M2711.5,378.2668 L2711.5,388.2668 L2721.5,388.2668 L2711.5,378.2668 " fill="#FFFFFF" style="stroke:#000000;stroke-width:1.0;"/><text fill="#000000" font-family="Verdana" font-size="13" lengthAdjust="spacing" textLength="143" x="2563.5" y="396.3367">Lint, Unit, Integration</text><rect fill="#E8F4FD" height="34.584" rx="12.5" ry="12.5" style="stroke:#2196F3;stroke-width:1.0;" width="62" x="2475.5" y="373.8745"/><text fill="#1565C0" font-family="Verdana" font-size="12" lengthAdjust="spacing" textLength="42" x="2485.5" y="395.939">App CI</text><path d="M2819.5,378.2668 L2819.5,387.1665 L2799.5,391.1665 L2819.5,395.1665 L2819.5,404.0662 A0,0 0 0 0 2819.5,404.0662 L2900.5,404.0662 A0,0 0 0 0 2900.5,404.0662 L2900.5,388.2668 L2890.5,378.2668 L2819.5,378.2668 A0,0 0 0 0 2819.5,378.2668 " fill="#FFFFFF" style="stroke:#000000;stroke-width:1.0;"/><path d="M2890.5,378.2668 L2890.5,388.2668 L2900.5,388.2668 L2890.5,378.2668 " fill="#FFFFFF" style="stroke:#000000;stroke-width:1.0;"/><text fill="#000000" font-family="Verdana" font-size="13" lengthAdjust="spacing" textLength="60" x="2825.5" y="396.3367">Lint, Unit</text><rect fill="#E8F4FD" height="34.584" rx="12.5" ry="12.5" style="stroke:#2196F3;stroke-width:1.0;" width="68" x="2731.5" y="373.8745"/><text fill="#1565C0" font-family="Verdana" font-size="12" lengthAdjust="spacing" textLength="48" x="2741.5" y="395.939">Data CI</text><rect fill="#1976D2" height="6" rx="2.5" ry="2.5" style="stroke:#1976D2;stroke-width:1.0;" width="1131" x="1781.5" y="428.4585"/><line style="stroke:#000000;stroke-width:1.0;" x1="1690.5" x2="1690.5" y1="55.0166" y2="805.8091"/><rect fill="#F3E5F5" height="750.7925" style="stroke:#F3E5F5;stroke-width:1.0;" width="473" x="2916.5" y="55.0166"/><path d="M3137.5,450.9512 L3137.5,467.7505 L3117.5,471.7505 L3137.5,475.7505 L3137.5,492.5498 A0,0 0 0 0 3137.5,492.5498 L3384.5,492.5498 A0,0 0 0 0 3384.5,492.5498 L3384.5,460.9512 L3374.5,450.9512 L3137.5,450.9512 A0,0 0 0 0 3137.5,450.9512 " fill="#FFFFFF" style="stroke:#000000;stroke-width:1.0;"/><path d="M3374.5,450.9512 L3374.5,460.9512 L3384.5,460.9512 L3374.5,450.9512 " fill="#FFFFFF" style="stroke:#000000;stroke-width:1.0;"/><text fill="#000000" font-family="Verdana" font-size="13" lengthAdjust="spacing" textLength="189" x="3143.5" y="469.021">From module CI (wf artifact)</text><text fill="#000000" font-family="Verdana" font-size="13" lengthAdjust="spacing" textLength="226" x="3143.5" y="484.8203">OR from baseline (master artifact)</text><rect fill="#E8F4FD" height="34.584" rx="12.5" ry="12.5" style="stroke:#2196F3;stroke-width:1.0;" width="187" x="2930.5" y="454.4585"/><text fill="#1565C0" font-family="Verdana" font-size="12" lengthAdjust="spacing" textLength="167" x="2940.5" y="476.5229">Restore Coverage Reports</text><rect fill="#E8F4FD" height="34.584" rx="12.5" ry="12.5" style="stroke:#2196F3;stroke-width:1.0;" width="203" x="2922.5" y="512.5498"/><text fill="#1565C0" font-family="Verdana" font-size="12" lengthAdjust="spacing" textLength="183" x="2932.5" y="534.6143">Publish to Codecov &amp; Codacy</text><line style="stroke:#000000;stroke-width:1.0;" x1="2916.5" x2="2916.5" y1="55.0166" y2="805.8091"/><rect fill="#FFEBEE" height="750.7925" style="stroke:#FFEBEE;stroke-width:1.0;" width="932" x="3389.5" y="55.0166"/><rect fill="#1976D2" height="6" rx="2.5" ry="2.5" style="stroke:#1976D2;stroke-width:1.0;" width="922" x="3395.5" y="567.1338"/><path d="M3556.5,597.5261 L3556.5,606.4258 L3536.5,610.4258 L3556.5,614.4258 L3556.5,623.3254 A0,0 0 0 0 3556.5,623.3254 L3665.5,623.3254 A0,0 0 0 0 3665.5,623.3254 L3665.5,607.5261 L3655.5,597.5261 L3556.5,597.5261 A0,0 0 0 0 3556.5,597.5261 " fill="#FFFFFF" style="stroke:#000000;stroke-width:1.0;"/><path d="M3655.5,597.5261 L3655.5,607.5261 L3665.5,607.5261 L3655.5,597.5261 " fill="#FFFFFF" style="stroke:#000000;stroke-width:1.0;"/><text fill="#000000" font-family="Verdana" font-size="13" lengthAdjust="spacing" textLength="88" x="3562.5" y="615.5959">Docker image</text><rect fill="#E8F4FD" height="34.584" rx="12.5" ry="12.5" style="stroke:#2196F3;stroke-width:1.0;" width="129" x="3407.5" y="593.1338"/><text fill="#1565C0" font-family="Verdana" font-size="12" lengthAdjust="spacing" textLength="109" x="3417.5" y="615.1982">Package Website</text><path d="M3793.5,597.5261 L3793.5,606.4258 L3773.5,610.4258 L3793.5,614.4258 L3793.5,623.3254 A0,0 0 0 0 3793.5,623.3254 L3902.5,623.3254 A0,0 0 0 0 3902.5,623.3254 L3902.5,607.5261 L3892.5,597.5261 L3793.5,597.5261 A0,0 0 0 0 3793.5,597.5261 " fill="#FFFFFF" style="stroke:#000000;stroke-width:1.0;"/><path d="M3892.5,597.5261 L3892.5,607.5261 L3902.5,607.5261 L3892.5,597.5261 " fill="#FFFFFF" style="stroke:#000000;stroke-width:1.0;"/><text fill="#000000" font-family="Verdana" font-size="13" lengthAdjust="spacing" textLength="88" x="3799.5" y="615.5959">Docker image</text><rect fill="#E8F4FD" height="34.584" rx="12.5" ry="12.5" style="stroke:#2196F3;stroke-width:1.0;" width="98" x="3675.5" y="593.1338"/><text fill="#1565C0" font-family="Verdana" font-size="12" lengthAdjust="spacing" textLength="78" x="3685.5" y="615.1982">Package API</text><path d="M4154.5,597.5261 L4154.5,606.4258 L4134.5,610.4258 L4154.5,614.4258 L4154.5,623.3254 A0,0 0 0 0 4154.5,623.3254 L4305.5,623.3254 A0,0 0 0 0 4305.5,623.3254 L4305.5,607.5261 L4295.5,597.5261 L4154.5,597.5261 A0,0 0 0 0 4154.5,597.5261 " fill="#FFFFFF" style="stroke:#000000;stroke-width:1.0;"/><path d="M4295.5,597.5261 L4295.5,607.5261 L4305.5,607.5261 L4295.5,597.5261 " fill="#FFFFFF" style="stroke:#000000;stroke-width:1.0;"/><text fill="#000000" font-family="Verdana" font-size="13" lengthAdjust="spacing" textLength="130" x="4160.5" y="615.5959">MSIX + AAB parallel</text><rect fill="#E8F4FD" height="34.584" rx="12.5" ry="12.5" style="stroke:#2196F3;stroke-width:1.0;" width="222" x="3912.5" y="593.1338"/><text fill="#1565C0" font-family="Verdana" font-size="12" lengthAdjust="spacing" textLength="202" x="3922.5" y="615.1982">Package App (app-package.yml)</text><rect fill="#1976D2" height="6" rx="2.5" ry="2.5" style="stroke:#1976D2;stroke-width:1.0;" width="922" x="3395.5" y="647.7178"/><line style="stroke:#000000;stroke-width:1.0;" x1="3389.5" x2="3389.5" y1="55.0166" y2="805.8091"/><rect fill="#E3F2FD" height="750.7925" style="stroke:#E3F2FD;stroke-width:1.0;" width="1195.5" x="4321.5" y="55.0166"/><rect fill="#1976D2" height="6" rx="2.5" ry="2.5" style="stroke:#1976D2;stroke-width:1.0;" width="1185.5" x="4327.5" y="673.7178"/><path d="M4485.5,696.2104 L4485.5,713.0098 L4465.5,717.0098 L4485.5,721.0098 L4485.5,737.8091 A0,0 0 0 0 4485.5,737.8091 L4639.5,737.8091 A0,0 0 0 0 4639.5,737.8091 L4639.5,706.2104 L4629.5,696.2104 L4485.5,696.2104 A0,0 0 0 0 4485.5,696.2104 " fill="#FFFFFF" style="stroke:#000000;stroke-width:1.0;"/><path d="M4629.5,696.2104 L4629.5,706.2104 L4639.5,706.2104 L4629.5,696.2104 " fill="#FFFFFF" style="stroke:#000000;stroke-width:1.0;"/><text fill="#000000" font-family="Verdana" font-size="13" lengthAdjust="spacing" textLength="133" x="4491.5" y="714.2803">Tag, GitHub Release</text><text fill="#000000" font-family="Verdana" font-size="13" lengthAdjust="spacing" textLength="127" x="4491.5" y="730.0796">Trigger deploy-aws</text><rect fill="#E8F4FD" height="34.584" rx="12.5" ry="12.5" style="stroke:#2196F3;stroke-width:1.0;" width="126" x="4339.5" y="699.7178"/><text fill="#1565C0" font-family="Verdana" font-size="12" lengthAdjust="spacing" textLength="106" x="4349.5" y="721.7822">Release Website</text><path d="M4764.5,696.2104 L4764.5,713.0098 L4744.5,717.0098 L4764.5,721.0098 L4764.5,737.8091 A0,0 0 0 0 4764.5,737.8091 L4918.5,737.8091 A0,0 0 0 0 4918.5,737.8091 L4918.5,706.2104 L4908.5,696.2104 L4764.5,696.2104 A0,0 0 0 0 4764.5,696.2104 " fill="#FFFFFF" style="stroke:#000000;stroke-width:1.0;"/><path d="M4908.5,696.2104 L4908.5,706.2104 L4918.5,706.2104 L4908.5,696.2104 " fill="#FFFFFF" style="stroke:#000000;stroke-width:1.0;"/><text fill="#000000" font-family="Verdana" font-size="13" lengthAdjust="spacing" textLength="133" x="4770.5" y="714.2803">Tag, GitHub Release</text><text fill="#000000" font-family="Verdana" font-size="13" lengthAdjust="spacing" textLength="127" x="4770.5" y="730.0796">Trigger deploy-aws</text><rect fill="#E8F4FD" height="34.584" rx="12.5" ry="12.5" style="stroke:#2196F3;stroke-width:1.0;" width="95" x="4649.5" y="699.7178"/><text fill="#1565C0" font-family="Verdana" font-size="12" lengthAdjust="spacing" textLength="75" x="4659.5" y="721.7822">Release API</text><path d="M5061,696.2104 L5061,713.0098 L5041,717.0098 L5061,721.0098 L5061,737.8091 A0,0 0 0 0 5061,737.8091 L5215,737.8091 A0,0 0 0 0 5215,737.8091 L5215,706.2104 L5205,696.2104 L5061,696.2104 A0,0 0 0 0 5061,696.2104 " fill="#FFFFFF" style="stroke:#000000;stroke-width:1.0;"/><path d="M5205,696.2104 L5205,706.2104 L5215,706.2104 L5205,696.2104 " fill="#FFFFFF" style="stroke:#000000;stroke-width:1.0;"/><text fill="#000000" font-family="Verdana" font-size="13" lengthAdjust="spacing" textLength="133" x="5067" y="714.2803">Tag, GitHub Release</text><text fill="#000000" font-family="Verdana" font-size="13" lengthAdjust="spacing" textLength="125" x="5067" y="730.0796">Trigger deploy-app</text><rect fill="#E8F4FD" height="34.584" rx="12.5" ry="12.5" style="stroke:#2196F3;stroke-width:1.0;" width="98" x="4943" y="699.7178"/><text fill="#1565C0" font-family="Verdana" font-size="12" lengthAdjust="spacing" textLength="78" x="4953" y="721.7822">Release App</text><path d="M5349,704.1101 L5349,713.0098 L5329,717.0098 L5349,721.0098 L5349,729.9094 A0,0 0 0 0 5349,729.9094 L5501,729.9094 A0,0 0 0 0 5501,729.9094 L5501,714.1101 L5491,704.1101 L5349,704.1101 A0,0 0 0 0 5349,704.1101 " fill="#FFFFFF" style="stroke:#000000;stroke-width:1.0;"/><path d="M5491,704.1101 L5491,714.1101 L5501,714.1101 L5491,704.1101 " fill="#FFFFFF" style="stroke:#000000;stroke-width:1.0;"/><text fill="#000000" font-family="Verdana" font-size="13" lengthAdjust="spacing" textLength="131" x="5355" y="722.1799">Trigger deploy-data</text><rect fill="#E8F4FD" height="34.584" rx="12.5" ry="12.5" style="stroke:#2196F3;stroke-width:1.0;" width="104" x="5225" y="699.7178"/><text fill="#1565C0" font-family="Verdana" font-size="12" lengthAdjust="spacing" textLength="84" x="5235" y="721.7822">Release Data</text><rect fill="#1976D2" height="6" rx="2.5" ry="2.5" style="stroke:#1976D2;stroke-width:1.0;" width="1185.5" x="4327.5" y="757.8091"/><ellipse cx="4922" cy="794.8091" fill="none" rx="11" ry="11" style="stroke:#000000;stroke-width:1.0;"/><ellipse cx="4922" cy="794.8091" fill="#FFFFFF" rx="6" ry="6" style="stroke:#000000;stroke-width:1.0;"/><line style="stroke:#000000;stroke-width:1.0;" x1="4321.5" x2="4321.5" y1="55.0166" y2="805.8091"/><line style="stroke:#000000;stroke-width:1.0;" x1="5517" x2="5517" y1="55.0166" y2="805.8091"/><line style="stroke:#1976D2;stroke-width:1.0;" x1="129" x2="129" y1="127.8926" y2="149.2996"/><polygon fill="#1976D2" points="125,139.2996,129,149.2996,133,139.2996,129,143.2996" style="stroke:#1976D2;stroke-width:1.0;"/><line style="stroke:#1976D2;stroke-width:1.0;" x1="346" x2="346" y1="127.8926" y2="149.2996"/><polygon fill="#1976D2" points="342,139.2996,346,149.2996,350,139.2996,346,143.2996" style="stroke:#1976D2;stroke-width:1.0;"/><line style="stroke:#1976D2;stroke-width:1.0;" x1="789.5" x2="789.5" y1="127.8926" y2="149.2996"/><polygon fill="#1976D2" points="785.5,139.2996,789.5,149.2996,793.5,139.2996,789.5,143.2996" style="stroke:#1976D2;stroke-width:1.0;"/><line style="stroke:#1976D2;stroke-width:1.0;" x1="129" x2="129" y1="183.8835" y2="215.2905"/><polygon fill="#1976D2" points="125,205.2905,129,215.2905,133,205.2905,129,209.2905" style="stroke:#1976D2;stroke-width:1.0;"/><line style="stroke:#1976D2;stroke-width:1.0;" x1="346" x2="346" y1="183.8835" y2="215.2905"/><polygon fill="#1976D2" points="342,205.2905,346,215.2905,350,205.2905,346,209.2905" style="stroke:#1976D2;stroke-width:1.0;"/><line style="stroke:#1976D2;stroke-width:1.0;" x1="789.5" x2="789.5" y1="183.8835" y2="215.2905"/><polygon fill="#1976D2" points="785.5,205.2905,789.5,215.2905,793.5,205.2905,789.5,209.2905" style="stroke:#1976D2;stroke-width:1.0;"/><line style="stroke:#1976D2;stroke-width:1.0;" x1="453.5" x2="453.5" y1="101.8926" y2="121.8926"/><polygon fill="#1976D2" points="449.5,111.8926,453.5,121.8926,457.5,111.8926,453.5,115.8926" style="stroke:#1976D2;stroke-width:1.0;"/><line style="stroke:#1976D2;stroke-width:1.0;" x1="1013.5" x2="1013.5" y1="247.2905" y2="267.2905"/><polygon fill="#1976D2" points="1009.5,257.2905,1013.5,267.2905,1017.5,257.2905,1013.5,261.2905" style="stroke:#1976D2;stroke-width:1.0;"/><line style="stroke:#1976D2;stroke-width:1.0;" x1="1209" x2="1209" y1="247.2905" y2="267.2905"/><polygon fill="#1976D2" points="1205,257.2905,1209,267.2905,1213,257.2905,1209,261.2905" style="stroke:#1976D2;stroke-width:1.0;"/><line style="stroke:#1976D2;stroke-width:1.0;" x1="1399" x2="1399" y1="247.2905" y2="267.2905"/><polygon fill="#1976D2" points="1395,257.2905,1399,267.2905,1403,257.2905,1399,261.2905" style="stroke:#1976D2;stroke-width:1.0;"/><line style="stroke:#1976D2;stroke-width:1.0;" x1="1585" x2="1585" y1="247.2905" y2="267.2905"/><polygon fill="#1976D2" points="1581,257.2905,1585,267.2905,1589,257.2905,1585,261.2905" style="stroke:#1976D2;stroke-width:1.0;"/><line style="stroke:#1976D2;stroke-width:1.0;" x1="1013.5" x2="1013.5" y1="301.8745" y2="321.8745"/><polygon fill="#1976D2" points="1009.5,311.8745,1013.5,321.8745,1017.5,311.8745,1013.5,315.8745" style="stroke:#1976D2;stroke-width:1.0;"/><line style="stroke:#1976D2;stroke-width:1.0;" x1="1209" x2="1209" y1="301.8745" y2="321.8745"/><polygon fill="#1976D2" points="1205,311.8745,1209,321.8745,1213,311.8745,1209,315.8745" style="stroke:#1976D2;stroke-width:1.0;"/><line style="stroke:#1976D2;stroke-width:1.0;" x1="1399" x2="1399" y1="301.8745" y2="321.8745"/><polygon fill="#1976D2" points="1395,311.8745,1399,321.8745,1403,311.8745,1399,315.8745" style="stroke:#1976D2;stroke-width:1.0;"/><line style="stroke:#1976D2;stroke-width:1.0;" x1="1585" x2="1585" y1="301.8745" y2="321.8745"/><polygon fill="#1976D2" points="1581,311.8745,1585,321.8745,1589,311.8745,1585,315.8745" style="stroke:#1976D2;stroke-width:1.0;"/><line style="stroke:#1976D2;stroke-width:1.0;" x1="1840.5" x2="1840.5" y1="353.8745" y2="373.8745"/><polygon fill="#1976D2" points="1836.5,363.8745,1840.5,373.8745,1844.5,363.8745,1840.5,367.8745" style="stroke:#1976D2;stroke-width:1.0;"/><line style="stroke:#1976D2;stroke-width:1.0;" x1="2108" x2="2108" y1="353.8745" y2="373.8745"/><polygon fill="#1976D2" points="2104,363.8745,2108,373.8745,2112,363.8745,2108,367.8745" style="stroke:#1976D2;stroke-width:1.0;"/><line style="stroke:#1976D2;stroke-width:1.0;" x1="2337" x2="2337" y1="353.8745" y2="373.8745"/><polygon fill="#1976D2" points="2333,363.8745,2337,373.8745,2341,363.8745,2337,367.8745" style="stroke:#1976D2;stroke-width:1.0;"/><line style="stroke:#1976D2;stroke-width:1.0;" x1="2506.5" x2="2506.5" y1="353.8745" y2="373.8745"/><polygon fill="#1976D2" points="2502.5,363.8745,2506.5,373.8745,2510.5,363.8745,2506.5,367.8745" style="stroke:#1976D2;stroke-width:1.0;"/><line style="stroke:#1976D2;stroke-width:1.0;" x1="2765.5" x2="2765.5" y1="353.8745" y2="373.8745"/><polygon fill="#1976D2" points="2761.5,363.8745,2765.5,373.8745,2769.5,363.8745,2765.5,367.8745" style="stroke:#1976D2;stroke-width:1.0;"/><line style="stroke:#1976D2;stroke-width:1.0;" x1="1840.5" x2="1840.5" y1="408.4585" y2="428.4585"/><polygon fill="#1976D2" points="1836.5,418.4585,1840.5,428.4585,1844.5,418.4585,1840.5,422.4585" style="stroke:#1976D2;stroke-width:1.0;"/><line style="stroke:#1976D2;stroke-width:1.0;" x1="2108" x2="2108" y1="408.4585" y2="428.4585"/><polygon fill="#1976D2" points="2104,418.4585,2108,428.4585,2112,418.4585,2108,422.4585" style="stroke:#1976D2;stroke-width:1.0;"/><line style="stroke:#1976D2;stroke-width:1.0;" x1="2337" x2="2337" y1="408.4585" y2="428.4585"/><polygon fill="#1976D2" points="2333,418.4585,2337,428.4585,2341,418.4585,2337,422.4585" style="stroke:#1976D2;stroke-width:1.0;"/><line style="stroke:#1976D2;stroke-width:1.0;" x1="2506.5" x2="2506.5" y1="408.4585" y2="428.4585"/><polygon fill="#1976D2" points="2502.5,418.4585,2506.5,428.4585,2510.5,418.4585,2506.5,422.4585" style="stroke:#1976D2;stroke-width:1.0;"/><line style="stroke:#1976D2;stroke-width:1.0;" x1="2765.5" x2="2765.5" y1="408.4585" y2="428.4585"/><polygon fill="#1976D2" points="2761.5,418.4585,2765.5,428.4585,2769.5,418.4585,2765.5,422.4585" style="stroke:#1976D2;stroke-width:1.0;"/><line style="stroke:#1976D2;stroke-width:1.0;" x1="3024" x2="3024" y1="489.0425" y2="512.5498"/><polygon fill="#1976D2" points="3020,502.5498,3024,512.5498,3028,502.5498,3024,506.5498" style="stroke:#1976D2;stroke-width:1.0;"/><line style="stroke:#1976D2;stroke-width:1.0;" x1="3472" x2="3472" y1="573.1338" y2="593.1338"/><polygon fill="#1976D2" points="3468,583.1338,3472,593.1338,3476,583.1338,3472,587.1338" style="stroke:#1976D2;stroke-width:1.0;"/><line style="stroke:#1976D2;stroke-width:1.0;" x1="3724.5" x2="3724.5" y1="573.1338" y2="593.1338"/><polygon fill="#1976D2" points="3720.5,583.1338,3724.5,593.1338,3728.5,583.1338,3724.5,587.1338" style="stroke:#1976D2;stroke-width:1.0;"/><line style="stroke:#1976D2;stroke-width:1.0;" x1="4023.5" x2="4023.5" y1="573.1338" y2="593.1338"/><polygon fill="#1976D2" points="4019.5,583.1338,4023.5,593.1338,4027.5,583.1338,4023.5,587.1338" style="stroke:#1976D2;stroke-width:1.0;"/><line style="stroke:#1976D2;stroke-width:1.0;" x1="3472" x2="3472" y1="627.7178" y2="647.7178"/><polygon fill="#1976D2" points="3468,637.7178,3472,647.7178,3476,637.7178,3472,641.7178" style="stroke:#1976D2;stroke-width:1.0;"/><line style="stroke:#1976D2;stroke-width:1.0;" x1="3724.5" x2="3724.5" y1="627.7178" y2="647.7178"/><polygon fill="#1976D2" points="3720.5,637.7178,3724.5,647.7178,3728.5,637.7178,3724.5,641.7178" style="stroke:#1976D2;stroke-width:1.0;"/><line style="stroke:#1976D2;stroke-width:1.0;" x1="4023.5" x2="4023.5" y1="627.7178" y2="647.7178"/><polygon fill="#1976D2" points="4019.5,637.7178,4023.5,647.7178,4027.5,637.7178,4023.5,641.7178" style="stroke:#1976D2;stroke-width:1.0;"/><line style="stroke:#1976D2;stroke-width:1.0;" x1="4402.5" x2="4402.5" y1="679.7178" y2="699.7178"/><polygon fill="#1976D2" points="4398.5,689.7178,4402.5,699.7178,4406.5,689.7178,4402.5,693.7178" style="stroke:#1976D2;stroke-width:1.0;"/><line style="stroke:#1976D2;stroke-width:1.0;" x1="4697" x2="4697" y1="679.7178" y2="699.7178"/><polygon fill="#1976D2" points="4693,689.7178,4697,699.7178,4701,689.7178,4697,693.7178" style="stroke:#1976D2;stroke-width:1.0;"/><line style="stroke:#1976D2;stroke-width:1.0;" x1="4992" x2="4992" y1="679.7178" y2="699.7178"/><polygon fill="#1976D2" points="4988,689.7178,4992,699.7178,4996,689.7178,4992,693.7178" style="stroke:#1976D2;stroke-width:1.0;"/><line style="stroke:#1976D2;stroke-width:1.0;" x1="5277" x2="5277" y1="679.7178" y2="699.7178"/><polygon fill="#1976D2" points="5273,689.7178,5277,699.7178,5281,689.7178,5277,693.7178" style="stroke:#1976D2;stroke-width:1.0;"/><line style="stroke:#1976D2;stroke-width:1.0;" x1="4402.5" x2="4402.5" y1="734.3018" y2="757.8091"/><polygon fill="#1976D2" points="4398.5,747.8091,4402.5,757.8091,4406.5,747.8091,4402.5,751.8091" style="stroke:#1976D2;stroke-width:1.0;"/><line style="stroke:#1976D2;stroke-width:1.0;" x1="4697" x2="4697" y1="734.3018" y2="757.8091"/><polygon fill="#1976D2" points="4693,747.8091,4697,757.8091,4701,747.8091,4697,751.8091" style="stroke:#1976D2;stroke-width:1.0;"/><line style="stroke:#1976D2;stroke-width:1.0;" x1="4992" x2="4992" y1="734.3018" y2="757.8091"/><polygon fill="#1976D2" points="4988,747.8091,4992,757.8091,4996,747.8091,4992,751.8091" style="stroke:#1976D2;stroke-width:1.0;"/><line style="stroke:#1976D2;stroke-width:1.0;" x1="5277" x2="5277" y1="734.3018" y2="757.8091"/><polygon fill="#1976D2" points="5273,747.8091,5277,757.8091,5281,747.8091,5277,751.8091" style="stroke:#1976D2;stroke-width:1.0;"/><line style="stroke:#1976D2;stroke-width:1.0;" x1="4922" x2="4922" y1="763.8091" y2="783.8091"/><polygon fill="#1976D2" points="4918,773.8091,4922,783.8091,4926,773.8091,4922,777.8091" style="stroke:#1976D2;stroke-width:1.0;"/><line style="stroke:#1976D2;stroke-width:1.0;" x1="453.5" x2="453.5" y1="221.2905" y2="226.2905"/><line style="stroke:#1976D2;stroke-width:1.0;" x1="453.5" x2="1298.5" y1="226.2905" y2="226.2905"/><line style="stroke:#1976D2;stroke-width:1.0;" x1="1298.5" x2="1298.5" y1="226.2905" y2="241.2905"/><polygon fill="#1976D2" points="1294.5,231.2905,1298.5,241.2905,1302.5,231.2905,1298.5,235.2905" style="stroke:#1976D2;stroke-width:1.0;"/><line style="stroke:#1976D2;stroke-width:1.0;" x1="1298.5" x2="1298.5" y1="327.8745" y2="332.8745"/><line style="stroke:#1976D2;stroke-width:1.0;" x1="1298.5" x2="2348" y1="332.8745" y2="332.8745"/><line style="stroke:#1976D2;stroke-width:1.0;" x1="2348" x2="2348" y1="332.8745" y2="347.8745"/><polygon fill="#1976D2" points="2344,337.8745,2348,347.8745,2352,337.8745,2348,341.8745" style="stroke:#1976D2;stroke-width:1.0;"/><line style="stroke:#1976D2;stroke-width:1.0;" x1="2348" x2="2348" y1="434.4585" y2="439.4585"/><line style="stroke:#1976D2;stroke-width:1.0;" x1="2348" x2="3024" y1="439.4585" y2="439.4585"/><line style="stroke:#1976D2;stroke-width:1.0;" x1="3024" x2="3024" y1="439.4585" y2="454.4585"/><polygon fill="#1976D2" points="3020,444.4585,3024,454.4585,3028,444.4585,3024,448.4585" style="stroke:#1976D2;stroke-width:1.0;"/><line style="stroke:#1976D2;stroke-width:1.0;" x1="3024" x2="3024" y1="547.1338" y2="552.1338"/><line style="stroke:#1976D2;stroke-width:1.0;" x1="3024" x2="3856.5" y1="552.1338" y2="552.1338"/><line style="stroke:#1976D2;stroke-width:1.0;" x1="3856.5" x2="3856.5" y1="552.1338" y2="567.1338"/><polygon fill="#1976D2" points="3852.5,557.1338,3856.5,567.1338,3860.5,557.1338,3856.5,561.1338" style="stroke:#1976D2;stroke-width:1.0;"/><line style="stroke:#1976D2;stroke-width:1.0;" x1="3856.5" x2="3856.5" y1="653.7178" y2="658.7178"/><line style="stroke:#1976D2;stroke-width:1.0;" x1="3856.5" x2="4922" y1="658.7178" y2="658.7178"/><line style="stroke:#1976D2;stroke-width:1.0;" x1="4922" x2="4922" y1="658.7178" y2="673.7178"/><polygon fill="#1976D2" points="4918,663.7178,4922,673.7178,4926,663.7178,4922,667.7178" style="stroke:#1976D2;stroke-width:1.0;"/><text fill="#000000" font-family="Verdana" font-size="18" lengthAdjust="spacing" textLength="52" x="426.5" y="73.1133">Setup</text><text fill="#000000" font-family="Verdana" font-size="18" lengthAdjust="spacing" textLength="160" x="1212.75" y="73.1133">Change Detection</text><text fill="#000000" font-family="Verdana" font-size="18" lengthAdjust="spacing" textLength="214" x="2196.5" y="73.1133">Module CI (Conditional)</text><text fill="#000000" font-family="Verdana" font-size="18" lengthAdjust="spacing" textLength="147" x="3079.5" y="73.1133">Cross Module CI</text><text fill="#000000" font-family="Verdana" font-size="18" lengthAdjust="spacing" textLength="205" x="3753" y="73.1133">Package (Master Only)</text><text fill="#000000" font-family="Verdana" font-size="18" lengthAdjust="spacing" textLength="201" x="4818.75" y="73.1133">Release (Master Only)</text><!--SRC=[hLHTRzem57tFhxZJf0cqCgrqT2rzuYFPa5eLqQtTgqakOE7ObkE0aFBZTsr8W9IsqpOX0OcFxySvzzntTe4fWXQCoo1RSgcPOIbCMRoS6vNBPA24Cl0-2jtd0D6BBLznk-dNaU5Lz2KQda8gaw3PeThdrvVHnGbKfAJTOSuxbvt1vqECCMfT7bv_lHosJnPaZY61vLOW32WmbxdACnX9YtF3B5SIdfHPpeHQGoFcdpQfQ0P1iUkXU42RwoB8B3Cs26Q4302w_Ys4SiMDaYbA2u_CS3OLcDru4B2vOvEWGxHeKYuH-Yn3uVxqLemBDkM2IhqXZ5GMmV3vmj83m621yH8-GABMKYYMGCeoYk7FOhL2m-O8L0wViTXcLBHHMTPQpveUCS5MhlqrgWFYt1XNdibTCIWJdwnMOZ_d8e7RmVqZ35MyH0EZb7BS10xlMoO-eYYw2i-BmO99Ik-wYXrvHSN9lj4dd6QSMjfYNs6aDnxz0KZhjq53PjaUTLWtwTW9huixbUHk0aRGe2b8kAkTYMOHU3u0GXOl74iPy5cNdjCjFlOX4xYVGCmFdWWnBUNC9TiAAZ2e6AvegSWO7KlTXLikxHdyb9o-mtPOwwsyDqP31ocJCJuFG3yBckQwe9xN5_8zp-G9VhMw0xFK5V2yltBvU8OkmaxKAGPkOA5If0Yw4yoiCiwWk_6Ue5R6afH7teYCIajbd9BhMUK3D_maqimXAcKQM-SSW2fzkkDyAdYs0AieQu9aBB8S_MCnUTBFUzWFms9CkyqLrBZRXhgNOjFS3trvl5EhpiFEJjpPgSPSUPEq-fjRf5c3QTtIsnT-RTNZt3sCVi57wFNwuFQZ42YEhN4HjMd5JL0WCVPIY-NnoHRzold1vcVmZTll-HHswErxWimfO8Aqa3OjjivUta5bbcTq_FyCMlz31gtVpk1CSIh5SQY4K8UnzigG5tJm6m00]--></g></svg>