<?xml version="1.0" encoding="us-ascii" standalone="no"?><svg xmlns="http://www.w3.org/2000/svg" xmlns:xlink="http://www.w3.org/1999/xlink" contentStyleType="text/css" height="1818px" preserveAspectRatio="none" style="width:1499px;height:1818px;background:#FEFEFE;" version="1.1" viewBox="0 0 1499 1818" width="1499px" zoomAndPan="magnify"><defs/><g><rect fill="#FEFEFE" height="1818" style="stroke:none;stroke-width:1.0;" width="1499" x="0" y="0"/><text fill="#000000" font-family="sans-serif" font-size="14" font-weight="bold" lengthAdjust="spacing" textLength="214" x="638.75" y="29.5332">Daily Bulletin Distribution Flow</text><rect fill="#FFFFFF" height="1493.1406" style="stroke:#181818;stroke-width:1.0;" width="10" x="223.5" y="215.5313"/><rect fill="#FFFFFF" height="134.4063" style="stroke:#181818;stroke-width:1.0;" width="10" x="810" y="940.1016"/><rect fill="#FFFFFF" height="73.7031" style="stroke:#181818;stroke-width:1.0;" width="10" x="810" y="1149.2109"/><rect fill="#FFFFFF" height="91.0547" style="stroke:#181818;stroke-width:1.0;" width="10" x="1100" y="1322.9688"/><rect fill="#FFFFFF" height="91.0547" style="stroke:#181818;stroke-width:1.0;" width="10" x="1211.5" y="1460.2109"/><rect fill="none" height="1396.4375" rx="5" ry="5" style="stroke:#000000;stroke-width:1.5;" width="1472.5" x="10" y="305.2344"/><rect fill="none" height="277" rx="5" ry="5" style="stroke:#000000;stroke-width:1.5;" width="1306.5" x="166" y="1282.2656"/><line style="stroke:#181818;stroke-width:0.5;stroke-dasharray:5.0,5.0;" x1="61" x2="61" y1="138.8281" y2="1718.6719"/><line style="stroke:#181818;stroke-width:0.5;stroke-dasharray:5.0,5.0;" x1="228" x2="228" y1="138.8281" y2="1718.6719"/><line style="stroke:#181818;stroke-width:0.5;stroke-dasharray:5.0,5.0;" x1="431" x2="431" y1="138.8281" y2="1718.6719"/><line style="stroke:#181818;stroke-width:0.5;stroke-dasharray:5.0,5.0;" x1="520" x2="520" y1="138.8281" y2="1718.6719"/><line style="stroke:#181818;stroke-width:0.5;stroke-dasharray:5.0,5.0;" x1="614" x2="614" y1="138.8281" y2="1718.6719"/><line style="stroke:#181818;stroke-width:0.5;stroke-dasharray:5.0,5.0;" x1="713" x2="713" y1="138.8281" y2="1718.6719"/><line style="stroke:#181818;stroke-width:0.5;stroke-dasharray:5.0,5.0;" x1="815" x2="815" y1="138.8281" y2="1718.6719"/><line style="stroke:#181818;stroke-width:0.5;stroke-dasharray:5.0,5.0;" x1="1004.5" x2="1004.5" y1="138.8281" y2="1718.6719"/><line style="stroke:#181818;stroke-width:0.5;stroke-dasharray:5.0,5.0;" x1="1104.5" x2="1104.5" y1="138.8281" y2="1718.6719"/><line style="stroke:#181818;stroke-width:0.5;stroke-dasharray:5.0,5.0;" x1="1216.5" x2="1216.5" y1="138.8281" y2="1718.6719"/><line style="stroke:#181818;stroke-width:0.5;stroke-dasharray:5.0,5.0;" x1="1329.5" x2="1329.5" y1="138.8281" y2="1718.6719"/><line style="stroke:#181818;stroke-width:0.5;stroke-dasharray:5.0,5.0;" x1="1426.5" x2="1426.5" y1="138.8281" y2="1718.6719"/><text fill="#000000" font-family="sans-serif" font-size="14" lengthAdjust="spacing" text-decoration="underline" textLength="77" x="20" y="118.1426">EventBridge</text><text fill="#000000" font-family="sans-serif" font-size="14" lengthAdjust="spacing" text-decoration="underline" textLength="64" x="26.5" y="135.752">Scheduler</text><ellipse cx="61.5" cy="52.1094" fill="#ADD8E6" rx="8" ry="8" style="stroke:#181818;stroke-width:0.5;"/><path d="M61.5,60.1094 L61.5,87.1094 M48.5,68.1094 L74.5,68.1094 M61.5,87.1094 L48.5,102.1094 M61.5,87.1094 L74.5,102.1094 " fill="none" style="stroke:#181818;stroke-width:0.5;"/><text fill="#000000" font-family="sans-serif" font-size="14" lengthAdjust="spacing" text-decoration="underline" textLength="77" x="20" y="1732.2051">EventBridge</text><text fill="#000000" font-family="sans-serif" font-size="14" lengthAdjust="spacing" text-decoration="underline" textLength="64" x="26.5" y="1749.8145">Scheduler</text><ellipse cx="61.5" cy="1761.3906" fill="#ADD8E6" rx="8" ry="8" style="stroke:#181818;stroke-width:0.5;"/><path d="M61.5,1769.3906 L61.5,1796.3906 M48.5,1777.3906 L74.5,1777.3906 M61.5,1796.3906 L48.5,1811.3906 M61.5,1796.3906 L74.5,1811.3906 " fill="none" style="stroke:#181818;stroke-width:0.5;"/><rect fill="#90EE90" height="49.2188" rx="5" ry="5" style="stroke:#181818;stroke-width:0.5;" width="105" x="176" y="88.6094"/><text fill="#000000" font-family="sans-serif" font-size="14" lengthAdjust="spacing" text-decoration="underline" textLength="51" x="203" y="110.1426">Lambda</text><text fill="#000000" font-family="sans-serif" font-size="14" lengthAdjust="spacing" text-decoration="underline" textLength="91" x="183" y="127.752">(Daily Bulletin)</text><rect fill="#90EE90" height="49.2188" rx="5" ry="5" style="stroke:#181818;stroke-width:0.5;" width="105" x="176" y="1717.6719"/><text fill="#000000" font-family="sans-serif" font-size="14" lengthAdjust="spacing" text-decoration="underline" textLength="51" x="203" y="1739.2051">Lambda</text><text fill="#000000" font-family="sans-serif" font-size="14" lengthAdjust="spacing" text-decoration="underline" textLength="91" x="183" y="1756.8145">(Daily Bulletin)</text><text fill="#000000" font-family="sans-serif" font-size="14" lengthAdjust="spacing" text-decoration="underline" textLength="71" x="393" y="135.752">State Store</text><path d="M413.5,85.2188 C413.5,75.2188 431.5,75.2188 431.5,75.2188 C431.5,75.2188 449.5,75.2188 449.5,85.2188 L449.5,111.2188 C449.5,121.2188 431.5,121.2188 431.5,121.2188 C431.5,121.2188 413.5,121.2188 413.5,111.2188 L413.5,85.2188 " fill="#FFFFE0" style="stroke:#181818;stroke-width:1.5;"/><path d="M413.5,85.2188 C413.5,95.2188 431.5,95.2188 431.5,95.2188 C431.5,95.2188 449.5,95.2188 449.5,85.2188 " fill="none" style="stroke:#181818;stroke-width:1.5;"/><text fill="#000000" font-family="sans-serif" font-size="14" lengthAdjust="spacing" text-decoration="underline" textLength="71" x="393" y="1732.2051">State Store</text><path d="M413.5,1745.2813 C413.5,1735.2813 431.5,1735.2813 431.5,1735.2813 C431.5,1735.2813 449.5,1735.2813 449.5,1745.2813 L449.5,1771.2813 C449.5,1781.2813 431.5,1781.2813 431.5,1781.2813 C431.5,1781.2813 413.5,1781.2813 413.5,1771.2813 L413.5,1745.2813 " fill="#FFFFE0" style="stroke:#181818;stroke-width:1.5;"/><path d="M413.5,1745.2813 C413.5,1755.2813 431.5,1755.2813 431.5,1755.2813 C431.5,1755.2813 449.5,1755.2813 449.5,1745.2813 " fill="none" style="stroke:#181818;stroke-width:1.5;"/><text fill="#000000" font-family="sans-serif" font-size="14" lengthAdjust="spacing" text-decoration="underline" textLength="75" x="480" y="118.1426">Tanah Data</text><text fill="#000000" font-family="sans-serif" font-size="14" lengthAdjust="spacing" text-decoration="underline" textLength="45" x="495" y="135.752">(Static)</text><path d="M502.5,67.6094 C502.5,57.6094 520.5,57.6094 520.5,57.6094 C520.5,57.6094 538.5,57.6094 538.5,67.6094 L538.5,93.6094 C538.5,103.6094 520.5,103.6094 520.5,103.6094 C520.5,103.6094 502.5,103.6094 502.5,93.6094 L502.5,67.6094 " fill="#F08080" style="stroke:#181818;stroke-width:1.5;"/><path d="M502.5,67.6094 C502.5,77.6094 520.5,77.6094 520.5,77.6094 C520.5,77.6094 538.5,77.6094 538.5,67.6094 " fill="none" style="stroke:#181818;stroke-width:1.5;"/><text fill="#000000" font-family="sans-serif" font-size="14" lengthAdjust="spacing" text-decoration="underline" textLength="75" x="480" y="1732.2051">Tanah Data</text><text fill="#000000" font-family="sans-serif" font-size="14" lengthAdjust="spacing" text-decoration="underline" textLength="45" x="495" y="1749.8145">(Static)</text><path d="M502.5,1762.8906 C502.5,1752.8906 520.5,1752.8906 520.5,1752.8906 C520.5,1752.8906 538.5,1752.8906 538.5,1762.8906 L538.5,1788.8906 C538.5,1798.8906 520.5,1798.8906 520.5,1798.8906 C520.5,1798.8906 502.5,1798.8906 502.5,1788.8906 L502.5,1762.8906 " fill="#F08080" style="stroke:#181818;stroke-width:1.5;"/><path d="M502.5,1762.8906 C502.5,1772.8906 520.5,1772.8906 520.5,1772.8906 C520.5,1772.8906 538.5,1772.8906 538.5,1762.8906 " fill="none" style="stroke:#181818;stroke-width:1.5;"/><text fill="#000000" font-family="sans-serif" font-size="14" lengthAdjust="spacing" text-decoration="underline" textLength="80" x="571" y="118.1426">Commentary</text><text fill="#000000" font-family="sans-serif" font-size="14" lengthAdjust="spacing" text-decoration="underline" textLength="30" x="596" y="135.752">Data</text><path d="M596,67.6094 C596,57.6094 614,57.6094 614,57.6094 C614,57.6094 632,57.6094 632,67.6094 L632,93.6094 C632,103.6094 614,103.6094 614,103.6094 C614,103.6094 596,103.6094 596,93.6094 L596,67.6094 " fill="#F08080" style="stroke:#181818;stroke-width:1.5;"/><path d="M596,67.6094 C596,77.6094 614,77.6094 614,77.6094 C614,77.6094 632,77.6094 632,67.6094 " fill="none" style="stroke:#181818;stroke-width:1.5;"/><text fill="#000000" font-family="sans-serif" font-size="14" lengthAdjust="spacing" text-decoration="underline" textLength="80" x="571" y="1732.2051">Commentary</text><text fill="#000000" font-family="sans-serif" font-size="14" lengthAdjust="spacing" text-decoration="underline" textLength="30" x="596" y="1749.8145">Data</text><path d="M596,1762.8906 C596,1752.8906 614,1752.8906 614,1752.8906 C614,1752.8906 632,1752.8906 632,1762.8906 L632,1788.8906 C632,1798.8906 614,1798.8906 614,1798.8906 C614,1798.8906 596,1798.8906 596,1788.8906 L596,1762.8906 " fill="#F08080" style="stroke:#181818;stroke-width:1.5;"/><path d="M596,1762.8906 C596,1772.8906 614,1772.8906 614,1772.8906 C614,1772.8906 632,1772.8906 632,1762.8906 " fill="none" style="stroke:#181818;stroke-width:1.5;"/><text fill="#000000" font-family="sans-serif" font-size="14" lengthAdjust="spacing" text-decoration="underline" textLength="87" x="667" y="135.752">Rabbi Articles</text><path d="M695.5,85.2188 C695.5,75.2188 713.5,75.2188 713.5,75.2188 C713.5,75.2188 731.5,75.2188 731.5,85.2188 L731.5,111.2188 C731.5,121.2188 713.5,121.2188 713.5,121.2188 C713.5,121.2188 695.5,121.2188 695.5,111.2188 L695.5,85.2188 " fill="#F08080" style="stroke:#181818;stroke-width:1.5;"/><path d="M695.5,85.2188 C695.5,95.2188 713.5,95.2188 713.5,95.2188 C713.5,95.2188 731.5,95.2188 731.5,85.2188 " fill="none" style="stroke:#181818;stroke-width:1.5;"/><text fill="#000000" font-family="sans-serif" font-size="14" lengthAdjust="spacing" text-decoration="underline" textLength="87" x="667" y="1732.2051">Rabbi Articles</text><path d="M695.5,1745.2813 C695.5,1735.2813 713.5,1735.2813 713.5,1735.2813 C713.5,1735.2813 731.5,1735.2813 731.5,1745.2813 L731.5,1771.2813 C731.5,1781.2813 713.5,1781.2813 713.5,1781.2813 C713.5,1781.2813 695.5,1781.2813 695.5,1771.2813 L695.5,1745.2813 " fill="#F08080" style="stroke:#181818;stroke-width:1.5;"/><path d="M695.5,1745.2813 C695.5,1755.2813 713.5,1755.2813 713.5,1755.2813 C713.5,1755.2813 731.5,1755.2813 731.5,1745.2813 " fill="none" style="stroke:#181818;stroke-width:1.5;"/><rect fill="#FFA500" height="31.6094" rx="5" ry="5" style="stroke:#181818;stroke-width:0.5;" width="90" x="770" y="106.2188"/><text fill="#000000" font-family="sans-serif" font-size="14" lengthAdjust="spacing" text-decoration="underline" textLength="76" x="777" y="127.752">Smoove API</text><rect fill="#FFA500" height="31.6094" rx="5" ry="5" style="stroke:#181818;stroke-width:0.5;" width="90" x="770" y="1717.6719"/><text fill="#000000" font-family="sans-serif" font-size="14" lengthAdjust="spacing" text-decoration="underline" textLength="76" x="777" y="1739.2051">Smoove API</text><text fill="#000000" font-family="sans-serif" font-size="14" lengthAdjust="spacing" text-decoration="underline" textLength="34" x="985" y="118.1426">Email</text><text fill="#000000" font-family="sans-serif" font-size="14" lengthAdjust="spacing" text-decoration="underline" textLength="75" x="964.5" y="135.752">Subscribers</text><ellipse cx="1005" cy="52.1094" fill="#FFC0CB" rx="8" ry="8" style="stroke:#181818;stroke-width:0.5;"/><path d="M1005,60.1094 L1005,87.1094 M992,68.1094 L1018,68.1094 M1005,87.1094 L992,102.1094 M1005,87.1094 L1018,102.1094 " fill="none" style="stroke:#181818;stroke-width:0.5;"/><text fill="#000000" font-family="sans-serif" font-size="14" lengthAdjust="spacing" text-decoration="underline" textLength="34" x="985" y="1732.2051">Email</text><text fill="#000000" font-family="sans-serif" font-size="14" lengthAdjust="spacing" text-decoration="underline" textLength="75" x="964.5" y="1749.8145">Subscribers</text><ellipse cx="1005" cy="1761.3906" fill="#FFC0CB" rx="8" ry="8" style="stroke:#181818;stroke-width:0.5;"/><path d="M1005,1769.3906 L1005,1796.3906 M992,1777.3906 L1018,1777.3906 M1005,1796.3906 L992,1811.3906 M1005,1796.3906 L1018,1811.3906 " fill="none" style="stroke:#181818;stroke-width:0.5;"/><rect fill="#00BFFF" height="31.6094" rx="5" ry="5" style="stroke:#181818;stroke-width:0.5;" width="99" x="1055.5" y="106.2188"/><text fill="#000000" font-family="sans-serif" font-size="14" lengthAdjust="spacing" text-decoration="underline" textLength="85" x="1062.5" y="127.752">Telegram Bot</text><rect fill="#00BFFF" height="31.6094" rx="5" ry="5" style="stroke:#181818;stroke-width:0.5;" width="99" x="1055.5" y="1717.6719"/><text fill="#000000" font-family="sans-serif" font-size="14" lengthAdjust="spacing" text-decoration="underline" textLength="85" x="1062.5" y="1739.2051">Telegram Bot</text><rect fill="#90EE90" height="31.6094" rx="5" ry="5" style="stroke:#181818;stroke-width:0.5;" width="104" x="1164.5" y="106.2188"/><text fill="#000000" font-family="sans-serif" font-size="14" lengthAdjust="spacing" text-decoration="underline" textLength="90" x="1171.5" y="127.752">WhatsApp Bot</text><rect fill="#90EE90" height="31.6094" rx="5" ry="5" style="stroke:#181818;stroke-width:0.5;" width="104" x="1164.5" y="1717.6719"/><text fill="#000000" font-family="sans-serif" font-size="14" lengthAdjust="spacing" text-decoration="underline" textLength="90" x="1171.5" y="1739.2051">WhatsApp Bot</text><text fill="#000000" font-family="sans-serif" font-size="14" lengthAdjust="spacing" text-decoration="underline" textLength="60" x="1297" y="118.1426">Telegram</text><text fill="#000000" font-family="sans-serif" font-size="14" lengthAdjust="spacing" text-decoration="underline" textLength="97" x="1278.5" y="135.752">Channel/Group</text><ellipse cx="1330" cy="52.1094" fill="#00BFFF" rx="8" ry="8" style="stroke:#181818;stroke-width:0.5;"/><path d="M1330,60.1094 L1330,87.1094 M1317,68.1094 L1343,68.1094 M1330,87.1094 L1317,102.1094 M1330,87.1094 L1343,102.1094 " fill="none" style="stroke:#181818;stroke-width:0.5;"/><text fill="#000000" font-family="sans-serif" font-size="14" lengthAdjust="spacing" text-decoration="underline" textLength="60" x="1297" y="1732.2051">Telegram</text><text fill="#000000" font-family="sans-serif" font-size="14" lengthAdjust="spacing" text-decoration="underline" textLength="97" x="1278.5" y="1749.8145">Channel/Group</text><ellipse cx="1330" cy="1761.3906" fill="#00BFFF" rx="8" ry="8" style="stroke:#181818;stroke-width:0.5;"/><path d="M1330,1769.3906 L1330,1796.3906 M1317,1777.3906 L1343,1777.3906 M1330,1796.3906 L1317,1811.3906 M1330,1796.3906 L1343,1811.3906 " fill="none" style="stroke:#181818;stroke-width:0.5;"/><text fill="#000000" font-family="sans-serif" font-size="14" lengthAdjust="spacing" text-decoration="underline" textLength="65" x="1391.5" y="118.1426">WhatsApp</text><text fill="#000000" font-family="sans-serif" font-size="14" lengthAdjust="spacing" text-decoration="underline" textLength="40" x="1404" y="135.752">Group</text><ellipse cx="1427" cy="52.1094" fill="#90EE90" rx="8" ry="8" style="stroke:#181818;stroke-width:0.5;"/><path d="M1427,60.1094 L1427,87.1094 M1414,68.1094 L1440,68.1094 M1427,87.1094 L1414,102.1094 M1427,87.1094 L1440,102.1094 " fill="none" style="stroke:#181818;stroke-width:0.5;"/><text fill="#000000" font-family="sans-serif" font-size="14" lengthAdjust="spacing" text-decoration="underline" textLength="65" x="1391.5" y="1732.2051">WhatsApp</text><text fill="#000000" font-family="sans-serif" font-size="14" lengthAdjust="spacing" text-decoration="underline" textLength="40" x="1404" y="1749.8145">Group</text><ellipse cx="1427" cy="1761.3906" fill="#90EE90" rx="8" ry="8" style="stroke:#181818;stroke-width:0.5;"/><path d="M1427,1769.3906 L1427,1796.3906 M1414,1777.3906 L1440,1777.3906 M1427,1796.3906 L1414,1811.3906 M1427,1796.3906 L1440,1811.3906 " fill="none" style="stroke:#181818;stroke-width:0.5;"/><rect fill="#FFFFFF" height="1493.1406" style="stroke:#181818;stroke-width:1.0;" width="10" x="223.5" y="215.5313"/><rect fill="#FFFFFF" height="134.4063" style="stroke:#181818;stroke-width:1.0;" width="10" x="810" y="940.1016"/><rect fill="#FFFFFF" height="73.7031" style="stroke:#181818;stroke-width:1.0;" width="10" x="810" y="1149.2109"/><rect fill="#FFFFFF" height="91.0547" style="stroke:#181818;stroke-width:1.0;" width="10" x="1100" y="1322.9688"/><rect fill="#FFFFFF" height="91.0547" style="stroke:#181818;stroke-width:1.0;" width="10" x="1211.5" y="1460.2109"/><rect fill="#EEEEEE" height="3" rx="5" ry="5" style="stroke:#EEEEEE;stroke-width:1.0;" width="1492.5" x="0" y="170.0039"/><line style="stroke:#000000;stroke-width:1.0;" x1="0" x2="1492.5" y1="170.0039" y2="170.0039"/><line style="stroke:#000000;stroke-width:1.0;" x1="0" x2="1492.5" y1="173.0039" y2="173.0039"/><rect fill="#EEEEEE" height="24.3516" rx="5" ry="5" style="stroke:#000000;stroke-width:2.0;" width="232" x="630.25" y="158.8281"/><text fill="#000000" font-family="sans-serif" font-size="13" font-weight="bold" lengthAdjust="spacing" textLength="214" x="636.25" y="176.3232">Morning Schedule (Multiple Runs)</text><polygon fill="#181818" points="211.5,211.5313,221.5,215.5313,211.5,219.5313,215.5,215.5313" style="stroke:#181818;stroke-width:1.0;"/><line style="stroke:#181818;stroke-width:2.0;" x1="61.5" x2="217.5" y1="215.5313" y2="215.5313"/><text fill="#000000" font-family="sans-serif" font-size="13" lengthAdjust="spacing" textLength="143" x="68.5" y="210.6748">Trigger (cron expression)</text><rect fill="#EEEEEE" height="3" rx="5" ry="5" style="stroke:#EEEEEE;stroke-width:1.0;" width="1492.5" x="0" y="244.707"/><line style="stroke:#000000;stroke-width:1.0;" x1="0" x2="1492.5" y1="244.707" y2="244.707"/><line style="stroke:#000000;stroke-width:1.0;" x1="0" x2="1492.5" y1="247.707" y2="247.707"/><rect fill="#EEEEEE" height="24.3516" rx="5" ry="5" style="stroke:#000000;stroke-width:2.0;" width="143" x="674.75" y="233.5313"/><text fill="#000000" font-family="sans-serif" font-size="13" font-weight="bold" lengthAdjust="spacing" textLength="125" x="680.75" y="251.0264">Idempotency Check</text><polygon fill="#181818" points="419.5,286.2344,429.5,290.2344,419.5,294.2344,423.5,290.2344" style="stroke:#181818;stroke-width:1.0;"/><line style="stroke:#181818;stroke-width:2.0;" x1="233.5" x2="425.5" y1="290.2344" y2="290.2344"/><text fill="#000000" font-family="sans-serif" font-size="13" lengthAdjust="spacing" textLength="166" x="240.5" y="285.3779">Check if today's bulletin sent</text><path d="M15,305.2344 L71,305.2344 L71,313.5859 L61,323.5859 L10,323.5859 L10,310.2344 A5,5 0 0 1 15,305.2344 " fill="#EEEEEE" style="stroke:#000000;stroke-width:1.5;"/><rect fill="none" height="1396.4375" rx="5" ry="5" style="stroke:#000000;stroke-width:1.5;" width="1472.5" x="10" y="305.2344"/><text fill="#000000" font-family="sans-serif" font-size="13" font-weight="bold" lengthAdjust="spacing" textLength="16" x="25" y="319.7295">alt</text><text fill="#000000" font-family="sans-serif" font-size="11" font-weight="bold" lengthAdjust="spacing" textLength="151" x="86" y="318.6533">[Already Sent Successfully]</text><polygon fill="#181818" points="244.5,341.9375,234.5,345.9375,244.5,349.9375,240.5,345.9375" style="stroke:#181818;stroke-width:1.0;"/><line style="stroke:#181818;stroke-width:2.0;stroke-dasharray:2.0,2.0;" x1="238.5" x2="430.5" y1="345.9375" y2="345.9375"/><text fill="#000000" font-family="sans-serif" font-size="13" lengthAdjust="spacing" textLength="105" x="250.5" y="341.0811">Success recorded</text><polygon fill="#181818" points="72.5,372.2891,62.5,376.2891,72.5,380.2891,68.5,376.2891" style="stroke:#181818;stroke-width:1.0;"/><line style="stroke:#181818;stroke-width:2.0;stroke-dasharray:2.0,2.0;" x1="66.5" x2="222.5" y1="376.2891" y2="376.2891"/><text fill="#000000" font-family="sans-serif" font-size="13" lengthAdjust="spacing" textLength="67" x="78.5" y="371.4326">Exit (no-op)</text><line style="stroke:#000000;stroke-width:1.0;stroke-dasharray:2.0,2.0;" x1="10" x2="1482.5" y1="385.2891" y2="385.2891"/><text fill="#000000" font-family="sans-serif" font-size="11" font-weight="bold" lengthAdjust="spacing" textLength="75" x="15" y="396.708">[Not Yet Sent]</text><polygon fill="#181818" points="244.5,418.4766,234.5,422.4766,244.5,426.4766,240.5,422.4766" style="stroke:#181818;stroke-width:1.0;"/><line style="stroke:#181818;stroke-width:2.0;stroke-dasharray:2.0,2.0;" x1="238.5" x2="430.5" y1="422.4766" y2="422.4766"/><text fill="#000000" font-family="sans-serif" font-size="13" lengthAdjust="spacing" textLength="102" x="250.5" y="417.6201">Not found / Failed</text><rect fill="#EEEEEE" height="3" rx="5" ry="5" style="stroke:#EEEEEE;stroke-width:1.0;" width="1492.5" x="0" y="451.6523"/><line style="stroke:#000000;stroke-width:1.0;" x1="0" x2="1492.5" y1="451.6523" y2="451.6523"/><line style="stroke:#000000;stroke-width:1.0;" x1="0" x2="1492.5" y1="454.6523" y2="454.6523"/><rect fill="#EEEEEE" height="24.3516" rx="5" ry="5" style="stroke:#000000;stroke-width:2.0;" width="211" x="640.75" y="440.4766"/><text fill="#000000" font-family="sans-serif" font-size="13" font-weight="bold" lengthAdjust="spacing" textLength="193" x="646.75" y="457.9717">Holiday Pre-Distribution Check</text><line style="stroke:#181818;stroke-width:2.0;" x1="233.5" x2="275.5" y1="497.1797" y2="497.1797"/><line style="stroke:#181818;stroke-width:2.0;" x1="275.5" x2="275.5" y1="497.1797" y2="510.1797"/><line style="stroke:#181818;stroke-width:2.0;" x1="234.5" x2="275.5" y1="510.1797" y2="510.1797"/><polygon fill="#181818" points="244.5,506.1797,234.5,510.1797,244.5,514.1797,240.5,510.1797" style="stroke:#181818;stroke-width:1.0;"/><text fill="#000000" font-family="sans-serif" font-size="13" lengthAdjust="spacing" textLength="166" x="240.5" y="492.3232">Calculate upcoming holidays</text><path d="M238,528.1797 L238,593.1797 A5,5 0 0 0 243,598.1797 L462,598.1797 A5,5 0 0 0 467,593.1797 L467,533.1797 L457,523.1797 L243,523.1797 A5,5 0 0 0 238,528.1797 " fill="#FEFFDD" style="stroke:#181818;stroke-width:0.5;"/><path d="M457,523.1797 L457,530.6797 A2.5,2.5 0 0 0 459.5,533.1797 L467,533.1797 L457,523.1797 " fill="#FEFFDD" style="stroke:#181818;stroke-width:0.5;"/><text fill="#000000" font-family="sans-serif" font-size="13" lengthAdjust="spacing" textLength="129" x="244" y="541.6748">If holiday approaching:</text><text fill="#000000" font-family="sans-serif" font-size="13" lengthAdjust="spacing" textLength="208" x="244" y="558.0264">- Generate bulletins for holiday days</text><text fill="#000000" font-family="sans-serif" font-size="13" lengthAdjust="spacing" textLength="174" x="244" y="574.3779">- Include in current distribution</text><text fill="#000000" font-family="sans-serif" font-size="13" lengthAdjust="spacing" textLength="186" x="244" y="590.7295">(Work forbidden during holidays)</text><rect fill="#EEEEEE" height="3" rx="5" ry="5" style="stroke:#EEEEEE;stroke-width:1.0;" width="1492.5" x="0" y="624.7617"/><line style="stroke:#000000;stroke-width:1.0;" x1="0" x2="1492.5" y1="624.7617" y2="624.7617"/><line style="stroke:#000000;stroke-width:1.0;" x1="0" x2="1492.5" y1="627.7617" y2="627.7617"/><rect fill="#EEEEEE" height="24.3516" rx="5" ry="5" style="stroke:#000000;stroke-width:2.0;" width="142" x="675.25" y="613.5859"/><text fill="#000000" font-family="sans-serif" font-size="13" font-weight="bold" lengthAdjust="spacing" textLength="124" x="681.25" y="631.0811">Content Generation</text><polygon fill="#181818" points="508.5,666.2891,518.5,670.2891,508.5,674.2891,512.5,670.2891" style="stroke:#181818;stroke-width:1.0;"/><line style="stroke:#181818;stroke-width:2.0;" x1="233.5" x2="514.5" y1="670.2891" y2="670.2891"/><text fill="#000000" font-family="sans-serif" font-size="13" lengthAdjust="spacing" textLength="155" x="240.5" y="665.4326">Fetch daily Perek pesukim</text><polygon fill="#181818" points="244.5,696.6406,234.5,700.6406,244.5,704.6406,240.5,700.6406" style="stroke:#181818;stroke-width:1.0;"/><line style="stroke:#181818;stroke-width:2.0;stroke-dasharray:2.0,2.0;" x1="238.5" x2="519.5" y1="700.6406" y2="700.6406"/><text fill="#000000" font-family="sans-serif" font-size="13" lengthAdjust="spacing" textLength="98" x="250.5" y="695.7842">Pesukim content</text><polygon fill="#181818" points="602,726.9922,612,730.9922,602,734.9922,606,730.9922" style="stroke:#181818;stroke-width:1.0;"/><line style="stroke:#181818;stroke-width:2.0;" x1="233.5" x2="608" y1="730.9922" y2="730.9922"/><text fill="#000000" font-family="sans-serif" font-size="13" lengthAdjust="spacing" textLength="147" x="240.5" y="726.1357">Fetch Perek commentary</text><polygon fill="#181818" points="244.5,757.3438,234.5,761.3438,244.5,765.3438,240.5,761.3438" style="stroke:#181818;stroke-width:1.0;"/><line style="stroke:#181818;stroke-width:2.0;stroke-dasharray:2.0,2.0;" x1="238.5" x2="613" y1="761.3438" y2="761.3438"/><text fill="#000000" font-family="sans-serif" font-size="13" lengthAdjust="spacing" textLength="121" x="250.5" y="756.4873">Commentary content</text><polygon fill="#181818" points="701.5,787.6953,711.5,791.6953,701.5,795.6953,705.5,791.6953" style="stroke:#181818;stroke-width:1.0;"/><line style="stroke:#181818;stroke-width:2.0;" x1="233.5" x2="707.5" y1="791.6953" y2="791.6953"/><text fill="#000000" font-family="sans-serif" font-size="13" lengthAdjust="spacing" textLength="155" x="240.5" y="786.8389">Select random rabbi article</text><polygon fill="#181818" points="244.5,818.0469,234.5,822.0469,244.5,826.0469,240.5,822.0469" style="stroke:#181818;stroke-width:1.0;"/><line style="stroke:#181818;stroke-width:2.0;stroke-dasharray:2.0,2.0;" x1="238.5" x2="712.5" y1="822.0469" y2="822.0469"/><text fill="#000000" font-family="sans-serif" font-size="13" lengthAdjust="spacing" textLength="84" x="250.5" y="817.1904">Article content</text><line style="stroke:#181818;stroke-width:2.0;" x1="233.5" x2="275.5" y1="852.3984" y2="852.3984"/><line style="stroke:#181818;stroke-width:2.0;" x1="275.5" x2="275.5" y1="852.3984" y2="865.3984"/><line style="stroke:#181818;stroke-width:2.0;" x1="234.5" x2="275.5" y1="865.3984" y2="865.3984"/><polygon fill="#181818" points="244.5,861.3984,234.5,865.3984,244.5,869.3984,240.5,865.3984" style="stroke:#181818;stroke-width:1.0;"/><text fill="#000000" font-family="sans-serif" font-size="13" lengthAdjust="spacing" textLength="150" x="240.5" y="847.542">Assemble bulletin content</text><rect fill="#EEEEEE" height="3" rx="5" ry="5" style="stroke:#EEEEEE;stroke-width:1.0;" width="1492.5" x="0" y="894.5742"/><line style="stroke:#000000;stroke-width:1.0;" x1="0" x2="1492.5" y1="894.5742" y2="894.5742"/><line style="stroke:#000000;stroke-width:1.0;" x1="0" x2="1492.5" y1="897.5742" y2="897.5742"/><rect fill="#EEEEEE" height="24.3516" rx="5" ry="5" style="stroke:#000000;stroke-width:2.0;" width="209" x="641.75" y="883.3984"/><text fill="#000000" font-family="sans-serif" font-size="13" font-weight="bold" lengthAdjust="spacing" textLength="191" x="647.75" y="900.8936">Email Distribution via Smoove</text><polygon fill="#181818" points="798,936.1016,808,940.1016,798,944.1016,802,940.1016" style="stroke:#181818;stroke-width:1.0;"/><line style="stroke:#181818;stroke-width:2.0;" x1="233.5" x2="804" y1="940.1016" y2="940.1016"/><text fill="#000000" font-family="sans-serif" font-size="13" lengthAdjust="spacing" textLength="159" x="240.5" y="935.2451">Send content for templating</text><line style="stroke:#181818;stroke-width:2.0;" x1="820" x2="862" y1="970.4531" y2="970.4531"/><line style="stroke:#181818;stroke-width:2.0;" x1="862" x2="862" y1="970.4531" y2="983.4531"/><line style="stroke:#181818;stroke-width:2.0;" x1="821" x2="862" y1="983.4531" y2="983.4531"/><polygon fill="#181818" points="831,979.4531,821,983.4531,831,987.4531,827,983.4531" style="stroke:#181818;stroke-width:1.0;"/><text fill="#000000" font-family="sans-serif" font-size="13" lengthAdjust="spacing" textLength="130" x="827" y="965.5967">Render email template</text><polygon fill="#181818" points="993,1009.8047,1003,1013.8047,993,1017.8047,997,1013.8047" style="stroke:#181818;stroke-width:1.0;"/><line style="stroke:#181818;stroke-width:2.0;" x1="820" x2="999" y1="1013.8047" y2="1013.8047"/><text fill="#000000" font-family="sans-serif" font-size="13" lengthAdjust="spacing" textLength="90" x="827" y="1008.9482">Distribute email</text><polygon fill="#181818" points="831,1040.1563,821,1044.1563,831,1048.1563,827,1044.1563" style="stroke:#181818;stroke-width:1.0;"/><line style="stroke:#181818;stroke-width:2.0;stroke-dasharray:2.0,2.0;" x1="825" x2="1004" y1="1044.1563" y2="1044.1563"/><text fill="#000000" font-family="sans-serif" font-size="13" lengthAdjust="spacing" textLength="119" x="837" y="1039.2998">Delivery confirmation</text><polygon fill="#181818" points="244.5,1070.5078,234.5,1074.5078,244.5,1078.5078,240.5,1074.5078" style="stroke:#181818;stroke-width:1.0;"/><line style="stroke:#181818;stroke-width:2.0;stroke-dasharray:2.0,2.0;" x1="238.5" x2="814" y1="1074.5078" y2="1074.5078"/><text fill="#000000" font-family="sans-serif" font-size="13" lengthAdjust="spacing" textLength="136" x="250.5" y="1069.6514">Email sent confirmation</text><rect fill="#EEEEEE" height="3" rx="5" ry="5" style="stroke:#EEEEEE;stroke-width:1.0;" width="1492.5" x="0" y="1103.6836"/><line style="stroke:#000000;stroke-width:1.0;" x1="0" x2="1492.5" y1="1103.6836" y2="1103.6836"/><line style="stroke:#000000;stroke-width:1.0;" x1="0" x2="1492.5" y1="1106.6836" y2="1106.6836"/><rect fill="#EEEEEE" height="24.3516" rx="5" ry="5" style="stroke:#000000;stroke-width:2.0;" width="200" x="646.25" y="1092.5078"/><text fill="#000000" font-family="sans-serif" font-size="13" font-weight="bold" lengthAdjust="spacing" textLength="182" x="652.25" y="1110.0029">PDF Generation &amp; Download</text><polygon fill="#181818" points="798,1145.2109,808,1149.2109,798,1153.2109,802,1149.2109" style="stroke:#181818;stroke-width:1.0;"/><line style="stroke:#181818;stroke-width:2.0;" x1="233.5" x2="804" y1="1149.2109" y2="1149.2109"/><text fill="#000000" font-family="sans-serif" font-size="13" lengthAdjust="spacing" textLength="142" x="240.5" y="1144.3545">Request PDF generation</text><line style="stroke:#181818;stroke-width:2.0;" x1="820" x2="862" y1="1179.5625" y2="1179.5625"/><line style="stroke:#181818;stroke-width:2.0;" x1="862" x2="862" y1="1179.5625" y2="1192.5625"/><line style="stroke:#181818;stroke-width:2.0;" x1="821" x2="862" y1="1192.5625" y2="1192.5625"/><polygon fill="#181818" points="831,1188.5625,821,1192.5625,831,1196.5625,827,1192.5625" style="stroke:#181818;stroke-width:1.0;"/><text fill="#000000" font-family="sans-serif" font-size="13" lengthAdjust="spacing" textLength="166" x="827" y="1174.7061">Generate PDF from template</text><polygon fill="#181818" points="244.5,1218.9141,234.5,1222.9141,244.5,1226.9141,240.5,1222.9141" style="stroke:#181818;stroke-width:1.0;"/><line style="stroke:#181818;stroke-width:2.0;stroke-dasharray:2.0,2.0;" x1="238.5" x2="814" y1="1222.9141" y2="1222.9141"/><text fill="#000000" font-family="sans-serif" font-size="13" lengthAdjust="spacing" textLength="104" x="250.5" y="1218.0576">PDF file download</text><rect fill="#EEEEEE" height="3" rx="5" ry="5" style="stroke:#EEEEEE;stroke-width:1.0;" width="1492.5" x="0" y="1252.0898"/><line style="stroke:#000000;stroke-width:1.0;" x1="0" x2="1492.5" y1="1252.0898" y2="1252.0898"/><line style="stroke:#000000;stroke-width:1.0;" x1="0" x2="1492.5" y1="1255.0898" y2="1255.0898"/><rect fill="#EEEEEE" height="24.3516" rx="5" ry="5" style="stroke:#000000;stroke-width:2.0;" width="219" x="636.75" y="1240.9141"/><text fill="#000000" font-family="sans-serif" font-size="13" font-weight="bold" lengthAdjust="spacing" textLength="201" x="642.75" y="1258.4092">Messaging Platform Distribution</text><path d="M171,1282.2656 L232,1282.2656 L232,1290.6172 L222,1300.6172 L166,1300.6172 L166,1287.2656 A5,5 0 0 1 171,1282.2656 " fill="#EEEEEE" style="stroke:#000000;stroke-width:1.5;"/><rect fill="none" height="277" rx="5" ry="5" style="stroke:#000000;stroke-width:1.5;" width="1306.5" x="166" y="1282.2656"/><text fill="#000000" font-family="sans-serif" font-size="13" font-weight="bold" lengthAdjust="spacing" textLength="21" x="181" y="1296.7607">par</text><text fill="#000000" font-family="sans-serif" font-size="11" font-weight="bold" lengthAdjust="spacing" textLength="128" x="247" y="1295.6846">[Telegram Distribution]</text><polygon fill="#181818" points="1088,1318.9688,1098,1322.9688,1088,1326.9688,1092,1322.9688" style="stroke:#181818;stroke-width:1.0;"/><line style="stroke:#181818;stroke-width:2.0;" x1="233.5" x2="1094" y1="1322.9688" y2="1322.9688"/><text fill="#000000" font-family="sans-serif" font-size="13" lengthAdjust="spacing" textLength="60" x="240.5" y="1318.1123">Send PDF</text><polygon fill="#181818" points="1318,1349.3203,1328,1353.3203,1318,1357.3203,1322,1353.3203" style="stroke:#181818;stroke-width:1.0;"/><line style="stroke:#181818;stroke-width:2.0;" x1="1110" x2="1324" y1="1353.3203" y2="1353.3203"/><text fill="#000000" font-family="sans-serif" font-size="13" lengthAdjust="spacing" textLength="157" x="1117" y="1348.4639">Post PDF to channel/group</text><polygon fill="#181818" points="1121,1379.6719,1111,1383.6719,1121,1387.6719,1117,1383.6719" style="stroke:#181818;stroke-width:1.0;"/><line style="stroke:#181818;stroke-width:2.0;stroke-dasharray:2.0,2.0;" x1="1115" x2="1329" y1="1383.6719" y2="1383.6719"/><text fill="#000000" font-family="sans-serif" font-size="13" lengthAdjust="spacing" textLength="41" x="1127" y="1378.8154">Posted</text><polygon fill="#181818" points="244.5,1410.0234,234.5,1414.0234,244.5,1418.0234,240.5,1414.0234" style="stroke:#181818;stroke-width:1.0;"/><line style="stroke:#181818;stroke-width:2.0;stroke-dasharray:2.0,2.0;" x1="238.5" x2="1104" y1="1414.0234" y2="1414.0234"/><text fill="#000000" font-family="sans-serif" font-size="13" lengthAdjust="spacing" textLength="51" x="250.5" y="1409.167">Success</text><line style="stroke:#000000;stroke-width:1.0;stroke-dasharray:2.0,2.0;" x1="166" x2="1472.5" y1="1423.0234" y2="1423.0234"/><text fill="#000000" font-family="sans-serif" font-size="11" font-weight="bold" lengthAdjust="spacing" textLength="131" x="171" y="1434.4424">[WhatsApp Distribution]</text><polygon fill="#181818" points="1199.5,1456.2109,1209.5,1460.2109,1199.5,1464.2109,1203.5,1460.2109" style="stroke:#181818;stroke-width:1.0;"/><line style="stroke:#181818;stroke-width:2.0;" x1="233.5" x2="1205.5" y1="1460.2109" y2="1460.2109"/><text fill="#000000" font-family="sans-serif" font-size="13" lengthAdjust="spacing" textLength="60" x="240.5" y="1455.3545">Send PDF</text><polygon fill="#181818" points="1415,1486.5625,1425,1490.5625,1415,1494.5625,1419,1490.5625" style="stroke:#181818;stroke-width:1.0;"/><line style="stroke:#181818;stroke-width:2.0;" x1="1221.5" x2="1421" y1="1490.5625" y2="1490.5625"/><text fill="#000000" font-family="sans-serif" font-size="13" lengthAdjust="spacing" textLength="108" x="1228.5" y="1485.7061">Post PDF to group</text><polygon fill="#181818" points="1232.5,1516.9141,1222.5,1520.9141,1232.5,1524.9141,1228.5,1520.9141" style="stroke:#181818;stroke-width:1.0;"/><line style="stroke:#181818;stroke-width:2.0;stroke-dasharray:2.0,2.0;" x1="1226.5" x2="1426" y1="1520.9141" y2="1520.9141"/><text fill="#000000" font-family="sans-serif" font-size="13" lengthAdjust="spacing" textLength="41" x="1238.5" y="1516.0576">Posted</text><polygon fill="#181818" points="244.5,1547.2656,234.5,1551.2656,244.5,1555.2656,240.5,1551.2656" style="stroke:#181818;stroke-width:1.0;"/><line style="stroke:#181818;stroke-width:2.0;stroke-dasharray:2.0,2.0;" x1="238.5" x2="1215.5" y1="1551.2656" y2="1551.2656"/><text fill="#000000" font-family="sans-serif" font-size="13" lengthAdjust="spacing" textLength="51" x="250.5" y="1546.4092">Success</text><rect fill="#EEEEEE" height="3" rx="5" ry="5" style="stroke:#EEEEEE;stroke-width:1.0;" width="1492.5" x="0" y="1587.4414"/><line style="stroke:#000000;stroke-width:1.0;" x1="0" x2="1492.5" y1="1587.4414" y2="1587.4414"/><line style="stroke:#000000;stroke-width:1.0;" x1="0" x2="1492.5" y1="1590.4414" y2="1590.4414"/><rect fill="#EEEEEE" height="24.3516" rx="5" ry="5" style="stroke:#000000;stroke-width:2.0;" width="118" x="687.25" y="1576.2656"/><text fill="#000000" font-family="sans-serif" font-size="13" font-weight="bold" lengthAdjust="spacing" textLength="100" x="693.25" y="1593.7607">Record Success</text><polygon fill="#181818" points="419.5,1628.9688,429.5,1632.9688,419.5,1636.9688,423.5,1632.9688" style="stroke:#181818;stroke-width:1.0;"/><line style="stroke:#181818;stroke-width:2.0;" x1="233.5" x2="425.5" y1="1632.9688" y2="1632.9688"/><text fill="#000000" font-family="sans-serif" font-size="13" lengthAdjust="spacing" textLength="174" x="240.5" y="1628.1123">Record successful distribution</text><polygon fill="#181818" points="244.5,1659.3203,234.5,1663.3203,244.5,1667.3203,240.5,1663.3203" style="stroke:#181818;stroke-width:1.0;"/><line style="stroke:#181818;stroke-width:2.0;stroke-dasharray:2.0,2.0;" x1="238.5" x2="430.5" y1="1663.3203" y2="1663.3203"/><text fill="#000000" font-family="sans-serif" font-size="13" lengthAdjust="spacing" textLength="58" x="250.5" y="1658.4639">Confirmed</text><polygon fill="#181818" points="72.5,1689.6719,62.5,1693.6719,72.5,1697.6719,68.5,1693.6719" style="stroke:#181818;stroke-width:1.0;"/><line style="stroke:#181818;stroke-width:2.0;stroke-dasharray:2.0,2.0;" x1="66.5" x2="222.5" y1="1693.6719" y2="1693.6719"/><text fill="#000000" font-family="sans-serif" font-size="13" lengthAdjust="spacing" textLength="55" x="78.5" y="1688.8154">Complete</text><!--SRC=[bLRRRXit47tVhnZOG2iz26dxAC01RCbo3SIj81a80lY5uevMXBZabikrex_lyB8KLvUaTLwov9apCuTpaHLM8ioPa0TuwAH4AnJCHMkDs7HMQ0KBgJ-AejqBrJ33QjWmlg-CxbGvqr8Rk5qykdyPeiL_EbGSxutH7wyxmVSAsnR-o23UdckZqC3llrsmNJ9Z1HSDKnO8YaOAXKN1k2MNDu_lgEo34MM5RshDTrXs4iqDi1RI5zn-4TNEFiWEYoPZk_d2wat9tjHecFNOcuVBQFja45LHCiish4MuMLjc4TOK0WPV_ZjWlw5qGXt1hqon7IbhdIk753ou21V1QgODavdHJDSrfSRCuKqvKszmFBnYjMARZO1xbwF4rjlq7mEBWGphMkjtXFlbSyWbVDx-RPYgC0bTaqOaSRTfELK4ci3kZ-5sATH-IFgA4YltZW_QXcJZ0Nt3xHonMUyFvq_oTSTiUzyqoQm_y6RPMyImUjOtDTinfL1-UgAAQWOU_SdGPxJkoT_KqQe_YrQPo-Bk3bweKeMgKd71wAMJLZJqlrMdsZ7StHN5iV8cd_iwciAh4LL5PoDkg9dmUsEe5wYlnYuQyUuAA62ze-SIwqPRwe03p7R8zvuvaX5jgBXfl1DRiBfaXrzRsFIzsrAb54nQk9S6MNc0DHt0kkES_6u9TIY0_WBH98yqOi0WDMQ9fSVrhftlbDyK7hyB2oEb9xeP5oYf2F-Yb_g6rhkxvi5XjgxpuHCig8B8XuTIudzgAIWJM1gS3CRFKOKyd8nqnYJlfFFLDLpNxfbsWQpr9eha1EFU4_IsrnhYt_Es1mDh6gCPtn71DDrFu0bfHZdsNk6MKZ39Aha9w6V5PLSYq4FmpXWdVPbbav2Zhzhi7T56b2KgA3kJ1pxsG2IXNFH9f9bMrb76c9myvyA4yJA51Lg-e_ZSZ5kYmJqqs7PxKNjyG0rUPnckWGSlfxpP5Eh90orF5zuYmmtei_Ch7jBCebga9kOMQ1QLchQ5dsyiN7kZ11suYAVN-8-ujiLw8uzlEhGWfSE06nJYks3za3mNFLwumEdH8fil54iDJTL9h-jDKjC7Yz0fmJYdMQ7RUO0-Z4Xn2WunJezHOi1xMBYSv9npbE8TW_nROMgMAhBdp3KA16wQdEDBF4sZrsqvN-JL-GlCzOUIcfK_qcpbTdvhlN6LZF-FNAb97SNMKCbSr6nGxGv98mZA6E5FCdkXqSWgrwHBugMNhOVbqUT7Uosje04YzNxMgjboZAL3OILW2YN3fSlSDgCA-ulIqr5Ggu777Ub-jJLd1C5YSXQEOuXBuCpVXRMHW9c4ft7xHP5s_K_4oNy2_4YS39SkSzkCwf8uGr66oCbP62UY3FpyHr5EuwN4Kf6j_EfDc_X2pyJz7u5jMkldQ-R2_fs5HkxNxfNTJeEQVjXGw_Z8iiZZxlmN]--></g></svg>