<?xml version="1.0" encoding="us-ascii" standalone="no"?><svg xmlns="http://www.w3.org/2000/svg" xmlns:xlink="http://www.w3.org/1999/xlink" contentStyleType="text/css" height="1006px" preserveAspectRatio="none" style="width:1591px;height:1006px;background:#FEFEFE;" version="1.1" viewBox="0 0 1591 1006" width="1591px" zoomAndPan="magnify"><defs/><g><rect fill="#FEFEFE" height="1006" style="stroke:none;stroke-width:1.0;" width="1591" x="0" y="0"/><text fill="#000000" font-family="Verdana" font-size="22" font-weight="bold" lengthAdjust="spacing" textLength="439" x="574.75" y="37.1182">Continuous Deployment Workflows</text><rect fill="#FFFFFF" height="21.876" style="stroke:#FFFFFF;stroke-width:1.0;" width="1568.5" x="10" y="55.0166"/><rect fill="#E8F4FD" height="944.2964" style="stroke:#E8F4FD;stroke-width:1.0;" width="453.5" x="10" y="55.0166"/><ellipse cx="121" cy="91.8926" fill="#FFFFFF" rx="10" ry="10" style="stroke:#000000;stroke-width:1.0;"/><path d="M213.5,117.7776 L213.5,142.4766 L193.5,146.4766 L213.5,150.4766 L213.5,175.1755 A0,0 0 0 0 213.5,175.1755 L458.5,175.1755 A0,0 0 0 0 458.5,175.1755 L458.5,127.7776 L448.5,117.7776 L213.5,117.7776 A0,0 0 0 0 213.5,117.7776 " fill="#FFFFFF" style="stroke:#000000;stroke-width:1.0;"/><path d="M448.5,117.7776 L448.5,127.7776 L458.5,127.7776 L448.5,117.7776 " fill="#FFFFFF" style="stroke:#000000;stroke-width:1.0;"/><text fill="#000000" font-family="Verdana" font-size="13" lengthAdjust="spacing" textLength="168" x="219.5" y="135.8474">From shared-release.yml:</text><text fill="#000000" font-family="Verdana" font-size="13" lengthAdjust="spacing" textLength="205" x="219.5" y="151.6467">module_name, module_version,</text><text fill="#000000" font-family="Verdana" font-size="13" lengthAdjust="spacing" textLength="224" x="219.5" y="167.446">released_artifact_name, ci_run_id</text><rect fill="#E8F4FD" height="49.168" rx="12.5" ry="12.5" style="stroke:#2196F3;stroke-width:1.0;" width="145" x="48.5" y="121.8926"/><text fill="#1565C0" font-family="Verdana" font-size="12" lengthAdjust="spacing" textLength="125" x="58.5" y="143.957">repository_dispatch</text><text fill="#1565C0" font-family="Verdana" font-size="12" lengthAdjust="spacing" textLength="83" x="58.5" y="158.541">(deploy-aws)</text><rect fill="#E8F4FD" height="34.584" rx="12.5" ry="12.5" style="stroke:#2196F3;stroke-width:1.0;" width="183" x="29.5" y="195.1755"/><text fill="#1565C0" font-family="Verdana" font-size="12" lengthAdjust="spacing" textLength="163" x="39.5" y="217.24">Setup &amp; AWS Auth (OIDC)</text><rect fill="#E8F4FD" height="34.584" rx="12.5" ry="12.5" style="stroke:#2196F3;stroke-width:1.0;" width="210" x="16" y="249.7595"/><text fill="#1565C0" font-family="Verdana" font-size="12" lengthAdjust="spacing" textLength="190" x="26" y="271.824">Restore Docker Image from CI</text><path d="M190.5,308.7358 L190.5,317.6355 L170.5,321.6355 L190.5,325.6355 L190.5,334.5352 A0,0 0 0 0 190.5,334.5352 L358.5,334.5352 A0,0 0 0 0 358.5,334.5352 L358.5,318.7358 L348.5,308.7358 L190.5,308.7358 A0,0 0 0 0 190.5,308.7358 " fill="#FFFFFF" style="stroke:#000000;stroke-width:1.0;"/><path d="M348.5,308.7358 L348.5,318.7358 L358.5,318.7358 L348.5,308.7358 " fill="#FFFFFF" style="stroke:#000000;stroke-width:1.0;"/><text fill="#000000" font-family="Verdana" font-size="13" lengthAdjust="spacing" textLength="147" x="196.5" y="326.8057">Tags: version + latest</text><rect fill="#E8F4FD" height="34.584" rx="12.5" ry="12.5" style="stroke:#2196F3;stroke-width:1.0;" width="99" x="71.5" y="304.3435"/><text fill="#1565C0" font-family="Verdana" font-size="12" font-weight="bold" lengthAdjust="spacing" textLength="79" x="81.5" y="326.408">Push to ECR</text><path d="M204,355.4202 L204,372.2195 L184,376.2195 L204,380.2195 L204,397.0188 A0,0 0 0 0 204,397.0188 L358,397.0188 A0,0 0 0 0 358,397.0188 L358,365.4202 L348,355.4202 L204,355.4202 A0,0 0 0 0 204,355.4202 " fill="#FFFFFF" style="stroke:#000000;stroke-width:1.0;"/><path d="M348,355.4202 L348,365.4202 L358,365.4202 L348,355.4202 " fill="#FFFFFF" style="stroke:#000000;stroke-width:1.0;"/><text fill="#000000" font-family="Verdana" font-size="13" lengthAdjust="spacing" textLength="133" x="210" y="373.49">EventBridge triggers</text><text fill="#000000" font-family="Verdana" font-size="13" lengthAdjust="spacing" textLength="92" x="210" y="389.2893">on 'latest' tag</text><rect fill="#E8F4FD" height="34.584" rx="12.5" ry="12.5" style="stroke:#2196F3;stroke-width:1.0;" width="126" x="58" y="358.9275"/><text fill="#1565C0" font-family="Verdana" font-size="12" lengthAdjust="spacing" textLength="106" x="68" y="380.9919">ECS Auto-Deploy</text><ellipse cx="121" cy="428.0188" fill="none" rx="11" ry="11" style="stroke:#000000;stroke-width:1.0;"/><ellipse cx="121" cy="428.0188" fill="#FFFFFF" rx="6" ry="6" style="stroke:#000000;stroke-width:1.0;"/><line style="stroke:#000000;stroke-width:1.0;" x1="10" x2="10" y1="55.0166" y2="999.313"/><rect fill="#E8F5E9" height="944.2964" style="stroke:#E8F5E9;stroke-width:1.0;" width="691" x="463.5" y="55.0166"/><ellipse cx="810" cy="459.0188" fill="#FFFFFF" rx="10" ry="10" style="stroke:#000000;stroke-width:1.0;"/><path d="M902.5,484.9038 L902.5,509.6028 L882.5,513.6028 L902.5,517.6028 L902.5,542.3018 A0,0 0 0 0 902.5,542.3018 L1134.5,542.3018 A0,0 0 0 0 1134.5,542.3018 L1134.5,494.9038 L1124.5,484.9038 L902.5,484.9038 A0,0 0 0 0 902.5,484.9038 " fill="#FFFFFF" style="stroke:#000000;stroke-width:1.0;"/><path d="M1124.5,484.9038 L1124.5,494.9038 L1134.5,494.9038 L1124.5,484.9038 " fill="#FFFFFF" style="stroke:#000000;stroke-width:1.0;"/><text fill="#000000" font-family="Verdana" font-size="13" lengthAdjust="spacing" textLength="206" x="908.5" y="502.9736">From release_app job in ci.yml:</text><text fill="#000000" font-family="Verdana" font-size="13" lengthAdjust="spacing" textLength="175" x="908.5" y="518.7729">module_version, ci_run_id,</text><text fill="#000000" font-family="Verdana" font-size="13" lengthAdjust="spacing" textLength="211" x="908.5" y="534.5723">windows/android artifact names</text><rect fill="#E8F4FD" height="49.168" rx="12.5" ry="12.5" style="stroke:#2196F3;stroke-width:1.0;" width="145" x="737.5" y="489.0188"/><text fill="#1565C0" font-family="Verdana" font-size="12" lengthAdjust="spacing" textLength="125" x="747.5" y="511.0833">repository_dispatch</text><text fill="#1565C0" font-family="Verdana" font-size="12" lengthAdjust="spacing" textLength="81" x="747.5" y="525.6672">(deploy-app)</text><rect fill="#1976D2" height="6" rx="2.5" ry="2.5" style="stroke:#1976D2;stroke-width:1.0;" width="681" x="469.5" y="562.3018"/><rect fill="#E8F4FD" height="34.584" rx="12.5" ry="12.5" style="stroke:#2196F3;stroke-width:1.0;" width="104" x="503" y="588.3018"/><text fill="#1565C0" font-family="Verdana" font-size="12" lengthAdjust="spacing" textLength="84" x="513" y="610.3662">Restore MSIX</text><path d="M648.5,639.3784 L648.5,656.1777 L628.5,660.1777 L648.5,664.1777 L648.5,680.9771 A0,0 0 0 0 648.5,680.9771 L793.5,680.9771 A0,0 0 0 0 793.5,680.9771 L793.5,649.3784 L783.5,639.3784 L648.5,639.3784 A0,0 0 0 0 648.5,639.3784 " fill="#FFFFFF" style="stroke:#000000;stroke-width:1.0;"/><path d="M783.5,639.3784 L783.5,649.3784 L793.5,649.3784 L783.5,639.3784 " fill="#FFFFFF" style="stroke:#000000;stroke-width:1.0;"/><text fill="#000000" font-family="Verdana" font-size="13" lengthAdjust="spacing" textLength="98" x="654.5" y="657.4482">Flight: Internal</text><text fill="#000000" font-family="Verdana" font-size="13" lengthAdjust="spacing" textLength="124" x="654.5" y="673.2476">Partner Center API</text><rect fill="#E8F4FD" height="34.584" rx="12.5" ry="12.5" style="stroke:#2196F3;stroke-width:1.0;" width="147" x="481.5" y="642.8857"/><text fill="#1565C0" font-family="Verdana" font-size="12" font-weight="bold" lengthAdjust="spacing" textLength="127" x="491.5" y="664.9502">Deploy to MS Store</text><rect fill="#E8F4FD" height="34.584" rx="12.5" ry="12.5" style="stroke:#2196F3;stroke-width:1.0;" width="97" x="856" y="588.3018"/><text fill="#1565C0" font-family="Verdana" font-size="12" lengthAdjust="spacing" textLength="77" x="866" y="610.3662">Restore AAB</text><path d="M1007.5,639.3784 L1007.5,656.1777 L987.5,660.1777 L1007.5,664.1777 L1007.5,680.9771 A0,0 0 0 0 1007.5,680.9771 L1138.5,680.9771 A0,0 0 0 0 1138.5,680.9771 L1138.5,649.3784 L1128.5,639.3784 L1007.5,639.3784 A0,0 0 0 0 1007.5,639.3784 " fill="#FFFFFF" style="stroke:#000000;stroke-width:1.0;"/><path d="M1128.5,639.3784 L1128.5,649.3784 L1138.5,649.3784 L1128.5,639.3784 " fill="#FFFFFF" style="stroke:#000000;stroke-width:1.0;"/><text fill="#000000" font-family="Verdana" font-size="13" lengthAdjust="spacing" textLength="99" x="1013.5" y="657.4482">Track: Internal</text><text fill="#000000" font-family="Verdana" font-size="13" lengthAdjust="spacing" textLength="110" x="1013.5" y="673.2476">Play Console API</text><rect fill="#E8F4FD" height="34.584" rx="12.5" ry="12.5" style="stroke:#2196F3;stroke-width:1.0;" width="166" x="821.5" y="642.8857"/><text fill="#1565C0" font-family="Verdana" font-size="12" font-weight="bold" lengthAdjust="spacing" textLength="146" x="831.5" y="664.9502">Deploy to Google Play</text><rect fill="#1976D2" height="6" rx="2.5" ry="2.5" style="stroke:#1976D2;stroke-width:1.0;" width="681" x="469.5" y="700.9771"/><ellipse cx="810" cy="737.9771" fill="none" rx="11" ry="11" style="stroke:#000000;stroke-width:1.0;"/><ellipse cx="810" cy="737.9771" fill="#FFFFFF" rx="6" ry="6" style="stroke:#000000;stroke-width:1.0;"/><line style="stroke:#000000;stroke-width:1.0;" x1="463.5" x2="463.5" y1="55.0166" y2="999.313"/><rect fill="#FFF3E0" height="944.2964" style="stroke:#FFF3E0;stroke-width:1.0;" width="422" x="1154.5" y="55.0166"/><ellipse cx="1252" cy="768.9771" fill="#FFFFFF" rx="10" ry="10" style="stroke:#000000;stroke-width:1.0;"/><path d="M1344.5,810.6614 L1344.5,819.561 L1324.5,823.561 L1344.5,827.561 L1344.5,836.4607 A0,0 0 0 0 1344.5,836.4607 L1571.5,836.4607 A0,0 0 0 0 1571.5,836.4607 L1571.5,820.6614 L1561.5,810.6614 L1344.5,810.6614 A0,0 0 0 0 1344.5,810.6614 " fill="#FFFFFF" style="stroke:#000000;stroke-width:1.0;"/><path d="M1561.5,810.6614 L1561.5,820.6614 L1571.5,820.6614 L1561.5,810.6614 " fill="#FFFFFF" style="stroke:#000000;stroke-width:1.0;"/><text fill="#000000" font-family="Verdana" font-size="13" lengthAdjust="spacing" textLength="206" x="1350.5" y="828.7312">From release_data job in ci.yml</text><rect fill="#E8F4FD" height="49.168" rx="12.5" ry="12.5" style="stroke:#2196F3;stroke-width:1.0;" width="145" x="1179.5" y="798.9771"/><text fill="#1565C0" font-family="Verdana" font-size="12" lengthAdjust="spacing" textLength="125" x="1189.5" y="821.0415">repository_dispatch</text><text fill="#1565C0" font-family="Verdana" font-size="12" lengthAdjust="spacing" textLength="86" x="1189.5" y="835.6255">(deploy-data)</text><rect fill="#E8F4FD" height="34.584" rx="12.5" ry="12.5" style="stroke:#2196F3;stroke-width:1.0;" width="183" x="1160.5" y="868.145"/><text fill="#1565C0" font-family="Verdana" font-size="12" lengthAdjust="spacing" textLength="163" x="1170.5" y="890.2095">Setup &amp; AWS Auth (OIDC)</text><rect fill="#E8F4FD" height="34.584" rx="12.5" ry="12.5" style="stroke:#2196F3;stroke-width:1.0;" width="146" x="1179" y="922.729"/><text fill="#1565C0" font-family="Verdana" font-size="12" font-weight="bold" lengthAdjust="spacing" textLength="126" x="1189" y="944.7935">Run Data Migration</text><ellipse cx="1252" cy="988.313" fill="none" rx="11" ry="11" style="stroke:#000000;stroke-width:1.0;"/><ellipse cx="1252" cy="988.313" fill="#FFFFFF" rx="6" ry="6" style="stroke:#000000;stroke-width:1.0;"/><line style="stroke:#000000;stroke-width:1.0;" x1="1154.5" x2="1154.5" y1="55.0166" y2="999.313"/><line style="stroke:#000000;stroke-width:1.0;" x1="1576.5" x2="1576.5" y1="55.0166" y2="999.313"/><line style="stroke:#1976D2;stroke-width:1.0;" x1="121" x2="121" y1="101.8926" y2="121.8926"/><polygon fill="#1976D2" points="117,111.8926,121,121.8926,125,111.8926,121,115.8926" style="stroke:#1976D2;stroke-width:1.0;"/><line style="stroke:#1976D2;stroke-width:1.0;" x1="121" x2="121" y1="171.0605" y2="195.1755"/><polygon fill="#1976D2" points="117,185.1755,121,195.1755,125,185.1755,121,189.1755" style="stroke:#1976D2;stroke-width:1.0;"/><line style="stroke:#1976D2;stroke-width:1.0;" x1="121" x2="121" y1="229.7595" y2="249.7595"/><polygon fill="#1976D2" points="117,239.7595,121,249.7595,125,239.7595,121,243.7595" style="stroke:#1976D2;stroke-width:1.0;"/><line style="stroke:#1976D2;stroke-width:1.0;" x1="121" x2="121" y1="284.3435" y2="304.3435"/><polygon fill="#1976D2" points="117,294.3435,121,304.3435,125,294.3435,121,298.3435" style="stroke:#1976D2;stroke-width:1.0;"/><line style="stroke:#1976D2;stroke-width:1.0;" x1="121" x2="121" y1="338.9275" y2="358.9275"/><polygon fill="#1976D2" points="117,348.9275,121,358.9275,125,348.9275,121,352.9275" style="stroke:#1976D2;stroke-width:1.0;"/><line style="stroke:#1976D2;stroke-width:1.0;" x1="121" x2="121" y1="393.5115" y2="417.0188"/><polygon fill="#1976D2" points="117,407.0188,121,417.0188,125,407.0188,121,411.0188" style="stroke:#1976D2;stroke-width:1.0;"/><line style="stroke:#1976D2;stroke-width:1.0;" x1="810" x2="810" y1="469.0188" y2="489.0188"/><polygon fill="#1976D2" points="806,479.0188,810,489.0188,814,479.0188,810,483.0188" style="stroke:#1976D2;stroke-width:1.0;"/><line style="stroke:#1976D2;stroke-width:1.0;" x1="555" x2="555" y1="622.8857" y2="642.8857"/><polygon fill="#1976D2" points="551,632.8857,555,642.8857,559,632.8857,555,636.8857" style="stroke:#1976D2;stroke-width:1.0;"/><line style="stroke:#1976D2;stroke-width:1.0;" x1="904.5" x2="904.5" y1="622.8857" y2="642.8857"/><polygon fill="#1976D2" points="900.5,632.8857,904.5,642.8857,908.5,632.8857,904.5,636.8857" style="stroke:#1976D2;stroke-width:1.0;"/><line style="stroke:#1976D2;stroke-width:1.0;" x1="555" x2="555" y1="568.3018" y2="588.3018"/><polygon fill="#1976D2" points="551,578.3018,555,588.3018,559,578.3018,555,582.3018" style="stroke:#1976D2;stroke-width:1.0;"/><line style="stroke:#1976D2;stroke-width:1.0;" x1="904.5" x2="904.5" y1="568.3018" y2="588.3018"/><polygon fill="#1976D2" points="900.5,578.3018,904.5,588.3018,908.5,578.3018,904.5,582.3018" style="stroke:#1976D2;stroke-width:1.0;"/><line style="stroke:#1976D2;stroke-width:1.0;" x1="555" x2="555" y1="677.4697" y2="700.9771"/><polygon fill="#1976D2" points="551,690.9771,555,700.9771,559,690.9771,555,694.9771" style="stroke:#1976D2;stroke-width:1.0;"/><line style="stroke:#1976D2;stroke-width:1.0;" x1="904.5" x2="904.5" y1="677.4697" y2="700.9771"/><polygon fill="#1976D2" points="900.5,690.9771,904.5,700.9771,908.5,690.9771,904.5,694.9771" style="stroke:#1976D2;stroke-width:1.0;"/><line style="stroke:#1976D2;stroke-width:1.0;" x1="810" x2="810" y1="538.1868" y2="562.3018"/><polygon fill="#1976D2" points="806,552.3018,810,562.3018,814,552.3018,810,556.3018" style="stroke:#1976D2;stroke-width:1.0;"/><line style="stroke:#1976D2;stroke-width:1.0;" x1="810" x2="810" y1="706.9771" y2="726.9771"/><polygon fill="#1976D2" points="806,716.9771,810,726.9771,814,716.9771,810,720.9771" style="stroke:#1976D2;stroke-width:1.0;"/><line style="stroke:#1976D2;stroke-width:1.0;" x1="1252" x2="1252" y1="778.9771" y2="798.9771"/><polygon fill="#1976D2" points="1248,788.9771,1252,798.9771,1256,788.9771,1252,792.9771" style="stroke:#1976D2;stroke-width:1.0;"/><line style="stroke:#1976D2;stroke-width:1.0;" x1="1252" x2="1252" y1="848.145" y2="868.145"/><polygon fill="#1976D2" points="1248,858.145,1252,868.145,1256,858.145,1252,862.145" style="stroke:#1976D2;stroke-width:1.0;"/><line style="stroke:#1976D2;stroke-width:1.0;" x1="1252" x2="1252" y1="902.729" y2="922.729"/><polygon fill="#1976D2" points="1248,912.729,1252,922.729,1256,912.729,1252,916.729" style="stroke:#1976D2;stroke-width:1.0;"/><line style="stroke:#1976D2;stroke-width:1.0;" x1="1252" x2="1252" y1="957.313" y2="977.313"/><polygon fill="#1976D2" points="1248,967.313,1252,977.313,1256,967.313,1252,971.313" style="stroke:#1976D2;stroke-width:1.0;"/><text fill="#000000" font-family="Verdana" font-size="18" lengthAdjust="spacing" textLength="104" x="184.75" y="73.1133">cd-aws.yml</text><text fill="#000000" font-family="Verdana" font-size="18" lengthAdjust="spacing" textLength="102" x="758" y="73.1133">cd-app.yml</text><text fill="#000000" font-family="Verdana" font-size="18" lengthAdjust="spacing" textLength="109" x="1311" y="73.1133">cd-data.yml</text><!--SRC=[bLDTRzem57tFhxZJfBNBojQFmKRw5F9HvG4DbKhTmwJ8ZKtYaTYHxO2G-F6x3g50XgPEUN7kFRxd-1pxdIbOnQ0k2HUENd9H4qKgU27PCbUo4JIGfLJmFexiTuJmCyDNt6mcVMJqFVuQX-UGKb6cEjJjpNWKtvr1nLAO3dCp70s3wsECKdAzRuw_ZSBRiuBKASGnt9GC0XpCHICR3I6hIxcfc33mBDLoKSgrTfnj9tsRqG5Pwy-RgjmwsX1b74-nMcfkfDgabEkQcApu9IvfEyU2FzuxGXe6YkU5SG1Y9IlG1L6C3XGh6T7CplEmLKdQb2mLf69N-vyLKvfBSONj3arJvEKBafaEcV5KDIBbr662WYLp76_EJ5F31_2Vv-0tfe3B7qaOe1ZlaMbKoo2KsP8fI2gICrXOLK62RTUTDRe08o4A7bstf_w9vDg3JXHyWf8O77SWzgAWvPE3dPEzxT4AdPqeJf7IO377GLZ6KHUxIHTWI7uOXqhhplvXD6xjh-l_iB-kpzhVEPbY7txB5-02JUobi3V-OA_DOCq5nIlnXGYg9AUmZm9i5FeeW0NU7iI_kZsT9p_lRS5rTyvOXwTpcDkkjHdWH2SgBUtIWqGOfWGfs-8C2GMc5Z1R1N-MOFcLrP82oUs3FQBs_SbVp0zIvdZpPoNPd2L_KlXu-zm8jcz5IzpPOxQBziZxnE8ulekkRMAK6FBso2pwdvbPm6beRxlshllO20ZjxYdF5J4OhZrwA_WF]--></g></svg>