<?xml version="1.0" encoding="us-ascii" standalone="no"?><svg xmlns="http://www.w3.org/2000/svg" xmlns:xlink="http://www.w3.org/1999/xlink" contentStyleType="text/css" height="999px" preserveAspectRatio="none" style="width:569px;height:999px;background:#FFFFFF;" version="1.1" viewBox="0 0 569 999" width="569px" zoomAndPan="magnify"><defs/><g><text fill="#000000" font-family="sans-serif" font-size="14" font-weight="bold" lengthAdjust="spacing" textLength="275" x="140" y="24.5332">Bible on Site API - Layered Architecture</text><!--cluster client--><g id="cluster_client"><rect fill="none" height="85" rx="2.5" ry="2.5" style="stroke:#181818;stroke-width:1.0;" width="138" x="7" y="87.6094"/><text fill="#000000" font-family="sans-serif" font-size="12" font-weight="bold" lengthAdjust="spacing" textLength="32" x="60" y="102.0664">Client</text></g><!--cluster api_system--><g id="cluster_api_system"><rect fill="none" height="805" rx="2.5" ry="2.5" style="stroke:#181818;stroke-width:1.0;stroke-dasharray:7.0,7.0;" width="394" x="169" y="45.6094"/><text fill="#000000" font-family="sans-serif" font-size="12" font-weight="bold" lengthAdjust="spacing" textLength="65" x="333.5" y="60.0664">API System</text></g><!--cluster Presentation Layer--><g id="cluster_Presentation Layer"><rect fill="#E8F4FD" height="339" rx="2.5" ry="2.5" style="stroke:#181818;stroke-width:1.0;" width="174" x="207" y="87.6094"/><text fill="#000000" font-family="sans-serif" font-size="12" font-weight="bold" lengthAdjust="spacing" textLength="108" x="240" y="102.0664">Presentation Layer</text></g><!--cluster Resolvers--><g id="cluster_Resolvers"><rect fill="none" height="85" rx="2.5" ry="2.5" style="stroke:#181818;stroke-width:1.0;" width="126" x="231" y="317.6094"/><text fill="#000000" font-family="sans-serif" font-size="12" font-weight="bold" lengthAdjust="spacing" textLength="57" x="265.5" y="332.0664">Resolvers</text></g><!--cluster Business Logic Layer--><g id="cluster_Business Logic Layer"><rect fill="#FFF3E0" height="151" rx="2.5" ry="2.5" style="stroke:#181818;stroke-width:1.0;" width="322" x="203" y="475.6094"/><text fill="#000000" font-family="sans-serif" font-size="12" font-weight="bold" lengthAdjust="spacing" textLength="122" x="303" y="490.0664">Business Logic Layer</text></g><!--cluster Services--><g id="cluster_Services"><rect fill="none" height="85" rx="2.5" ry="2.5" style="stroke:#181818;stroke-width:1.0;" width="134" x="227" y="517.6094"/><text fill="#000000" font-family="sans-serif" font-size="12" font-weight="bold" lengthAdjust="spacing" textLength="50" x="269" y="532.0664">Services</text></g><!--cluster DTOs--><g id="cluster_DTOs"><rect fill="none" height="85" rx="2.5" ry="2.5" style="stroke:#181818;stroke-width:1.0;" width="116" x="385" y="517.6094"/><text fill="#000000" font-family="sans-serif" font-size="12" font-weight="bold" lengthAdjust="spacing" textLength="31" x="427.5" y="532.0664">DTOs</text></g><!--cluster Data Access Layer--><g id="cluster_Data Access Layer"><rect fill="#E8F5E9" height="151" rx="2.5" ry="2.5" style="stroke:#181818;stroke-width:1.0;" width="346" x="193" y="675.6094"/><text fill="#000000" font-family="sans-serif" font-size="12" font-weight="bold" lengthAdjust="spacing" textLength="107" x="312.5" y="690.0664">Data Access Layer</text></g><!--cluster Providers--><g id="cluster_Providers"><rect fill="none" height="85" rx="2.5" ry="2.5" style="stroke:#181818;stroke-width:1.0;" width="154" x="217" y="717.6094"/><text fill="#000000" font-family="sans-serif" font-size="12" font-weight="bold" lengthAdjust="spacing" textLength="55" x="266.5" y="732.0664">Providers</text></g><!--cluster Entities (SeaORM)--><g id="cluster_Entities (SeaORM)"><rect fill="none" height="85" rx="2.5" ry="2.5" style="stroke:#181818;stroke-width:1.0;" width="120" x="395" y="717.6094"/><text fill="#000000" font-family="sans-serif" font-size="12" font-weight="bold" lengthAdjust="spacing" textLength="102" x="404" y="732.0664">Entities (SeaORM)</text></g><!--cluster Infrastructure--><g id="cluster_Infrastructure"><rect fill="none" height="94" rx="2.5" ry="2.5" style="stroke:#181818;stroke-width:1.0;" width="95" x="247" y="899.6094"/><text fill="#000000" font-family="sans-serif" font-size="12" font-weight="bold" lengthAdjust="spacing" textLength="79" x="255" y="914.0664">Infrastructure</text></g><!--entity gql_client--><g id="elem_gql_client"><rect fill="#F1F1F1" height="35.0938" rx="2.5" ry="2.5" style="stroke:#181818;stroke-width:0.5;" width="105" x="23.5" y="121.6094"/><text fill="#000000" font-family="sans-serif" font-size="12" lengthAdjust="spacing" textLength="85" x="33.5" y="144.0664">GraphQL Client</text></g><!--entity actix--><g id="elem_actix"><rect fill="#F1F1F1" height="35.0938" rx="2.5" ry="2.5" style="stroke:#181818;stroke-width:0.5;" width="110" x="234" y="121.6094"/><text fill="#000000" font-family="sans-serif" font-size="12" lengthAdjust="spacing" textLength="90" x="244" y="144.0664">Actix Web Server</text></g><!--entity gql_endpoint--><g id="elem_gql_endpoint"><rect fill="#F1F1F1" height="35.0938" rx="2.5" ry="2.5" style="stroke:#181818;stroke-width:0.5;" width="122" x="228" y="235.6094"/><text fill="#000000" font-family="sans-serif" font-size="12" lengthAdjust="spacing" textLength="102" x="238" y="258.0664">GraphQL Endpoint</text></g><!--entity authors_resolver--><g id="elem_authors_resolver"><rect fill="#F1F1F1" height="35.0938" rx="2.5" ry="2.5" style="stroke:#181818;stroke-width:0.5;" width="94" x="247" y="351.6094"/><text fill="#000000" font-family="sans-serif" font-size="12" lengthAdjust="spacing" textLength="74" x="257" y="374.0664">AuthorsQuery</text></g><!--entity authors_service--><g id="elem_authors_service"><rect fill="#F1F1F1" height="35.0938" rx="2.5" ry="2.5" style="stroke:#181818;stroke-width:0.5;" width="102" x="243" y="551.6094"/><text fill="#000000" font-family="sans-serif" font-size="12" lengthAdjust="spacing" textLength="82" x="253" y="574.0664">AuthorsService</text></g><!--entity author_dto--><g id="elem_author_dto"><rect fill="#F1F1F1" height="35.0938" rx="2.5" ry="2.5" style="stroke:#181818;stroke-width:0.5;" width="83" x="401.5" y="551.6094"/><text fill="#000000" font-family="sans-serif" font-size="12" lengthAdjust="spacing" textLength="63" x="411.5" y="574.0664">Author DTO</text></g><!--entity db_provider--><g id="elem_db_provider"><rect fill="#F1F1F1" height="35.0938" rx="2.5" ry="2.5" style="stroke:#181818;stroke-width:0.5;" width="122" x="233" y="751.6094"/><text fill="#000000" font-family="sans-serif" font-size="12" lengthAdjust="spacing" textLength="102" x="243" y="774.0664">Database Provider</text></g><!--entity author_entity--><g id="elem_author_entity"><rect fill="#F1F1F1" height="35.0938" rx="2.5" ry="2.5" style="stroke:#181818;stroke-width:0.5;" width="87" x="411.5" y="751.6094"/><text fill="#000000" font-family="sans-serif" font-size="12" lengthAdjust="spacing" textLength="67" x="421.5" y="774.0664">Author Entity</text></g><!--entity mysql--><g id="elem_mysql"><path d="M265,943.6094 C265,933.6094 294,933.6094 294,933.6094 C294,933.6094 323,933.6094 323,943.6094 L323,967.7031 C323,977.7031 294,977.7031 294,977.7031 C294,977.7031 265,977.7031 265,967.7031 L265,943.6094 " fill="#F1F1F1" style="stroke:#181818;stroke-width:0.5;"/><path d="M265,943.6094 C265,953.6094 294,953.6094 294,953.6094 C294,953.6094 323,953.6094 323,943.6094 " fill="none" style="stroke:#181818;stroke-width:0.5;"/><text fill="#000000" font-family="sans-serif" font-size="12" lengthAdjust="spacing" textLength="38" x="275" y="970.0664">MySQL</text></g><!--link gql_client to gql_endpoint--><g id="link_gql_client_gql_endpoint"><path d="M104.87,156.6794 C128.62,170.1794 163.26,189.5694 194,205.6094 C213.7,215.8894 230.5945,224.2355 248.6345,232.9255 " fill="none" id="gql_client-to-gql_endpoint" style="stroke:#181818;stroke-width:2.0;"/><polygon fill="#181818" points="254.04,235.5294,247.6676,228.0199,249.5354,233.3595,244.1958,235.2272,254.04,235.5294" style="stroke:#181818;stroke-width:2.0;"/><text fill="#000000" font-family="sans-serif" font-size="12" lengthAdjust="spacing" textLength="85" x="195" y="202.0664">GraphQL Query</text></g><!--link actix to gql_endpoint--><g id="link_actix_gql_endpoint"><path d="M289,156.6394 C289,177.8094 289,208.3094 289,229.5194 " fill="none" id="actix-to-gql_endpoint" style="stroke:#181818;stroke-width:2.0;"/><polygon fill="#181818" points="289,235.5194,293,226.5194,289,230.5194,285,226.5194,289,235.5194" style="stroke:#181818;stroke-width:2.0;"/></g><!--link gql_endpoint to authors_resolver--><g id="link_gql_endpoint_authors_resolver"><path d="M289.74,270.9294 C290.69,292.6094 292.0655,324.0652 293.0155,345.5952 " fill="none" id="gql_endpoint-to-authors_resolver" style="stroke:#181818;stroke-width:2.0;"/><polygon fill="#181818" points="293.28,351.5894,296.8794,342.4218,293.0596,346.5942,288.8872,342.7744,293.28,351.5894" style="stroke:#181818;stroke-width:2.0;"/></g><!--link authors_resolver to authors_service--><g id="link_authors_resolver_authors_service"><path d="M294,386.6494 C294,423.9194 294,508.1194 294,545.4794 " fill="none" id="authors_resolver-to-authors_service" style="stroke:#181818;stroke-width:2.0;"/><polygon fill="#181818" points="294,551.4794,298,542.4794,294,546.4794,290,542.4794,294,551.4794" style="stroke:#181818;stroke-width:2.0;"/></g><!--link authors_resolver to author_dto--><g id="link_authors_resolver_author_dto"><path d="M306.45,386.6494 C334.49,423.9194 398.7626,509.3249 426.8726,546.6849 " fill="none" id="authors_resolver-to-author_dto" style="stroke:#181818;stroke-width:2.0;"/><polygon fill="#181818" points="430.48,551.4794,428.2652,541.8828,427.4738,547.484,421.8726,546.6926,430.48,551.4794" style="stroke:#181818;stroke-width:2.0;"/><text fill="#000000" font-family="sans-serif" font-size="12" lengthAdjust="spacing" textLength="39" x="360" y="456.0664">returns</text></g><!--link authors_service to db_provider--><g id="link_authors_service_db_provider"><path d="M294,586.6494 C294,623.9194 294,708.1194 294,745.4794 " fill="none" id="authors_service-to-db_provider" style="stroke:#181818;stroke-width:2.0;"/><polygon fill="#181818" points="294,751.4794,298,742.4794,294,746.4794,290,742.4794,294,751.4794" style="stroke:#181818;stroke-width:2.0;"/></g><!--link authors_service to author_entity--><g id="link_authors_service_author_entity"><path d="M307.45,586.6494 C337.76,623.9194 407.3146,709.4642 437.6946,746.8242 " fill="none" id="authors_service-to-author_entity" style="stroke:#181818;stroke-width:2.0;"/><polygon fill="#181818" points="441.48,751.4794,438.9053,741.973,438.3255,747.6001,432.6984,747.0203,441.48,751.4794" style="stroke:#181818;stroke-width:2.0;"/><text fill="#000000" font-family="sans-serif" font-size="12" lengthAdjust="spacing" textLength="28" x="365" y="656.0664">uses</text></g><!--link db_provider to mysql--><g id="link_db_provider_mysql"><path d="M294,786.8094 C294,820.4294 294,890.2194 294,927.3294 " fill="none" id="db_provider-to-mysql" style="stroke:#181818;stroke-width:2.0;"/><polygon fill="#181818" points="294,933.3294,298,924.3294,294,928.3294,290,924.3294,294,933.3294" style="stroke:#181818;stroke-width:2.0;"/><text fill="#000000" font-family="sans-serif" font-size="12" lengthAdjust="spacing" textLength="49" x="295" y="880.0664">SeaORM</text></g><!--SRC=[XLDDZzCm4BtxLuoo1-1G10j8m06fInEqKbVRDYjnG2XodTd6QcfdFSv2GFtlECv7assxv10bCs_UlF4yqrQgWXk-WuABBTzWRAiSmQ2mN6roPDG3XDuLMg6ovo4ftlCojv5s8Fa7uUtb83arHl-wowJOAYI2IyQij8xeIgxTMok8fKMOBgvX0dDUeS7KrOZCHOKj3JBMIeJWQowTZW0uWV2Vy9U1UtvyCxp8bdDe03zhmEOXJneGspFMguQWxXHNP77dYNWX4_A_S95BXQzJJfcJq33thHS6oN5nAvrYBpE0Y_1Zz3wQjL0lP2gi_0tVSGqncaSqNWglWmTC9pPKQQ7bG2wsWHxQTryXwTpHKJ1erZGiRQODBKiqLTEi2IIcBUdXUzQyntDTbIJzNkPw8qK_MHH5xy8tWsPzGJsN57XMIPiVQQ4czaJAY7PsTtkE4bnkG9UaLlzdg1ct7AP2-BaEk_eGVZerqSBeHvcUEjoQPyq9eODu6UawATh_voOAbVEvH8ANCVBRrSshS-Dvu71vpWXrv6Z8_U0gNAjxmycQqj-HZZhj10StLRoSUuFlAdh8wzeNiCBS6vWoMH0xt12OJBwC70YVeNEfTnPZtiD7E3OgghD7zcDF8oDOvundGFM-dHw3Rb151xwsr2E7ApcL7vsh8oi97TEWogFyIRbiio_s3m00]--></g></svg>