<?xml version="1.0" encoding="UTF-8" standalone="no"?><!DOCTYPE svg PUBLIC "-//W3C//DTD SVG 1.1//EN" "http://www.w3.org/Graphics/SVG/1.1/DTD/svg11.dtd"><svg width="100%" height="100%" viewBox="0 0 1280 1280" version="1.1" xmlns="http://www.w3.org/2000/svg" xmlns:xlink="http://www.w3.org/1999/xlink" xml:space="preserve" xmlns:serif="http://www.serif.com/" style="fill-rule:evenodd;clip-rule:evenodd;"><g><g><rect x="-0" y="0" width="1280" height="1280" style="fill:#fff;"/></g><g><rect x="88" y="88" width="1112" height="1112" style="fill:#b6dfff;"/></g><path d="M650,269.8c-7.2,3.6 -10,12.5 -6.5,20.8c1.4,3.5 6.1,6.4 10.3,6.4c2.5,0 6.2,4.1 6.2,6.8c0,3.3 -6.2,12.3 -12.4,18c-5.8,5.2 -7.1,8.2 -3.7,8.2c2.6,0 18.1,-12.8 21.3,-17.7c6,-9.1 6.8,-11.7 6.8,-21.8c0,-11.3 -1.8,-15.9 -7.7,-20c-4.4,-3 -9.3,-3.2 -14.3,-0.7Z" style="fill:#001873;fill-rule:nonzero;"/><path d="M690.1,271c-1.8,0.4 -5,2.4 -7,4.4c-3.2,3.3 -3.6,4.2 -3.6,8.9c0,2.8 0.4,6.5 0.8,8c0.8,3 5.9,6.7 9.3,6.7c3.3,0 7.4,3.8 7.4,6.7c0,4.2 -5.7,12.9 -12.1,18.5c-6.2,5.5 -7.3,7.8 -3.7,7.8c4.9,0 20.8,-15.1 25.3,-24c2.5,-4.9 2.6,-6 2.3,-16.4c-0.3,-9.9 -0.6,-11.4 -2.7,-14.4c-4.4,-5.8 -9.5,-7.8 -16,-6.2Z" style="fill:#001873;fill-rule:nonzero;"/><path d="M554.3,293.3c-7.4,10.9 -8.9,22 -4.1,31.8c1.5,3 3.8,6.1 5,6.7c1.5,0.8 11.1,1.3 28.1,1.4c24.3,0.3 26,0.4 27.3,2.2c1.2,1.7 1.4,11.3 1.4,58.7c0,40.2 0.3,57 1.1,57.5c2,1.2 11.7,-9.5 13.5,-14.9c2.3,-6.9 1.9,-13.7 -2.1,-39.5c-3.2,-21.2 -5.5,-38.7 -7,-54.4c-0.6,-6.3 -0.5,-6.7 1.8,-8.2c3.4,-2.3 4.7,-5.8 4.7,-12.9c0,-7.7 -2.7,-13.9 -7.2,-16.7c-3.2,-2.1 -4.1,-2.1 -28.1,-1.5c-29.3,0.8 -29.1,0.9 -30.2,-8c-0.4,-3 -1,-5.5 -1.4,-5.5c-0.3,0 -1.6,1.5 -2.8,3.3Z" style="fill:#001873;fill-rule:nonzero;"/><path d="M737.4,299.2c-4.4,5 -5.5,9.2 -5.7,21.1c-0.2,8.2 0.2,10.9 1.6,13.5c2.6,4.8 8.4,7.1 17.7,7.2c6.4,0 7.9,0.4 10.5,2.4l3,2.4l0.3,17c0.3,11.3 0,17.7 -0.8,19.1c-1,2 -1.9,2.1 -13.6,2.1c-14.7,0 -17.2,0.9 -20.2,7.2c-2.2,4.5 -4.2,14.6 -4.2,21l0,3.8l42.9,0l3.5,-3.3c1.9,-1.8 3.8,-4.5 4.1,-5.9c1,-4.1 -1,-26.5 -4.1,-45.5c-2.8,-17.1 -2.8,-17.2 -1.1,-26c2.3,-11.6 2.2,-12.2 -1.4,-17.7c-4.3,-6.4 -7,-7.6 -17.2,-7.6c-10.1,0 -11.4,-1 -11.9,-8.9l-0.3,-5.5l-3.1,3.6Z" style="fill:#001873;fill-rule:nonzero;"/><path d="M801.3,299.2c-1.2,1.3 -3.3,5.8 -4.8,10c-3.7,10.6 -3.4,19.7 1.1,26c2.4,3.4 3.8,4.4 7.2,5.1c4.3,0.8 5.3,2.5 2.7,4.7c-0.8,0.6 -2.4,3.7 -3.5,6.8c-1.8,4.8 -2.1,7.2 -1.7,16.6c0.2,6.1 0.8,12.3 1.2,13.8c0.7,2.7 0.6,2.8 -3.4,2.8c-5.1,0 -7.2,1 -9.6,4.7c-2.1,3.1 -4.5,14.7 -4.5,21.6l0,4.8l29.4,-0.6l3.3,-4.3c3.1,-4.1 3.3,-4.8 3.3,-12.5c0,-9.2 -1.3,-12.9 -7.8,-22.4c-8.7,-12.8 -9.6,-25.4 -2.3,-33.1l2.2,-2.2l68.2,0l68.2,0.1l2.9,2.4l3,2.4l-1.2,24.3c-1.7,33 -1.6,48.8 0.2,48.8c2.3,0 6.6,-4 8.6,-8.1c2.5,-4.7 2.6,-14 0.5,-31.4c-0.8,-6.6 -1.9,-22.8 -2.5,-36c-0.6,-13.2 -1.3,-25 -1.5,-26.2c-0.3,-1.3 -1.7,-3.1 -3.2,-4c-2.5,-1.7 -8,-1.8 -75.5,-2.1l-72.7,-0.3l-2.1,-2.6c-1.1,-1.4 -2,-4 -2,-5.7c0,-4.9 -1.3,-6 -3.7,-3.4Z" style="fill:#001873;fill-rule:nonzero;"/><path d="M833.2,449c-2.3,1.6 -4.9,4.4 -5.8,6.2c-0.9,1.8 -1.8,3.5 -2,3.7c-0.2,0.2 -2.2,-0.9 -4.5,-2.5c-3.6,-2.5 -5.4,-3 -11.8,-3.2c-6.6,-0.3 -8,-0.1 -11.1,2c-9.2,6.3 -12.5,15.5 -12.5,35.8c0,13.4 0.9,15.6 7.8,19.2c3.9,2.1 5.7,2.2 29.7,2.5c14.5,0.2 26.7,0.8 28.2,1.4c1.6,0.7 3.1,2.3 3.7,4.1c3.4,9.6 -1.5,15.4 -25.5,30.1c-5,3.1 -11,7.5 -13.2,9.8c-5.3,5.3 -8.2,13.9 -8.2,24.6c0,8.9 -0.3,8.9 11,0.7c26,-18.7 33.9,-29.2 42.1,-56.4c2.4,-8.1 2.9,-11.2 2.9,-21c0,-14.2 -1.2,-17.3 -8.5,-21.2c-4.1,-2.3 -6.3,-2.8 -12.1,-2.8c-3.9,0 -14.7,-0.3 -24,-0.7l-16.9,-0.6l-2.7,-3c-3.3,-3.5 -3.6,-7.4 -0.9,-13.3c4.3,-9.5 10.1,-9.8 24.5,-1.4c8.7,5.1 11,6 15.1,6c4.5,0 5.2,-0.4 10.1,-5.3c2.8,-2.8 6.3,-5.9 7.6,-6.8l2.3,-1.7l-2.5,-2.7c-6.5,-7 -16,-8.5 -22.8,-3.5Z" style="fill:#001873;fill-rule:nonzero;"/><path d="M887.6,462.2c-5,6.2 -6.5,11.2 -6.5,22.2l-0.1,9.8l4.3,3.9c2.3,2.2 7.1,5 10.7,6.4c9.7,3.7 11,4.9 11.1,9.8c0,3.5 1.3,13.7 4.5,34.9l0.6,3.7l-8.9,4.4c-18.1,9.2 -20.9,12.8 -22.6,29.4c-0.6,5.6 -0.8,10.5 -0.5,10.9c0.9,0.8 35.2,-16.7 43.9,-22.4c11.8,-7.9 19.6,-17.2 24.9,-29.8c5.9,-14.2 15.8,-44.8 16.5,-51.1c0.4,-3.9 0.3,-7.5 -0.5,-9.7c-1.5,-4.7 -8.8,-11.2 -14.1,-12.6c-5,-1.4 -9.5,-5.7 -10.5,-10.2l-0.7,-3.2l-2.3,2.9c-3.7,4.6 -6.4,14.5 -6.4,23.5c0,10 1.9,12.9 12,18.6c4.1,2.3 8.1,5.3 8.7,6.6c0.7,1.2 1.3,4.6 1.3,7.4c0,5.9 -2.2,9.5 -11.1,18.1c-6.2,5.9 -18.5,13.7 -20.5,12.9c-2.1,-0.8 -9.4,-27.2 -9.4,-34.2c0,-2.4 1.1,-7.9 2.5,-12.2c5.7,-18.2 4.7,-20.8 -11.7,-29.1l-10.6,-5.3l-0.9,-4.7l-0.8,-4.6l-2.9,3.7Z" style="fill:#001873;fill-rule:nonzero;"/><path d="M274.7,465.2c-4.3,6.3 -5.6,11.6 -5.7,22.3c0,7.3 0.3,8.3 3.2,12.7c1.8,2.6 4.3,5 5.8,5.4c1.4,0.4 16.5,1 33.5,1.3c34.2,0.7 34.2,0.7 36.9,7.1c1.9,4.4 2.2,6.8 1.2,10c-1.2,3.5 -5.4,9 -7,9c-0.8,0 -1.6,0.7 -2,1.5c-0.3,0.8 -1.2,1.5 -1.9,1.5c-0.8,0 -2,0.7 -2.8,1.6c-0.7,0.8 -5.3,3.6 -10.3,6c-16,7.9 -18.2,9.8 -22.3,18.3c-2.4,5.1 -2.5,6.3 -2,14.4c0.3,4.9 0.9,9.2 1.2,9.5c0.3,0.4 1.6,-0.5 2.8,-2c1.2,-1.4 3.9,-3.5 6,-4.7c2,-1.3 3.7,-2.7 3.7,-3.2c0,-0.5 0.7,-0.9 1.5,-0.9c0.8,0 1.5,-0.5 1.5,-1c0,-0.6 0.6,-1 1.3,-1c0.8,0 2.4,-0.9 3.7,-2c1.3,-1.1 2.8,-2 3.4,-2c0.6,0 1.9,-0.9 2.9,-2c0.9,-1.1 2.3,-2 3.2,-2c0.8,0 1.9,-0.9 2.5,-2c0.6,-1.1 1.5,-2 2,-2c1.1,0 9.3,-8.6 9.9,-10.4c0.2,-0.6 0.7,-1.3 1,-1.6c0.3,-0.3 1.4,-2.3 2.4,-4.5c1,-2.2 2.5,-5.3 3.3,-6.8c0.8,-1.6 1.4,-3.9 1.4,-5.1c0,-1.2 0.4,-2.6 0.9,-3.2c0.4,-0.5 1.4,-6.8 2.1,-13.9c1.9,-19.2 -0.4,-29.7 -8,-37c-4,-3.8 -8.3,-4.3 -38.2,-4.4c-13.6,-0.1 -25.8,-0.5 -27.1,-1c-2.1,-0.8 -2.6,-1.8 -3.2,-7c-0.4,-3.9 -1.2,-6.1 -2,-6.1c-0.7,0 -2.9,2.4 -4.8,5.2Z" style="fill:#001873;fill-rule:nonzero;"/><path d="M376.8,465.2c-2.8,2.3 -5.6,7.3 -7.7,13.6c-2.2,6.4 -2.8,14.7 -1.2,15.7c0.5,0.3 1.2,1.8 1.6,3.4c1.1,4.9 5.2,9.4 9.8,10.8c2.8,0.9 11.5,1.3 26.8,1.3c21.4,0 22.8,0.1 25.3,2.1l2.6,2l0,20.9c0,12.8 -0.4,21.1 -1,21.5c-1,0.6 -1.5,31.5 -0.6,31.5c3.9,0 12.6,-6.7 12.6,-9.7c0,-1.2 0.5,-2.5 1,-2.8c1.3,-0.8 1.3,-16.9 0.1,-19.3c-1.3,-2.3 -4,-41.1 -3.9,-53.8c0.2,-9.1 -0.1,-10.6 -2.5,-15.6c-4.3,-8.8 -5.7,-9.2 -32.4,-9.6c-21.8,-0.3 -22.2,-0.4 -24.7,-2.7c-2,-1.8 -2.6,-3.4 -2.6,-6.5c0,-4.2 -0.6,-4.8 -3.2,-2.8Z" style="fill:#001873;fill-rule:nonzero;"/><path d="M568.7,471c-1.9,2.2 -4.3,6.6 -5.3,9.8c-2,6.3 -2.5,19.9 -0.8,21c0.6,0.4 1.4,1.6 1.8,2.8c0.3,1.1 1.9,3.2 3.4,4.7c2.5,2.4 3.9,2.8 14.2,3.7c6.3,0.5 38.6,1 71.7,1c38.7,0 61.1,0.4 62.9,1l2.7,1.1l-0.7,10.2c-0.3,5.6 -0.9,22.5 -1.2,37.4l-0.7,27.3l2.3,0c3.6,0 7.6,-3.6 9.8,-8.8c2.5,-5.8 4,-17.6 2.4,-19.4c-0.6,-0.7 -1.5,-7.8 -2.1,-15.8c-0.7,-8 -1.6,-16.5 -2.1,-19c-2,-9.9 -0.9,-15.9 3.7,-19.6c0.8,-0.7 1.6,-4 2,-8.2c0.5,-6.4 0.3,-7.5 -2.1,-11.6c-4.7,-8 -0.3,-7.6 -77.5,-7.6c-64,0 -74.9,-0.4 -77.2,-2.7c-0.5,-0.5 -1.2,-3.3 -1.6,-6.1c-0.3,-2.9 -0.9,-5.2 -1.4,-5.2c-0.4,0 -2.3,1.8 -4.2,4Z" style="fill:#001873;fill-rule:nonzero;"/><path d="M468.5,472.1c-5.5,6.1 -6.5,9.4 -6.5,20.9c0,8.9 0.3,10.5 2.5,13.9c1.3,2.2 3.4,4.2 4.6,4.6c2,0.7 1.9,0.9 -1.4,3.6c-4.9,4.1 -6.7,8.1 -7.4,17c-0.7,9.4 0.2,16.1 2.7,19.1c1.7,2.1 2,2.2 3.2,0.6c2.2,-2.9 12.3,-5 20.6,-4.2l7.4,0.7l-0.7,-7.9c-1.1,-12.1 -5.3,-16.4 -16,-16.4c-4.8,0 -5.5,-0.3 -5.5,-1.9c0,-1.1 1.1,-3.2 2.4,-4.8l2.4,-2.7l23.3,-0.1l23.4,0l4.6,2.7c5.4,3.2 7.2,5.6 9.3,12.8c2.8,9.5 1.6,15.8 -4.2,21.3c-5.1,4.9 -10.1,5.7 -35.3,5.7c-12.5,0 -23.9,0.4 -25.3,1c-3.4,1.3 -9.2,7.1 -10.1,10.1c-0.4,1.3 -1.1,2.9 -1.6,3.5c-0.7,0.9 -2.8,12.6 -2.9,16.1c0,1.9 64.1,1.9 67.1,0c3.1,-1.7 9.8,-9 9.9,-10.5c0,-0.6 0.5,-1.2 1,-1.2c0.6,0 1,-0.8 1,-1.8c0,-1 0.4,-2.2 1,-2.8c0.5,-0.5 1.4,-3.2 1.9,-5.9c0.6,-2.8 1.7,-8.1 2.5,-12c2.3,-10.4 2.9,-23.9 1.7,-34.6c-2.1,-19 -7.6,-30.4 -16.6,-34.9c-4.9,-2.4 -5.6,-2.5 -26,-2.5c-25,0 -25.9,-0.3 -27,-8.5c-0.4,-2.7 -1,-5 -1.5,-5c-0.4,0 -2.4,1.8 -4.5,4.1Z" style="fill:#001873;fill-rule:nonzero;"/><path d="M282.2,517.5c-1.6,1.3 -3.9,4.8 -5.1,7.7c-1.2,2.9 -2.6,6.1 -3.1,7c-1.1,1.9 -1.4,90 -0.4,91.1c1.2,1.2 8.2,-3.2 9.6,-6c0.8,-1.6 1.9,-3.7 2.5,-4.8c2.9,-5.5 3.4,-7.8 3.6,-15.6c0.2,-9.5 -1,-24.4 -2.3,-27.4c-1.1,-2.6 -4,-22.6 -4.2,-29c-0.2,-7.7 1.6,-16.2 3.9,-18.8c1.1,-1.2 2.4,-3.2 2.8,-4.5c0.5,-1.9 0.3,-2.2 -1.9,-2.2c-1.3,0 -3.8,1.1 -5.4,2.5Z" style="fill:#001873;fill-rule:nonzero;"/><path d="M572.2,535.5c-4.2,3.5 -6.1,9.1 -7.4,21.7c-1.2,12.7 -0.3,33.8 1.5,33.8c1.5,-0.1 4.6,-1.9 7.8,-4.5c5.4,-4.4 6.2,-16.4 2.3,-31.8c-1.7,-6.9 -1.6,-8.8 1.2,-19.5c0.9,-3 -1.6,-2.9 -5.4,0.3Z" style="fill:#001873;fill-rule:nonzero;"/><path d="M592.7,624.7c-1.5,0.4 -1.7,1.3 -1.5,5.6c0.3,4.9 0.5,5.2 3.1,5.5c2.6,0.3 2.8,0.6 2.2,3c-0.3,1.5 -1.7,3.6 -3,4.7c-1.4,1.2 -2.5,2.9 -2.5,3.8c0,1.6 0.2,1.6 2.8,0.3c1.6,-0.8 4.5,-3.3 6.6,-5.6c3.6,-4 3.7,-4.4 3.1,-9.3c-1,-7.3 -2,-8.7 -5.8,-8.6c-1.8,0.1 -4,0.3 -5,0.6Z" style="fill:#001873;fill-rule:nonzero;"/><path d="M609.2,625.5c-3.1,1.4 -3.3,1.7 -2.7,4.7c1.1,4.9 2.3,6.8 4.5,6.8c1.1,0 2,0.2 2,0.5c0,1.3 -3,6.2 -4.4,7.4c-1.8,1.5 -2.1,4.1 -0.5,4.1c2.1,0 6.8,-4.1 9.9,-8.7c3.3,-4.9 3.4,-7.6 0.4,-13.6c-1.6,-3.1 -4.1,-3.4 -9.2,-1.2Z" style="fill:#001873;fill-rule:nonzero;"/><path d="M838.4,627.5c-1.3,2 -2,2.3 -3,1.4c-2,-1.6 -10.1,-0.2 -12.5,2.2c-1.5,1.5 -1.9,3.3 -1.9,9.7c0,10.6 0.7,11.2 12.9,11.2c11.2,0 15.5,1.7 13.7,5.5c-0.6,1.2 -4.8,4.6 -9.3,7.5c-7,4.4 -8.3,5.6 -8.3,7.8c0,1.5 -0.3,4.4 -0.6,6.4c-0.6,3.4 -0.4,3.8 1.4,3.8c1.1,0 2.2,-0.7 2.6,-1.5c0.3,-0.8 1.2,-1.5 2.1,-1.5c0.8,0 1.5,-0.5 1.5,-1c0,-0.6 0.7,-1.3 1.6,-1.7c3.7,-1.4 10.2,-9 11.5,-13.4c0.7,-2.4 1.8,-4.7 2.4,-5.1c0.5,-0.4 1,-4 1,-8c0,-10.6 -1.3,-11.6 -14.7,-12l-10.3,-0.3l0,-3.5c0,-2.9 0.4,-3.6 2.3,-3.8c1.2,-0.2 2.2,0.1 2.2,0.6c0,1.1 7.2,4.2 9.8,4.2c1,0 2.5,-0.8 3.3,-1.8c0.9,-0.9 2.4,-2.2 3.5,-2.8c1.8,-1 1.8,-1.2 0.1,-3.7c-2.5,-3.8 -8.9,-3.9 -11.3,-0.2Z" style="fill:#001873;fill-rule:nonzero;"/><path d="M441.8,637.7c-1.9,4.4 -2.5,9.8 -1.4,13c0.8,2.3 4.6,4 6.5,2.8c1.9,-1.1 1.2,3.1 -0.9,5.5c-2.1,2.4 -3.5,5.8 -2.7,6.7c0.8,0.8 4.3,-0.6 7.2,-2.8c1.8,-1.5 2.4,-2.7 2,-4c-0.4,-1 -0.2,-1.9 0.4,-1.9c0.6,0 1.7,-1.6 2.5,-3.5c1.2,-2.8 1.2,-4.3 0.3,-8.1c-1,-4.1 -1.7,-4.9 -4.7,-5.9c-2.4,-0.8 -3.6,-1.9 -3.8,-3.3c-0.5,-3.5 -3.6,-2.6 -5.4,1.5Z" style="fill:#001873;fill-rule:nonzero;"/><path d="M462.1,637.8c-3,4.7 -2.4,10.7 1.3,13.9c2.4,2 2.5,2.3 1.1,5c-0.8,1.5 -1.5,3.6 -1.5,4.6c0,1 -0.7,2 -1.5,2.3c-1.2,0.5 -1.5,2.6 -1.5,10.5l0,9.9l2.8,-0.6c1.5,-0.4 3.1,-1 3.5,-1.4c0.4,-0.4 0.9,-5.1 1,-10.6c0.3,-10.1 2,-16.4 4.5,-16.4c0.7,0 1.5,-0.7 1.8,-1.5c0.5,-1.1 2.2,-1.5 6.6,-1.5c5.2,0 6.5,0.4 10,3.1c3.6,2.9 3.9,3.5 3.6,7.3l-0.3,4.1l-8,0.8c-12.3,1.3 -12.3,1.3 -13.4,5.5c-0.6,2 -1.1,5 -1.1,6.7l0,3l8.7,-0.3c14.5,-0.6 14.5,-0.6 16.5,-9.3c2,-9.4 2.2,-19.6 0.4,-22.9c-0.8,-1.4 -2.2,-4 -3.1,-5.8c-1,-1.7 -2.3,-3.2 -3.1,-3.2c-0.7,0 -1.7,-0.7 -2.1,-1.5c-0.5,-0.9 -2.6,-1.6 -4.8,-1.8c-3.6,-0.2 -3.9,0 -4.8,3.3c-1.2,4.8 -4.7,7 -4.7,3.1c0,-1.1 -1.6,-3.2 -3.5,-4.7c-1.9,-1.4 -3.5,-3.3 -3.5,-4c0,-2.6 -2.5,-1.3 -4.9,2.4Z" style="fill:#001873;fill-rule:nonzero;"/><path d="M503.4,634.8c-0.7,0.4 -1.8,2.6 -2.4,5c-1.1,3.4 -1.1,4.9 0,8.2c1.1,3.3 1.8,4.1 4.7,4.6l3.3,0.6l0,14.4c0,13.4 0.1,14.4 1.9,14.4c3.8,0 4.4,-2.4 3.6,-13.3c-0.4,-5.6 -0.6,-12 -0.5,-14.2c0.2,-2.2 0.4,-6.3 0.4,-9c0.1,-4.5 -0.1,-5 -2.2,-5.3c-1.2,-0.2 -3.2,-1.7 -4.4,-3.3c-2.3,-3.1 -2.7,-3.3 -4.4,-2.1Z" style="fill:#001873;fill-rule:nonzero;"/><path d="M520.6,637.4c-3.1,5.7 0.1,15.6 5.1,15.6c2.3,0 1.4,5.2 -1.4,8.2c-2.2,2.3 -2.4,2.8 -0.9,2.8c2.2,0 5.6,-1.8 5.6,-3c0,-0.5 1.1,-2 2.4,-3.3c3,-3 4.1,-8.3 2.9,-13.4c-0.7,-3.1 -1.5,-3.9 -4.2,-4.7c-1.8,-0.5 -4,-2 -4.8,-3.3c-2,-3 -2.5,-2.9 -4.7,1.1Z" style="fill:#001873;fill-rule:nonzero;"/><path d="M558.4,635.4c-2.4,1.7 -3.5,6.7 -2.5,11.6c0.8,4.1 2.2,4.6 15.4,5.5l9.7,0.7l0,22.4c0,12.3 0.3,22.4 0.6,22.4c0.3,0 1.9,-0.9 3.5,-2.1c2.8,-2 2.9,-2.3 2.9,-10.9c0,-4.9 -0.4,-9.1 -0.9,-9.4c-1.9,-1.2 -2.8,-16.1 -1.5,-28.3c0.6,-6.1 0.5,-6.3 -2,-7.2c-1.4,-0.6 -6.3,-0.7 -11,-0.4c-8.9,0.6 -10.9,-0.1 -11.7,-4c-0.4,-1.6 -0.6,-1.6 -2.5,-0.3Z" style="fill:#001873;fill-rule:nonzero;"/><path d="M627,636.1c0,1.1 -0.5,2.9 -1.1,4c-0.6,1.1 -0.7,3.8 -0.4,6.3l0.7,4.4l5.9,1.1l5.9,1.2l0,13.6l-5.2,0.5c-3.5,0.4 -5.5,1.1 -6.4,2.4c-0.7,1.1 -1.8,2.4 -2.4,3.1c-0.5,0.7 -1,2.8 -1,4.8l0,3.5l9.4,0c12.2,0 12.1,0.1 11.1,-13.8c-0.4,-5.9 -0.8,-14 -0.9,-18c-0.3,-8.2 -1.7,-10.1 -7.4,-10.2c-2.5,0 -3.5,-0.6 -4.4,-2.5c-1.4,-3 -3.8,-3.3 -3.8,-0.4Z" style="fill:#001873;fill-rule:nonzero;"/><path d="M651.6,635.6c-1.1,1 -1.6,3.4 -1.6,7c0,4.5 0.4,5.9 2.4,7.7c1.7,1.6 2.1,2.8 1.6,4.2c-0.4,1.1 -1,4.5 -1.4,7.6c-0.6,4.7 -1.1,5.8 -3.2,6.7c-1.3,0.7 -2.4,2 -2.4,2.9c0,1 -0.3,3.5 -0.6,5.5l-0.7,3.8l7.1,0c6.1,0 7.3,-0.3 8.2,-2c1.6,-2.9 0.2,-11.9 -2.5,-16.1c-2.4,-3.6 -2.4,-6.8 -0.2,-9.7c1,-1.3 8.5,-1.6 16,-0.6l4.6,0.7l-0.6,14.3c-0.6,15.4 -0.3,16.3 4.2,13c1.7,-1.2 1.8,-2.2 0.7,-18.8c-0.6,-9.6 -1.6,-18.6 -2.2,-19.9c-1,-2.3 -1.4,-2.4 -9.8,-2.1c-10.3,0.4 -16.2,-1 -16.2,-3.8c0,-2.4 -1.3,-2.6 -3.4,-0.4Z" style="fill:#001873;fill-rule:nonzero;"/><path d="M707.8,634.8c-2.1,0.4 -3.2,5.2 -2.3,10c1.3,7.1 1.4,7.2 13,7.2l10.5,0l-1.1,2.7c-0.6,1.6 -1.4,8.3 -1.7,15c-0.4,10.3 -0.2,12.3 1,12.3c2.1,0 3.8,-2.1 3.8,-4.6c0,-1.3 0.5,-2.6 1.1,-3c0.8,-0.4 0.8,-0.8 0,-1.3c-1.1,-0.7 -1.8,-17.1 -0.8,-18.8c0.4,-0.6 2,-1.3 3.7,-1.6c3.2,-0.7 3.7,-2.7 2.4,-9.6l-0.6,-3.1l-10.3,0c-11.1,0 -16.2,-1.2 -16.7,-3.9c-0.2,-0.9 -1,-1.5 -2,-1.3Z" style="fill:#001873;fill-rule:nonzero;"/><path d="M744.4,634.8c-0.7,0.4 -1.8,2.6 -2.4,5c-1.1,3.4 -1.1,4.9 0,8.2c1.1,3.3 1.8,4.1 4.7,4.6l3.3,0.6l0,14.4c0,13.4 0.1,14.4 1.9,14.4c4,0 4.5,-2.3 3.3,-14.5c-0.7,-7.4 -0.8,-12.5 -0.2,-14.7c2.3,-7.8 0.6,-13 -4.5,-14c-1.1,-0.2 -2.4,-1.3 -3,-2.6c-1.1,-2.4 -1.4,-2.6 -3.1,-1.4Z" style="fill:#001873;fill-rule:nonzero;"/><path d="M765.8,634.8c-1,0.2 -1.8,1.2 -1.8,2.2c0,1 -0.4,2.2 -1,2.5c-0.5,0.3 -1,2.8 -1,5.5c0,4.3 0.4,5.2 2.8,6.7c1.5,0.9 2.8,1.8 3,1.9c0.2,0.1 -0.8,1.9 -2.1,4.1c-2.1,3.2 -2.7,5.5 -3.2,14.5c-0.7,9.5 -0.5,10.8 0.9,10.8c2.8,0 4.6,-5.4 4.6,-13.8c0,-7.1 0.3,-8.2 3,-11.9c3.2,-4.3 5.8,-5.3 13.4,-5.3c5.2,0.1 10.5,4.5 11.3,9.5c0.9,5.6 -0.7,6.6 -9.8,6.3c-7.2,-0.3 -8,-0.1 -10.3,2.2c-1.4,1.4 -2.7,4.3 -3.1,6.7l-0.7,4.3l12,0c13.8,0 12.2,1.4 14.3,-12.8c1.6,-11.4 0.9,-17.4 -2.7,-22.5c-3.6,-5.1 -8.8,-8.7 -12.4,-8.7c-2.4,0 -2.9,0.5 -3.4,3.4c-0.4,1.9 -1.5,4.5 -2.6,5.8c-1.8,2.2 -2,2.2 -1.8,0.3c0.3,-4.4 -0.3,-6.6 -1.9,-7.2c-1,-0.3 -2.7,-1.5 -3.8,-2.7c-1.1,-1.2 -2.8,-2.1 -3.7,-1.8Z" style="fill:#001873;fill-rule:nonzero;"/><path d="M804.6,635.5c-0.9,0.9 -2,3.3 -2.6,5.5c-1.3,5 0.1,8.1 5.4,12c2.2,1.7 3.6,3 3,3c-1.2,0 -4.9,6.8 -4.1,7.6c1.2,1.2 3.7,-0.6 7.1,-5.3c5.7,-7.7 4.9,-16.2 -1.8,-19.8c-2,-1.1 -3.6,-2.5 -3.6,-3.2c0,-1.8 -1.5,-1.6 -3.4,0.2Z" style="fill:#001873;fill-rule:nonzero;"/><g id="path14684"><path d="M294.029,875.373c48.991,82.327 92.974,150.648 141.965,232.955c100.654,-48.323 143.32,-64.647 230.951,-94.977c38.325,11 78.653,-8.997 94.997,-24.005c72.308,-9.999 156.619,-21.981 237.944,-29.996c-2.004,-12.984 2.004,-17.994 0,-30.978c-84.311,-61.662 -169.623,-126.309 -253.954,-187.971c-153.967,43.668 -297.936,91.324 -451.903,134.972Z" style="fill:#001873;stroke:#fefefe;stroke-width:9.82px;"/></g><g><g id="path14685"><path d="M313.024,878.379c44.002,69.99 87.984,139.961 131.966,209.952c77.985,-40.996 170.566,-102.049 242.973,-85.745c-3.516,-24.103 7.818,-37.598 21.981,-53.234c-117.646,-20.312 -176.302,47.341 -259.945,79.989c-1.67,16.992 -3.339,34.003 -5.009,50.995c2.338,-16.324 2.672,-32.667 5.009,-48.991c-37.991,-58.99 -82.975,-132.968 -120.986,-191.958c-12.317,5.991 -13.652,24.987 -15.99,38.993Z" style="fill:#006aff;stroke:#001873;stroke-width:7.37px;"/></g><g id="path14686"><path d="M698.944,972.354c32.334,-61.662 58.538,-66.003 121.987,-74.98c49.679,-7.032 84.527,-5.382 135.188,-7.7c-4.341,14.654 3.104,34.023 9.763,53.686c-47.656,2.004 -85.313,-1.002 -137.958,5.991c-35.005,-2.986 -65.983,18.995 -88.986,41.998c2.004,-42.646 -22.001,-16.324 -39.995,-18.995Z" style="fill:#006aff;stroke:#001873;stroke-width:7.37px;"/></g><g id="path14687"><path d="M552.972,802.397l149.98,144.97c-121.143,-15.008 -185.81,58.479 -253.954,82.484c-39.327,-62.329 -81.148,-128.647 -120.475,-190.976c49.325,-23.651 81.895,-62.644 153.476,-68.478c27.737,-2.259 49.325,16.324 70.973,32Z" style="fill:#006aff;stroke:#001873;stroke-width:4.91px;"/></g><g id="path950"><path d="M710.161,949.843c37.225,-62.919 114.051,-53.745 245.31,-63.626c-69.283,-47.145 -138.567,-94.27 -207.85,-141.395c-90.734,17.679 -151.767,-19.801 -200.778,50.19l163.318,154.832Z" style="fill:#006aff;stroke:#001873;stroke-width:4.91px;"/></g></g></g></svg>