<?xml version="1.0" encoding="UTF-8" standalone="no"?>
<!DOCTYPE svg PUBLIC "-//W3C//DTD SVG 1.1//EN" "http://www.w3.org/Graphics/SVG/1.1/DTD/svg11.dtd">
<svg width="100%" height="100%" viewBox="0 0 1024 1024" version="1.1" xmlns="http://www.w3.org/2000/svg" xmlns:xlink="http://www.w3.org/1999/xlink" xml:space="preserve" xmlns:serif="http://www.serif.com/" style="fill-rule:evenodd;clip-rule:evenodd;">
    <g transform="matrix(0.1,0,0,-0.1,0,1024)">
        <g transform="matrix(10,0,0,-10,0,10240)">
            <rect x="0" y="0" width="1024" height="1024" style="fill:white;"/>
        </g>
        <g transform="matrix(9.6875,0,0,-9.6875,160,10080)">
            <rect x="0" y="0" width="1024" height="1024" style="fill:rgb(182,223,255);"/>
        </g>
        <path d="M5220,8822C5148,8786 5120,8697 5155,8614C5169,8579 5216,8550 5258,8550C5283,8550 5320,8509 5320,8482C5320,8449 5258,8359 5196,8302C5138,8250 5125,8220 5159,8220C5185,8220 5340,8348 5372,8397C5432,8488 5440,8514 5440,8615C5440,8728 5422,8774 5363,8815C5319,8845 5270,8847 5220,8822Z" style="fill:rgb(0,24,115);fill-rule:nonzero;"/>
        <path d="M5621,8810C5603,8806 5571,8786 5551,8766C5519,8733 5515,8724 5515,8677C5515,8649 5519,8612 5523,8597C5531,8567 5582,8530 5616,8530C5649,8530 5690,8492 5690,8463C5690,8421 5633,8334 5569,8278C5507,8223 5496,8200 5532,8200C5581,8200 5740,8351 5785,8440C5810,8489 5811,8500 5808,8604C5805,8703 5802,8718 5781,8748C5737,8806 5686,8826 5621,8810Z" style="fill:rgb(0,24,115);fill-rule:nonzero;"/>
        <path d="M4263,8587C4189,8478 4174,8367 4222,8269C4237,8239 4260,8208 4272,8202C4287,8194 4383,8189 4553,8188C4796,8185 4813,8184 4826,8166C4838,8149 4840,8053 4840,7579C4840,7177 4843,7009 4851,7004C4871,6992 4968,7099 4986,7153C5009,7222 5005,7290 4965,7548C4933,7760 4910,7935 4895,8092C4889,8155 4890,8159 4913,8174C4947,8197 4960,8232 4960,8303C4960,8380 4933,8442 4888,8470C4856,8491 4847,8491 4607,8485C4314,8477 4316,8476 4305,8565C4301,8595 4295,8620 4291,8620C4288,8620 4275,8605 4263,8587Z" style="fill:rgb(0,24,115);fill-rule:nonzero;"/>
        <path d="M6094,8528C6050,8478 6039,8436 6037,8317C6035,8235 6039,8208 6053,8182C6079,8134 6137,8111 6230,8110C6294,8110 6309,8106 6335,8086L6365,8062L6368,7892C6371,7779 6368,7715 6360,7701C6350,7681 6341,7680 6224,7680C6077,7680 6052,7671 6022,7608C6000,7563 5980,7462 5980,7398L5980,7360L6409,7360L6444,7393C6463,7411 6482,7438 6485,7452C6495,7493 6475,7717 6444,7907C6416,8078 6416,8079 6433,8167C6456,8283 6455,8289 6419,8344C6376,8408 6349,8420 6247,8420C6146,8420 6133,8430 6128,8509L6125,8564L6094,8528Z" style="fill:rgb(0,24,115);fill-rule:nonzero;"/>
        <path d="M6733,8528C6721,8515 6700,8470 6685,8428C6648,8322 6651,8231 6696,8168C6720,8134 6734,8124 6768,8117C6811,8109 6821,8092 6795,8070C6787,8064 6771,8033 6760,8002C6742,7954 6739,7930 6743,7836C6745,7775 6751,7713 6755,7698C6762,7671 6761,7670 6721,7670C6670,7670 6649,7660 6625,7623C6604,7592 6580,7476 6580,7407L6580,7359L6874,7365L6907,7408C6938,7449 6940,7456 6940,7533C6940,7625 6927,7662 6862,7757C6775,7885 6766,8011 6839,8088L6861,8110L7543,8110L8225,8109L8254,8085L8284,8061L8272,7818C8255,7488 8256,7330 8274,7330C8297,7330 8340,7370 8360,7411C8385,7458 8386,7551 8365,7725C8357,7791 8346,7953 8340,8085C8334,8217 8327,8335 8325,8347C8322,8360 8308,8378 8293,8387C8268,8404 8213,8405 7538,8408L6811,8411L6790,8437C6779,8451 6770,8477 6770,8494C6770,8543 6757,8554 6733,8528Z" style="fill:rgb(0,24,115);fill-rule:nonzero;"/>
        <path d="M7052,7030C7029,7014 7003,6986 6994,6968C6985,6950 6976,6933 6974,6931C6972,6929 6952,6940 6929,6956C6893,6981 6875,6986 6811,6988C6745,6991 6731,6989 6700,6968C6608,6905 6575,6813 6575,6610C6575,6476 6584,6454 6653,6418C6692,6397 6710,6396 6950,6393C7095,6391 7217,6385 7232,6379C7248,6372 7263,6356 7269,6338C7303,6242 7254,6184 7014,6037C6964,6006 6904,5962 6882,5939C6829,5886 6800,5800 6800,5693C6800,5604 6797,5604 6910,5686C7170,5873 7249,5978 7331,6250C7355,6331 7360,6362 7360,6460C7360,6602 7348,6633 7275,6672C7234,6695 7212,6700 7154,6700C7115,6700 7007,6703 6914,6707L6745,6713L6718,6743C6685,6778 6682,6817 6709,6876C6752,6971 6810,6974 6954,6890C7041,6839 7064,6830 7105,6830C7150,6830 7157,6834 7206,6883C7234,6911 7269,6942 7282,6951L7305,6968L7280,6995C7215,7065 7120,7080 7052,7030Z" style="fill:rgb(0,24,115);fill-rule:nonzero;"/>
        <path d="M7596,6898C7546,6836 7531,6786 7531,6676L7530,6578L7573,6539C7596,6517 7644,6489 7680,6475C7777,6438 7790,6426 7791,6377C7791,6342 7804,6240 7836,6028L7842,5991L7753,5947C7572,5855 7544,5819 7527,5653C7521,5597 7519,5548 7522,5544C7531,5536 7874,5711 7961,5768C8079,5847 8157,5940 8210,6066C8269,6208 8368,6514 8375,6577C8379,6616 8378,6652 8370,6674C8355,6721 8282,6786 8229,6800C8179,6814 8134,6857 8124,6902L8117,6934L8094,6905C8057,6859 8030,6760 8030,6670C8030,6570 8049,6541 8150,6484C8191,6461 8231,6431 8237,6418C8244,6406 8250,6372 8250,6344C8250,6285 8228,6249 8139,6163C8077,6104 7954,6026 7934,6034C7913,6042 7840,6306 7840,6376C7840,6400 7851,6455 7865,6498C7922,6680 7912,6706 7748,6789L7642,6842L7633,6889L7625,6935L7596,6898Z" style="fill:rgb(0,24,115);fill-rule:nonzero;"/>
        <path d="M1467,6868C1424,6805 1411,6752 1410,6645C1410,6572 1413,6562 1442,6518C1460,6492 1485,6468 1500,6464C1514,6460 1665,6454 1835,6451C2177,6444 2177,6444 2204,6380C2223,6336 2226,6312 2216,6280C2204,6245 2162,6190 2146,6190C2138,6190 2130,6183 2126,6175C2123,6167 2114,6160 2107,6160C2099,6160 2087,6153 2079,6144C2072,6136 2026,6108 1976,6084C1816,6005 1794,5986 1753,5901C1729,5850 1728,5838 1733,5757C1736,5708 1742,5665 1745,5662C1748,5658 1761,5667 1773,5682C1785,5696 1812,5717 1833,5729C1853,5742 1870,5756 1870,5761C1870,5766 1877,5770 1885,5770C1893,5770 1900,5775 1900,5780C1900,5786 1906,5790 1913,5790C1921,5790 1937,5799 1950,5810C1963,5821 1978,5830 1984,5830C1990,5830 2003,5839 2013,5850C2022,5861 2036,5870 2045,5870C2053,5870 2064,5879 2070,5890C2076,5901 2085,5910 2090,5910C2101,5910 2183,5996 2189,6014C2191,6020 2196,6027 2199,6030C2202,6033 2213,6053 2223,6075C2233,6097 2248,6128 2256,6143C2264,6159 2270,6182 2270,6194C2270,6206 2274,6220 2279,6226C2283,6231 2293,6294 2300,6365C2319,6557 2296,6662 2220,6735C2180,6773 2137,6778 1838,6779C1702,6780 1580,6784 1567,6789C1546,6797 1541,6807 1535,6859C1531,6898 1523,6920 1515,6920C1508,6920 1486,6896 1467,6868Z" style="fill:rgb(0,24,115);fill-rule:nonzero;"/>
        <path d="M2488,6868C2460,6845 2432,6795 2411,6732C2389,6668 2383,6585 2399,6575C2404,6572 2411,6557 2415,6541C2426,6492 2467,6447 2513,6433C2541,6424 2628,6420 2781,6420C2995,6420 3009,6419 3034,6399L3060,6379L3060,6170C3060,6042 3056,5959 3050,5955C3040,5949 3035,5640 3044,5640C3083,5640 3170,5707 3170,5737C3170,5749 3175,5762 3180,5765C3193,5773 3193,5934 3181,5958C3168,5981 3141,6369 3142,6496C3144,6587 3141,6602 3117,6652C3074,6740 3060,6744 2793,6748C2575,6751 2571,6752 2546,6775C2526,6793 2520,6809 2520,6840C2520,6882 2514,6888 2488,6868Z" style="fill:rgb(0,24,115);fill-rule:nonzero;"/>
        <path d="M4407,6810C4388,6788 4364,6744 4354,6712C4334,6649 4329,6513 4346,6502C4352,6498 4360,6486 4364,6474C4367,6463 4383,6442 4398,6427C4423,6403 4437,6399 4540,6390C4603,6385 4926,6380 5257,6380C5644,6380 5868,6376 5886,6370L5913,6359L5906,6257C5903,6201 5897,6032 5894,5883L5887,5610L5910,5610C5946,5610 5986,5646 6008,5698C6033,5756 6048,5874 6032,5892C6026,5899 6017,5970 6011,6050C6004,6130 5995,6215 5990,6240C5970,6339 5981,6399 6027,6436C6035,6443 6043,6476 6047,6518C6052,6582 6050,6593 6026,6634C5979,6714 6023,6710 5251,6710C4611,6710 4502,6714 4479,6737C4474,6742 4467,6770 4463,6798C4460,6827 4454,6850 4449,6850C4445,6850 4426,6832 4407,6810Z" style="fill:rgb(0,24,115);fill-rule:nonzero;"/>
        <path d="M3405,6799C3350,6738 3340,6705 3340,6590C3340,6501 3343,6485 3365,6451C3378,6429 3399,6409 3411,6405C3431,6398 3430,6396 3397,6369C3348,6328 3330,6288 3323,6199C3316,6105 3325,6038 3350,6008C3367,5987 3370,5986 3382,6002C3404,6031 3505,6052 3588,6044L3662,6037L3655,6116C3644,6237 3602,6280 3495,6280C3447,6280 3440,6283 3440,6299C3440,6310 3451,6331 3464,6347L3488,6374L3721,6375L3955,6375L4001,6348C4055,6316 4073,6292 4094,6220C4122,6125 4110,6062 4052,6007C4001,5958 3951,5950 3699,5950C3574,5950 3460,5946 3446,5940C3412,5927 3354,5869 3345,5839C3341,5826 3334,5810 3329,5804C3322,5795 3301,5678 3300,5643C3300,5624 3941,5624 3971,5643C4002,5660 4069,5733 4070,5748C4070,5754 4075,5760 4080,5760C4086,5760 4090,5768 4090,5778C4090,5788 4094,5800 4100,5806C4105,5811 4114,5838 4119,5865C4125,5893 4136,5946 4144,5985C4167,6089 4173,6224 4161,6331C4140,6521 4085,6635 3995,6680C3946,6704 3939,6705 3735,6705C3485,6705 3476,6708 3465,6790C3461,6817 3455,6840 3450,6840C3446,6840 3426,6822 3405,6799Z" style="fill:rgb(0,24,115);fill-rule:nonzero;"/>
        <path d="M1542,6345C1526,6332 1503,6297 1491,6268C1479,6239 1465,6207 1460,6198C1449,6179 1446,5298 1456,5287C1468,5275 1538,5319 1552,5347C1560,5363 1571,5384 1577,5395C1606,5450 1611,5473 1613,5551C1615,5646 1603,5795 1590,5825C1579,5851 1550,6051 1548,6115C1546,6192 1564,6277 1587,6303C1598,6315 1611,6335 1615,6348C1620,6367 1618,6370 1596,6370C1583,6370 1558,6359 1542,6345Z" style="fill:rgb(0,24,115);fill-rule:nonzero;"/>
        <path d="M4442,6165C4400,6130 4381,6074 4368,5948C4356,5821 4365,5610 4383,5610C4398,5611 4429,5629 4461,5655C4515,5699 4523,5819 4484,5973C4467,6042 4468,6061 4496,6168C4505,6198 4480,6197 4442,6165Z" style="fill:rgb(0,24,115);fill-rule:nonzero;"/>
        <path d="M4647,5273C4632,5269 4630,5260 4632,5217C4635,5168 4637,5165 4663,5162C4689,5159 4691,5156 4685,5132C4682,5117 4668,5096 4655,5085C4641,5073 4630,5056 4630,5047C4630,5031 4632,5031 4658,5044C4674,5052 4703,5077 4724,5100C4760,5140 4761,5144 4755,5193C4745,5266 4735,5280 4697,5279C4679,5278 4657,5276 4647,5273Z" style="fill:rgb(0,24,115);fill-rule:nonzero;"/>
        <path d="M4812,5265C4781,5251 4779,5248 4785,5218C4796,5169 4808,5150 4830,5150C4841,5150 4850,5148 4850,5145C4850,5132 4820,5083 4806,5071C4788,5056 4785,5030 4801,5030C4822,5030 4869,5071 4900,5117C4933,5166 4934,5193 4904,5253C4888,5284 4863,5287 4812,5265Z" style="fill:rgb(0,24,115);fill-rule:nonzero;"/>
        <path d="M7104,5245C7091,5225 7084,5222 7074,5231C7054,5247 6973,5233 6949,5209C6934,5194 6930,5176 6930,5112C6930,5006 6937,5000 7059,5000C7171,5000 7214,4983 7196,4945C7190,4933 7148,4899 7103,4870C7033,4826 7020,4814 7020,4792C7020,4777 7017,4748 7014,4728C7008,4694 7010,4690 7028,4690C7039,4690 7050,4697 7054,4705C7057,4713 7066,4720 7075,4720C7083,4720 7090,4725 7090,4730C7090,4736 7097,4743 7106,4747C7143,4761 7208,4837 7221,4881C7228,4905 7239,4928 7245,4932C7250,4936 7255,4972 7255,5012C7255,5118 7242,5128 7108,5132L7005,5135L7005,5170C7005,5199 7009,5206 7028,5208C7040,5210 7050,5207 7050,5202C7050,5191 7122,5160 7148,5160C7158,5160 7173,5168 7181,5178C7190,5187 7205,5200 7216,5206C7234,5216 7234,5218 7217,5243C7192,5281 7128,5282 7104,5245Z" style="fill:rgb(0,24,115);fill-rule:nonzero;"/>
        <path d="M3138,5143C3119,5099 3113,5045 3124,5013C3132,4990 3170,4973 3189,4985C3208,4996 3201,4954 3180,4930C3159,4906 3145,4872 3153,4863C3161,4855 3196,4869 3225,4891C3243,4906 3249,4918 3245,4931C3241,4941 3243,4950 3249,4950C3255,4950 3266,4966 3274,4985C3286,5013 3286,5028 3277,5066C3267,5107 3260,5115 3230,5125C3206,5133 3194,5144 3192,5158C3187,5193 3156,5184 3138,5143Z" style="fill:rgb(0,24,115);fill-rule:nonzero;"/>
        <path d="M3341,5142C3311,5095 3317,5035 3354,5003C3378,4983 3379,4980 3365,4953C3357,4938 3350,4917 3350,4907C3350,4897 3343,4887 3335,4884C3323,4879 3320,4858 3320,4779L3320,4680L3348,4686C3363,4690 3379,4696 3383,4700C3387,4704 3392,4751 3393,4806C3396,4907 3413,4970 3438,4970C3445,4970 3453,4977 3456,4985C3461,4996 3478,5000 3522,5000C3574,5000 3587,4996 3622,4969C3658,4940 3661,4934 3658,4896L3655,4855L3575,4847C3452,4834 3452,4834 3441,4792C3435,4772 3430,4742 3430,4725L3430,4695L3517,4698C3662,4704 3662,4704 3682,4791C3702,4885 3704,4987 3686,5020C3678,5034 3664,5060 3655,5078C3645,5095 3632,5110 3624,5110C3617,5110 3607,5117 3603,5125C3598,5134 3577,5141 3555,5143C3519,5145 3516,5143 3507,5110C3495,5062 3460,5040 3460,5079C3460,5090 3444,5111 3425,5126C3406,5140 3390,5159 3390,5166C3390,5192 3365,5179 3341,5142Z" style="fill:rgb(0,24,115);fill-rule:nonzero;"/>
        <path d="M3754,5172C3747,5168 3736,5146 3730,5122C3719,5088 3719,5073 3730,5040C3741,5007 3748,4999 3777,4994L3810,4988L3810,4844C3810,4710 3811,4700 3829,4700C3867,4700 3873,4724 3865,4833C3861,4889 3859,4953 3860,4975C3862,4997 3864,5038 3864,5065C3865,5110 3863,5115 3842,5118C3830,5120 3810,5135 3798,5151C3775,5182 3771,5184 3754,5172Z" style="fill:rgb(0,24,115);fill-rule:nonzero;"/>
        <path d="M3926,5146C3895,5089 3927,4990 3977,4990C4000,4990 3991,4938 3963,4908C3941,4885 3939,4880 3954,4880C3976,4880 4010,4898 4010,4910C4010,4915 4021,4930 4034,4943C4064,4973 4075,5026 4063,5077C4056,5108 4048,5116 4021,5124C4003,5129 3981,5144 3973,5157C3953,5187 3948,5186 3926,5146Z" style="fill:rgb(0,24,115);fill-rule:nonzero;"/>
        <path d="M4304,5166C4280,5149 4269,5099 4279,5050C4287,5009 4301,5004 4433,4995L4530,4988L4530,4764C4530,4641 4533,4540 4536,4540C4539,4540 4555,4549 4571,4561C4599,4581 4600,4584 4600,4670C4600,4719 4596,4761 4591,4764C4572,4776 4563,4925 4576,5047C4582,5108 4581,5110 4556,5119C4542,5125 4493,5126 4446,5123C4357,5117 4337,5124 4329,5163C4325,5179 4323,5179 4304,5166Z" style="fill:rgb(0,24,115);fill-rule:nonzero;"/>
        <path d="M4990,5159C4990,5148 4985,5130 4979,5119C4973,5108 4972,5081 4975,5056L4982,5012L5041,5001L5100,4989L5100,4853L5048,4848C5013,4844 4993,4837 4984,4824C4977,4813 4966,4800 4960,4793C4955,4786 4950,4765 4950,4745L4950,4710L5044,4710C5166,4710 5165,4709 5155,4848C5151,4907 5147,4988 5146,5028C5143,5110 5129,5129 5072,5130C5047,5130 5037,5136 5028,5155C5014,5185 4990,5188 4990,5159Z" style="fill:rgb(0,24,115);fill-rule:nonzero;"/>
        <path d="M5236,5164C5225,5154 5220,5130 5220,5094C5220,5049 5224,5035 5244,5017C5261,5001 5265,4989 5260,4975C5256,4964 5250,4930 5246,4899C5240,4852 5235,4841 5214,4832C5201,4825 5190,4812 5190,4803C5190,4793 5187,4768 5184,4748L5177,4710L5248,4710C5309,4710 5321,4713 5330,4730C5346,4759 5332,4849 5305,4891C5281,4927 5281,4959 5303,4988C5313,5001 5388,5004 5463,4994L5509,4987L5503,4844C5497,4690 5500,4681 5545,4714C5562,4726 5563,4736 5552,4902C5546,4998 5536,5088 5530,5101C5520,5124 5516,5125 5432,5122C5329,5118 5270,5132 5270,5160C5270,5184 5257,5186 5236,5164Z" style="fill:rgb(0,24,115);fill-rule:nonzero;"/>
        <path d="M5798,5172C5777,5168 5766,5120 5775,5072C5788,5001 5789,5000 5905,5000L6010,5000L5999,4973C5993,4957 5985,4890 5982,4823C5978,4720 5980,4700 5992,4700C6013,4700 6030,4721 6030,4746C6030,4759 6035,4772 6041,4776C6049,4780 6049,4784 6041,4789C6030,4796 6023,4960 6033,4977C6037,4983 6053,4990 6070,4993C6102,5000 6107,5020 6094,5089L6088,5120L5985,5120C5874,5120 5823,5132 5818,5159C5816,5168 5808,5174 5798,5172Z" style="fill:rgb(0,24,115);fill-rule:nonzero;"/>
        <path d="M6164,5172C6157,5168 6146,5146 6140,5122C6129,5088 6129,5073 6140,5040C6151,5007 6158,4999 6187,4994L6220,4988L6220,4844C6220,4710 6221,4700 6239,4700C6279,4700 6284,4723 6272,4845C6265,4919 6264,4970 6270,4992C6293,5070 6276,5122 6225,5132C6214,5134 6201,5145 6195,5158C6184,5182 6181,5184 6164,5172Z" style="fill:rgb(0,24,115);fill-rule:nonzero;"/>
        <path d="M6378,5172C6368,5170 6360,5160 6360,5150C6360,5140 6356,5128 6350,5125C6345,5122 6340,5097 6340,5070C6340,5027 6344,5018 6368,5003C6383,4994 6396,4985 6398,4984C6400,4983 6390,4965 6377,4943C6356,4911 6350,4888 6345,4798C6338,4703 6340,4690 6354,4690C6382,4690 6400,4744 6400,4828C6400,4899 6403,4910 6430,4947C6462,4990 6488,5000 6564,5000C6616,4999 6669,4955 6677,4905C6686,4849 6670,4839 6579,4842C6507,4845 6499,4843 6476,4820C6462,4806 6449,4777 6445,4753L6438,4710L6558,4710C6696,4710 6680,4696 6701,4838C6717,4952 6710,5012 6674,5063C6638,5114 6586,5150 6550,5150C6526,5150 6521,5145 6516,5116C6512,5097 6501,5071 6490,5058C6472,5036 6470,5036 6472,5055C6475,5099 6469,5121 6453,5127C6443,5130 6426,5142 6415,5154C6404,5166 6387,5175 6378,5172Z" style="fill:rgb(0,24,115);fill-rule:nonzero;"/>
        <path d="M6766,5165C6757,5156 6746,5132 6740,5110C6727,5060 6741,5029 6794,4990C6816,4973 6830,4960 6824,4960C6812,4960 6775,4892 6783,4884C6795,4872 6820,4890 6854,4937C6911,5014 6903,5099 6836,5135C6816,5146 6800,5160 6800,5167C6800,5185 6785,5183 6766,5165Z" style="fill:rgb(0,24,115);fill-rule:nonzero;"/>
        <g id="path14684" transform="matrix(19.643696,0,0,-19.643696,-3538.61416,8875.651884)">
            <path d="M264.66,311.01C289.6,352.92 311.99,387.7 336.93,429.6C388.17,405 409.89,396.69 454.5,381.25C474.01,386.85 494.54,376.67 502.86,369.03C539.67,363.94 582.59,357.84 623.99,353.76C622.97,347.15 625.01,344.6 623.99,337.99C581.07,306.6 537.64,273.69 494.71,242.3C416.33,264.53 343.04,288.79 264.66,311.01Z" style="fill:rgb(0,24,115);stroke:rgb(254,254,254);stroke-width:5px;"/>
        </g>
        <g>
            <g id="path14685" transform="matrix(19.643696,0,0,-19.643696,-3538.61416,8875.651884)">
                <path d="M274.33,312.54C296.73,348.17 319.12,383.79 341.51,419.42C381.21,398.55 428.34,367.47 465.2,375.77C463.41,363.5 469.18,356.63 476.39,348.67C416.5,338.33 386.64,372.77 344.06,389.39C343.21,398.04 342.36,406.7 341.51,415.35C342.7,407.04 342.87,398.72 344.06,390.41C324.72,360.38 301.82,322.72 282.47,292.69C276.2,295.74 275.52,305.41 274.33,312.54Z" style="fill:rgb(0,106,255);stroke:rgb(0,24,115);stroke-width:3.75px;"/>
            </g>
            <g id="path14686" transform="matrix(19.643696,0,0,-19.643696,-3538.61416,8875.651884)">
                <path d="M470.79,360.38C487.25,328.99 500.59,326.78 532.89,322.21C558.18,318.63 575.92,319.47 601.71,318.29C599.5,325.75 603.29,335.61 606.68,345.62C582.42,346.64 563.25,345.11 536.45,348.67C518.63,347.15 502.86,358.34 491.15,370.05C492.17,348.34 479.95,361.74 470.79,360.38Z" style="fill:rgb(0,106,255);stroke:rgb(0,24,115);stroke-width:3.75px;"/>
            </g>
            <g id="path14687" transform="matrix(19.643696,0,0,-19.643696,-3538.61416,8875.651884)">
                <path d="M396.48,273.86L472.83,347.66C411.16,340.02 378.24,377.43 343.55,389.65C323.53,357.92 302.24,324.16 282.22,292.43C307.33,280.39 323.91,260.54 360.35,257.57C374.47,256.42 385.46,265.88 396.48,273.86Z" style="fill:rgb(0,106,255);stroke:rgb(0,24,115);stroke-width:2.5px;"/>
            </g>
            <g id="path950" transform="matrix(19.643696,0,0,-19.643696,-3538.61416,8875.651884)">
                <path d="M476.5,348.92C495.45,316.89 534.56,321.56 601.38,316.53C566.11,292.53 530.84,268.54 495.57,244.55C449.38,253.55 418.31,234.47 393.36,270.1L476.5,348.92Z" style="fill:rgb(0,106,255);stroke:rgb(0,24,115);stroke-width:2.5px;"/>
            </g>
        </g>
    </g>
</svg>
